<?xml version="1.0" encoding="utf-8"?>
<!-- Generator: Adobe Illustrator 25.4.1, SVG Export Plug-In . SVG Version: 6.00 Build 0)  -->
<svg version="1.1" id="Layer_1" xmlns="http://www.w3.org/2000/svg" xmlns:xlink="http://www.w3.org/1999/xlink" x="0px" y="0px"
	 viewBox="0 0 141.73 141.73" style="enable-background:new 0 0 141.73 141.73;" xml:space="preserve">
<style type="text/css">
	.st0{fill:#0066B3;}
	.st1{fill:#FFFFFF;}
</style>
<circle class="st0" cx="70.87" cy="70.87" r="70.87"/>
<g>
	<path class="st1" d="M39.53,99.8h-1.65c-4.94-0.1-6.79-2.81-6.79-7.66c0-1.94,0.29-3.97,0.58-6.11c0.29-2.13,0.58-4.46,0.58-7.08
		c0.1-6.79-2.71-9.79-7.66-10.96V67.8c4.94-1.16,7.76-4.07,7.66-10.96c0-2.52-0.29-4.75-0.58-6.88c-0.29-2.23-0.58-4.27-0.58-6.2
		c0-4.75,1.74-7.46,6.69-7.56h1.75v0c1.9,0,3.44-1.54,3.44-3.44s-1.54-3.44-3.44-3.44h-2.71c-8.72,0-14.44,3.88-14.44,12.89
		c0,2.52,0.29,5.24,0.68,7.85c0.29,2.62,0.58,5.33,0.58,7.85c0,3.1-0.87,6.79-7.56,6.88v6.3c6.79,0.1,7.56,4.07,7.56,6.88
		c0,2.52-0.29,5.04-0.58,7.66c-0.39,2.62-0.68,5.33-0.68,7.76c0,9.79,6.01,13.28,14.35,13.28h2.81c1.9,0,3.44-1.54,3.44-3.44
		S41.43,99.8,39.53,99.8z"/>
	<path class="st1" d="M118.1,58.01c0-2.52,0.29-5.04,0.58-7.66c0.39-2.62,0.68-5.33,0.68-7.76c0-9.79-6.01-13.28-14.35-13.28h-2.81
		c-1.9,0-3.44,1.54-3.44,3.44s1.54,3.44,3.44,3.44h1.65c4.94,0.1,6.79,2.81,6.79,7.66c0,1.94-0.29,3.97-0.58,6.11
		s-0.58,4.46-0.58,7.08c-0.1,6.79,2.71,9.79,7.66,10.96v0.19c-4.94,1.16-7.76,4.07-7.66,10.96c0,2.52,0.29,4.75,0.58,6.88
		c0.29,2.23,0.58,4.27,0.58,6.2c0,4.75-1.74,7.46-6.69,7.56H82.93l-22.92,15.59V58.25h10.32c-0.54,0.92-1,1.92-1.35,3.01
		c-0.69,2.23-1.15,5.22-1.15,9.3c0,4.15,0.46,7.14,1.15,9.37c2.07,6.37,7.45,9.91,14.52,9.91c5.53,0,9.45-2.38,11.76-5.38
		c0.61-0.84,0.92-1.54,0.92-2.38c0-1.61-1.23-2.84-2.84-2.84c-1.15,0-2,0.61-2.84,1.54c-1.69,1.84-3.69,3.07-6.99,3.07
		c-4,0-6.99-1.92-8.22-5.76c-0.61-1.92-0.84-4.23-0.84-7.53c0-3.23,0.23-5.53,0.84-7.45c1.23-3.84,4.23-5.76,8.22-5.76
		c3.3,0,5.3,1.23,6.99,3.07c0.84,0.92,1.69,1.54,2.84,1.54c1.61,0,2.84-1.23,2.84-2.84c0-0.84-0.31-1.54-0.92-2.38
		c-2.31-3-6.22-5.38-11.76-5.38H60.01V42.6c0-1.91-1.55-3.47-3.46-3.47c-1.91,0-3.46,1.55-3.46,3.47v8.74h-8.34
		c-1.91,0-3.45,1.55-3.45,3.45s1.55,3.45,3.45,3.45h8.34v65.52c0,1.4,0.84,2.67,2.14,3.2c0.43,0.18,0.88,0.26,1.32,0.26
		c0.9,0,1.79-0.35,2.45-1.02l26.65-19.54h19.27c8.72,0,14.44-3.88,14.44-12.89c0-2.52-0.29-5.24-0.68-7.85
		c-0.29-2.62-0.58-5.33-0.58-7.85c0-3.1,0.87-6.79,7.56-6.88v-6.3C118.88,64.8,118.1,60.82,118.1,58.01z"/>
</g>
</svg>
