<svg id="Layer_1" data-name="Layer 1" xmlns="http://www.w3.org/2000/svg" viewBox="0 0 141.73 141.73"><defs><style>.cls-1{fill:#0066b3;}.cls-2{fill:#fff;}.cls-3{fill:#00599d;}</style></defs><circle class="cls-1" cx="70.87" cy="70.87" r="70.87"/><path class="cls-2" d="M45.79,93.85H44.44c-4-.08-5.55-2.3-5.55-6.27a37.48,37.48,0,0,1,.48-5,41.5,41.5,0,0,0,.47-5.79c.08-5.56-2.22-8-6.26-9v-.16c4-1,6.34-3.33,6.26-9a40,40,0,0,0-.47-5.63A39.93,39.93,0,0,1,38.89,48c0-3.88,1.43-6.1,5.48-6.18h1.42a2.82,2.82,0,1,0,0-5.63H43.57c-7.14,0-11.82,3.17-11.82,10.54a44.46,44.46,0,0,0,.56,6.43,59.24,59.24,0,0,1,.48,6.42c0,2.54-.72,5.56-6.19,5.64v5.15c5.55.08,6.19,3.33,6.19,5.63a56.56,56.56,0,0,1-.48,6.27,44.35,44.35,0,0,0-.56,6.34c0,8,4.92,10.87,11.74,10.87h2.3a2.82,2.82,0,1,0,0-5.63Z" transform="translate(0)"/><path class="cls-2" d="M110.08,59.66a56.38,56.38,0,0,1,.48-6.26,45.8,45.8,0,0,0,.55-6.35c0-8-4.92-10.86-11.74-10.86h-2.3a2.82,2.82,0,0,0,0,5.63h1.35c4,.08,5.55,2.3,5.55,6.26a37.4,37.4,0,0,1-.47,5,41.41,41.41,0,0,0-.48,5.79c-.08,5.55,2.22,8,6.27,9V68c-4.05,1-6.35,3.33-6.27,9a40.1,40.1,0,0,0,.48,5.64,39.84,39.84,0,0,1,.47,5.07c0,3.89-1.42,6.11-5.47,6.19H81.3L62.55,106.61V59.86H71a12.53,12.53,0,0,0-1.11,2.46,26,26,0,0,0-.94,7.6,26.19,26.19,0,0,0,.94,7.67c1.7,5.22,6.1,8.11,11.89,8.11a11.72,11.72,0,0,0,9.61-4.4,3.15,3.15,0,0,0,.76-2A2.28,2.28,0,0,0,89.82,77a3.11,3.11,0,0,0-2.32,1.25,7.15,7.15,0,0,1-5.72,2.52,6.53,6.53,0,0,1-6.73-4.72,20.3,20.3,0,0,1-.69-6.16,20.21,20.21,0,0,1,.69-6.1,6.53,6.53,0,0,1,6.73-4.71,7.15,7.15,0,0,1,5.72,2.52,3.11,3.11,0,0,0,2.32,1.25,2.28,2.28,0,0,0,2.33-2.32,3.13,3.13,0,0,0-.76-2,11.72,11.72,0,0,0-9.61-4.4H62.55V47.05a2.84,2.84,0,0,0-5.67,0v7.16H50.06a2.83,2.83,0,0,0,0,5.65h6.82v53.6a2.84,2.84,0,0,0,1.76,2.62,2.71,2.71,0,0,0,1.08.22,2.83,2.83,0,0,0,2-.84l21.8-16H99.29c7.14,0,11.82-3.17,11.82-10.55a45.87,45.87,0,0,0-.55-6.42,59.42,59.42,0,0,1-.48-6.43c0-2.54.71-5.55,6.19-5.63V65.3C110.72,65.22,110.08,62,110.08,59.66Z" transform="translate(0)"/><path class="cls-3" d="M108.3,39.06h0c1.78,1.73,2.82,4.31,2.82,8a45.8,45.8,0,0,1-.55,6.35,56.38,56.38,0,0,0-.48,6.26c0,2.3.64,5.56,6.19,5.64v5.15c-5.48.08-6.19,3.09-6.19,5.63a59.61,59.61,0,0,0,.48,6.43,45.87,45.87,0,0,1,.55,6.42c0,7.38-4.68,10.55-11.82,10.55H83.53l-21.8,16a2.83,2.83,0,0,1-2,.84,2.84,2.84,0,0,1-2-.83L81.5,140.94a70.89,70.89,0,0,0,60.15-66.83Z" transform="translate(0)"/></svg>