<svg id="Layer_1" data-name="Layer 1" xmlns="http://www.w3.org/2000/svg" viewBox="0 0 56.69 56.69"><defs><style>.cls-1{fill:#afc6d2;}.cls-2{fill:#330d00;}.cls-3{fill:#260700;}.cls-4,.cls-78,.cls-89{fill:#d58a77;}.cls-5{fill:#e49c84;}.cls-6{opacity:0.58;}.cls-7{fill:#e49b83;}.cls-8{fill:#e39a82;}.cls-9{fill:#e39982;}.cls-10{fill:#e39881;}.cls-11{fill:#e39780;}.cls-12{fill:#e3967f;}.cls-13{fill:#e2967e;}.cls-14{fill:#e2957e;}.cls-15{fill:#e2947d;}.cls-16{fill:#e2937c;}.cls-17{fill:#e1927b;}.cls-18{fill:#e1917b;}.cls-19{fill:#e1907a;}.cls-20{fill:#e18f79;}.cls-21{fill:#e18e78;}.cls-22{fill:#e08d77;}.cls-23{fill:#e08c76;}.cls-24{fill:#e08b75;}.cls-25{fill:#e08a75;}.cls-26{fill:#e08974;}.cls-27{fill:#df8873;}.cls-28{fill:#df8872;}.cls-29{fill:#df8772;}.cls-30{fill:#df8671;}.cls-31{fill:#df8570;}.cls-32{fill:#df8470;}.cls-33{fill:#de836f;}.cls-34{fill:#de826e;}.cls-35{fill:#de816d;}.cls-36{fill:#de806c;}.cls-37{fill:#dd7f6b;}.cls-38{fill:#dd7e6b;}.cls-39{fill:#dd7d6a;}.cls-40{fill:#dd7c69;}.cls-41{fill:#dc7b68;}.cls-42{fill:#dc7a67;}.cls-43{fill:#dc7967;}.cls-44{fill:#dc7866;}.cls-45{fill:#dc7765;}.cls-46{fill:#dc7665;}.cls-47{fill:#db7664;}.cls-48{fill:#db7563;}.cls-49{fill:#db7463;}.cls-50{fill:#db7362;}.cls-51{fill:#db7261;}.cls-52{fill:#da7161;}.cls-53{fill:#da7060;}.cls-54{fill:#da6f60;}.cls-55{fill:#da6e5f;}.cls-56{fill:#da6e5e;}.cls-57{fill:#da6d5e;}.cls-58{fill:#d96c5d;}.cls-59{fill:#d96b5c;}.cls-60{fill:#d96a5c;}.cls-61{fill:#d9695b;}.cls-62{fill:#d9685a;}.cls-63{fill:#d9675a;}.cls-64{fill:#d86659;}.cls-65{fill:#d86559;}.cls-66{fill:#d86458;}.cls-67{fill:#d86357;}.cls-68{fill:#d86257;}.cls-69{fill:#d76156;}.cls-70{fill:#d76055;}.cls-71{fill:#d75f55;}.cls-72{fill:#d75e54;}.cls-73{fill:#d75d54;}.cls-74{fill:#d75c53;}.cls-75{fill:#d75b52;}.cls-76{fill:#d65a52;}.cls-77{opacity:0.65;}.cls-78{opacity:0.54;}.cls-79{fill:#663330;}.cls-80,.cls-83,.cls-84{fill:#fff;}.cls-81{fill:#c5bcab;opacity:0.16;}.cls-82{opacity:0.36;}.cls-83{opacity:0.6;}.cls-84{opacity:0.1;}.cls-85{fill:#9c9479;}.cls-86{fill:#837f69;}.cls-87{fill:#d96359;}.cls-88{fill:#f3746c;}.cls-89{opacity:0.46;}</style></defs><circle class="cls-1" cx="28.35" cy="28.35" r="28.35"/><path class="cls-2" d="M30.76,5.51s-10.2-2.94-16,11.16S15,51.86,15,51.86H40S47.09,32,42.36,16.21C39.08,5.21,30.76,5.51,30.76,5.51Z"/><path class="cls-3" d="M18.69,25.4a65.57,65.57,0,0,0-1.46,15.17,47,47,0,0,0,2,11.32h15.2A115.49,115.49,0,0,0,37,35.47a60.82,60.82,0,0,0,0-10.54C30.91,25,24.8,25.15,18.69,25.4Z"/><path class="cls-4" d="M14.14,27.88c.56,1.74,2,2.82,3.14,2.41s1.69-2.14,1.14-3.88-2-2.82-3.14-2.42S13.59,26.14,14.14,27.88Z"/><path class="cls-5" d="M26.54,47h0a2.71,2.71,0,0,1-2.4-3s-1.71-2.55-1-2.65c1.34-.19,1.29-4,1.29-4a2.71,2.71,0,0,1,2.68-2.72h0a2.72,2.72,0,0,1,2.41,3s-.05,3.52,1.05,3.52c.81,0-1.37,3.09-1.37,3.09A2.71,2.71,0,0,1,26.54,47Z"/><path class="cls-4" d="M24.16,40a11.7,11.7,0,0,0,5.57-.25,11.62,11.62,0,0,1-.18-2.14,2.71,2.71,0,0,0-2.41-3,2.71,2.71,0,0,0-2.68,2.72A11.17,11.17,0,0,1,24.16,40Z"/><path class="cls-5" d="M26.51,39.07C16,39,14,24.37,16.88,17.61l.05-.11a15.58,15.58,0,0,1,1.19-2.2A13,13,0,0,1,24.59,10a11.13,11.13,0,0,1,3.79-.63C36,9.4,39.32,17.93,39,25,38.6,31.93,32.72,39.13,26.51,39.07Z"/><g class="cls-6"><circle class="cls-5" cx="20.54" cy="27.94" r="4.5" transform="translate(-11.36 41.54) rotate(-76.76)"/><circle class="cls-7" cx="20.54" cy="27.94" r="4.47" transform="translate(-11.36 41.54) rotate(-76.76)"/><circle class="cls-8" cx="20.54" cy="27.94" r="4.44" transform="translate(-11.36 41.54) rotate(-76.76)"/><circle class="cls-9" cx="20.54" cy="27.94" r="4.41" transform="translate(-11.36 41.54) rotate(-76.76)"/><circle class="cls-10" cx="20.54" cy="27.94" r="4.38" transform="translate(-11.36 41.54) rotate(-76.76)"/><circle class="cls-11" cx="20.54" cy="27.94" r="4.35" transform="translate(-11.36 41.54) rotate(-76.76)"/><circle class="cls-12" cx="20.54" cy="27.94" r="4.32" transform="matrix(0.23, -0.97, 0.97, 0.23, -11.36, 41.54)"/><circle class="cls-13" cx="20.54" cy="27.94" r="4.29" transform="translate(-11.36 41.54) rotate(-76.76)"/><circle class="cls-14" cx="20.54" cy="27.94" r="4.26" transform="translate(-11.36 41.54) rotate(-76.76)"/><circle class="cls-15" cx="20.54" cy="27.94" r="4.23" transform="translate(-11.36 41.54) rotate(-76.76)"/><circle class="cls-16" cx="20.54" cy="27.94" r="4.2" transform="translate(-11.36 41.54) rotate(-76.76)"/><circle class="cls-17" cx="20.54" cy="27.94" r="4.16" transform="translate(-11.36 41.54) rotate(-76.76)"/><circle class="cls-18" cx="20.54" cy="27.94" r="4.13" transform="translate(-11.36 41.54) rotate(-76.76)"/><circle class="cls-19" cx="20.54" cy="27.94" r="4.1" transform="translate(-11.36 41.54) rotate(-76.76)"/><circle class="cls-20" cx="20.54" cy="27.94" r="4.07" transform="translate(-11.36 41.53) rotate(-76.76)"/><circle class="cls-21" cx="20.54" cy="27.94" r="4.04" transform="translate(-11.36 41.53) rotate(-76.76)"/><circle class="cls-21" cx="20.54" cy="27.94" r="4.01" transform="matrix(0.23, -0.97, 0.97, 0.23, -11.36, 41.53)"/><path class="cls-22" d="M24.52,27.94a4,4,0,1,1-4-4A4,4,0,0,1,24.52,27.94Z"/><path class="cls-23" d="M24.49,27.94a3.95,3.95,0,1,1-3.95-4A4,4,0,0,1,24.49,27.94Z"/><path class="cls-24" d="M24.46,27.94A3.92,3.92,0,1,1,20.54,24,3.91,3.91,0,0,1,24.46,27.94Z"/><path class="cls-25" d="M24.43,27.94a3.89,3.89,0,1,1-3.89-3.89A3.89,3.89,0,0,1,24.43,27.94Z"/><path class="cls-26" d="M24.4,27.94a3.86,3.86,0,1,1-3.86-3.86A3.85,3.85,0,0,1,24.4,27.94Z"/><path class="cls-27" d="M24.37,27.94a3.83,3.83,0,1,1-3.83-3.83A3.83,3.83,0,0,1,24.37,27.94Z"/><path class="cls-28" d="M24.34,27.94a3.8,3.8,0,1,1-3.8-3.8A3.8,3.8,0,0,1,24.34,27.94Z"/><path class="cls-29" d="M24.31,27.94a3.77,3.77,0,1,1-3.77-3.77A3.76,3.76,0,0,1,24.31,27.94Z"/><path class="cls-30" d="M24.27,27.94a3.73,3.73,0,1,1-3.73-3.74A3.73,3.73,0,0,1,24.27,27.94Z"/><path class="cls-31" d="M24.24,27.94a3.7,3.7,0,1,1-3.7-3.7A3.7,3.7,0,0,1,24.24,27.94Z"/><path class="cls-32" d="M24.21,27.94a3.67,3.67,0,1,1-3.67-3.67A3.67,3.67,0,0,1,24.21,27.94Z"/><path class="cls-33" d="M24.18,27.94a3.64,3.64,0,1,1-3.64-3.64A3.64,3.64,0,0,1,24.18,27.94Z"/><path class="cls-34" d="M24.15,27.94a3.61,3.61,0,1,1-3.61-3.61A3.61,3.61,0,0,1,24.15,27.94Z"/><path class="cls-34" d="M24.12,27.94a3.58,3.58,0,1,1-3.58-3.58A3.58,3.58,0,0,1,24.12,27.94Z"/><path class="cls-35" d="M24.09,27.94a3.55,3.55,0,1,1-3.55-3.55A3.54,3.54,0,0,1,24.09,27.94Z"/><path class="cls-36" d="M24.06,27.94a3.52,3.52,0,1,1-3.52-3.52A3.52,3.52,0,0,1,24.06,27.94Z"/><path class="cls-37" d="M24,27.94a3.49,3.49,0,1,1-3.49-3.49A3.48,3.48,0,0,1,24,27.94Z"/><path class="cls-38" d="M24,27.94a3.46,3.46,0,1,1-3.46-3.46A3.45,3.45,0,0,1,24,27.94Z"/><path class="cls-39" d="M24,27.94a3.43,3.43,0,1,1-3.43-3.43A3.43,3.43,0,0,1,24,27.94Z"/><path class="cls-40" d="M23.94,27.94a3.4,3.4,0,1,1-3.4-3.4A3.4,3.4,0,0,1,23.94,27.94Z"/><path class="cls-40" d="M23.9,27.94a3.36,3.36,0,1,1-3.36-3.37A3.36,3.36,0,0,1,23.9,27.94Z"/><path class="cls-41" d="M23.87,27.94a3.33,3.33,0,1,1-3.33-3.33A3.33,3.33,0,0,1,23.87,27.94Z"/><path class="cls-42" d="M23.84,27.94a3.3,3.3,0,1,1-3.3-3.3A3.3,3.3,0,0,1,23.84,27.94Z"/><path class="cls-43" d="M23.81,27.94a3.27,3.27,0,1,1-3.27-3.27A3.27,3.27,0,0,1,23.81,27.94Z"/><path class="cls-44" d="M23.78,27.94a3.24,3.24,0,1,1-3.24-3.24A3.24,3.24,0,0,1,23.78,27.94Z"/><path class="cls-45" d="M23.75,27.94a3.21,3.21,0,1,1-3.21-3.21A3.21,3.21,0,0,1,23.75,27.94Z"/><path class="cls-46" d="M23.72,27.94a3.18,3.18,0,1,1-3.18-3.18A3.17,3.17,0,0,1,23.72,27.94Z"/><path class="cls-47" d="M23.69,27.94a3.15,3.15,0,1,1-3.15-3.15A3.15,3.15,0,0,1,23.69,27.94Z"/><path class="cls-48" d="M23.66,27.94a3.12,3.12,0,1,1-3.12-3.12A3.12,3.12,0,0,1,23.66,27.94Z"/><path class="cls-49" d="M23.63,27.94a3.09,3.09,0,1,1-3.09-3.09A3.08,3.08,0,0,1,23.63,27.94Z"/><path class="cls-50" d="M23.6,27.94a3.06,3.06,0,1,1-3.06-3.06A3.06,3.06,0,0,1,23.6,27.94Z"/><path class="cls-51" d="M23.57,27.94a3,3,0,1,1-3-3A3,3,0,0,1,23.57,27.94Z"/><path class="cls-52" d="M23.53,27.94a3,3,0,1,1-3-3A3,3,0,0,1,23.53,27.94Z"/><path class="cls-53" d="M23.5,27.94a3,3,0,1,1-3-3A3,3,0,0,1,23.5,27.94Z"/><path class="cls-54" d="M23.47,27.94A2.93,2.93,0,1,1,20.54,25,2.93,2.93,0,0,1,23.47,27.94Z"/><path class="cls-55" d="M23.44,27.94a2.9,2.9,0,1,1-2.9-2.9A2.9,2.9,0,0,1,23.44,27.94Z"/><path class="cls-56" d="M23.41,27.94a2.87,2.87,0,1,1-2.87-2.87A2.87,2.87,0,0,1,23.41,27.94Z"/><path class="cls-57" d="M23.38,27.94a2.84,2.84,0,1,1-2.84-2.84A2.84,2.84,0,0,1,23.38,27.94Z"/><path class="cls-58" d="M23.35,27.94a2.81,2.81,0,1,1-2.81-2.81A2.8,2.8,0,0,1,23.35,27.94Z"/><path class="cls-59" d="M23.32,27.94a2.78,2.78,0,1,1-2.78-2.78A2.77,2.77,0,0,1,23.32,27.94Z"/><path class="cls-60" d="M23.29,27.94a2.75,2.75,0,1,1-2.75-2.75A2.75,2.75,0,0,1,23.29,27.94Z"/><path class="cls-61" d="M23.26,27.94a2.72,2.72,0,1,1-2.72-2.72A2.71,2.71,0,0,1,23.26,27.94Z"/><path class="cls-62" d="M23.23,27.94a2.69,2.69,0,1,1-2.69-2.69A2.69,2.69,0,0,1,23.23,27.94Z"/><path class="cls-63" d="M23.2,27.94a2.66,2.66,0,1,1-2.66-2.66A2.66,2.66,0,0,1,23.2,27.94Z"/><path class="cls-64" d="M23.16,27.94a2.62,2.62,0,1,1-2.62-2.62A2.62,2.62,0,0,1,23.16,27.94Z"/><path class="cls-65" d="M23.13,27.94a2.59,2.59,0,1,1-2.59-2.59A2.59,2.59,0,0,1,23.13,27.94Z"/><path class="cls-66" d="M23.1,27.94a2.56,2.56,0,1,1-2.56-2.56A2.56,2.56,0,0,1,23.1,27.94Z"/><path class="cls-67" d="M23.07,27.94a2.53,2.53,0,1,1-2.53-2.53A2.53,2.53,0,0,1,23.07,27.94Z"/><path class="cls-68" d="M23,27.94a2.5,2.5,0,1,1-2.5-2.5A2.5,2.5,0,0,1,23,27.94Z"/><path class="cls-69" d="M23,27.94a2.47,2.47,0,1,1-2.47-2.47A2.47,2.47,0,0,1,23,27.94Z"/><path class="cls-70" d="M23,27.94a2.44,2.44,0,1,1-2.44-2.44A2.43,2.43,0,0,1,23,27.94Z"/><path class="cls-71" d="M23,27.94a2.41,2.41,0,1,1-2.41-2.41A2.4,2.4,0,0,1,23,27.94Z"/><path class="cls-72" d="M22.92,27.94a2.38,2.38,0,1,1-2.38-2.38A2.38,2.38,0,0,1,22.92,27.94Z"/><path class="cls-73" d="M22.89,27.94a2.35,2.35,0,1,1-2.35-2.35A2.35,2.35,0,0,1,22.89,27.94Z"/><path class="cls-74" d="M22.86,27.94a2.32,2.32,0,1,1-2.32-2.32A2.31,2.31,0,0,1,22.86,27.94Z"/><path class="cls-75" d="M22.82,27.94a2.28,2.28,0,1,1-2.28-2.29A2.28,2.28,0,0,1,22.82,27.94Z"/><path class="cls-76" d="M22.79,27.94a2.25,2.25,0,1,1-2.25-2.25A2.25,2.25,0,0,1,22.79,27.94Z"/></g><g class="cls-77"><circle class="cls-5" cx="32.1" cy="27.94" r="4.5" transform="translate(-9.68 36.04) rotate(-52.01)"/><circle class="cls-7" cx="32.1" cy="27.94" r="4.47" transform="translate(-9.69 35.95) rotate(-51.89)"/><circle class="cls-8" cx="32.1" cy="27.94" r="4.44" transform="translate(-9.71 35.86) rotate(-51.77)"/><circle class="cls-9" cx="32.1" cy="27.94" r="4.41" transform="translate(-9.73 35.77) rotate(-51.64)"/><circle class="cls-10" cx="32.1" cy="27.94" r="4.38" transform="translate(-9.74 35.68) rotate(-51.52)"/><circle class="cls-11" cx="32.1" cy="27.94" r="4.35" transform="translate(-9.76 35.59) rotate(-51.4)"/><circle class="cls-12" cx="32.1" cy="27.94" r="4.32" transform="translate(-9.78 35.5) rotate(-51.28)"/><circle class="cls-13" cx="32.1" cy="27.94" r="4.29" transform="translate(-9.79 35.41) rotate(-51.15)"/><circle class="cls-14" cx="32.1" cy="27.94" r="4.26" transform="translate(-9.81 35.32) rotate(-51.03)"/><circle class="cls-15" cx="32.1" cy="27.94" r="4.23" transform="translate(-9.82 35.23) rotate(-50.91)"/><circle class="cls-16" cx="32.1" cy="27.94" r="4.2" transform="translate(-9.84 35.14) rotate(-50.78)"/><circle class="cls-17" cx="32.1" cy="27.94" r="4.16" transform="translate(-9.86 35.05) rotate(-50.66)"/><circle class="cls-18" cx="32.1" cy="27.94" r="4.13" transform="translate(-9.87 34.96) rotate(-50.53)"/><circle class="cls-19" cx="32.1" cy="27.94" r="4.1" transform="translate(-9.89 34.87) rotate(-50.41)"/><circle class="cls-20" cx="32.1" cy="27.94" r="4.07" transform="translate(-9.9 34.78) rotate(-50.28)"/><circle class="cls-21" cx="32.1" cy="27.94" r="4.04" transform="translate(-9.92 34.69) rotate(-50.16)"/><circle class="cls-21" cx="32.1" cy="27.94" r="4.01" transform="translate(-9.93 34.59) rotate(-50.03)"/><path class="cls-22" d="M36.08,27.94a4,4,0,1,1-4-4A4,4,0,0,1,36.08,27.94Z"/><path class="cls-23" d="M36.05,27.94a4,4,0,1,1-3.95-4A4,4,0,0,1,36.05,27.94Z"/><path class="cls-24" d="M36,27.94A3.92,3.92,0,1,1,32.1,24,3.92,3.92,0,0,1,36,27.94Z"/><path class="cls-25" d="M36,27.94a3.89,3.89,0,1,1-3.89-3.89A3.89,3.89,0,0,1,36,27.94Z"/><path class="cls-26" d="M36,27.94a3.86,3.86,0,1,1-3.86-3.86A3.85,3.85,0,0,1,36,27.94Z"/><path class="cls-27" d="M35.92,27.94a3.83,3.83,0,1,1-3.82-3.83A3.82,3.82,0,0,1,35.92,27.94Z"/><path class="cls-28" d="M35.89,27.94a3.79,3.79,0,1,1-3.79-3.8A3.79,3.79,0,0,1,35.89,27.94Z"/><path class="cls-29" d="M35.86,27.94a3.76,3.76,0,1,1-3.76-3.77A3.76,3.76,0,0,1,35.86,27.94Z"/><path class="cls-30" d="M35.83,27.94A3.73,3.73,0,1,1,32.1,24.2,3.73,3.73,0,0,1,35.83,27.94Z"/><path class="cls-31" d="M35.8,27.94a3.7,3.7,0,1,1-3.7-3.7A3.7,3.7,0,0,1,35.8,27.94Z"/><path class="cls-32" d="M35.77,27.94a3.67,3.67,0,1,1-3.67-3.67A3.67,3.67,0,0,1,35.77,27.94Z"/><path class="cls-33" d="M35.74,27.94A3.64,3.64,0,1,1,32.1,24.3,3.64,3.64,0,0,1,35.74,27.94Z"/><path class="cls-34" d="M35.71,27.94a3.61,3.61,0,1,1-3.61-3.61A3.61,3.61,0,0,1,35.71,27.94Z"/><path class="cls-34" d="M35.68,27.94a3.58,3.58,0,1,1-3.58-3.58A3.58,3.58,0,0,1,35.68,27.94Z"/><path class="cls-35" d="M35.65,27.94a3.55,3.55,0,1,1-3.55-3.55A3.54,3.54,0,0,1,35.65,27.94Z"/><path class="cls-36" d="M35.62,27.94a3.52,3.52,0,1,1-3.52-3.52A3.52,3.52,0,0,1,35.62,27.94Z"/><path class="cls-37" d="M35.59,27.94a3.49,3.49,0,1,1-3.49-3.49A3.49,3.49,0,0,1,35.59,27.94Z"/><path class="cls-38" d="M35.55,27.94a3.46,3.46,0,1,1-3.45-3.46A3.44,3.44,0,0,1,35.55,27.94Z"/><path class="cls-39" d="M35.52,27.94a3.42,3.42,0,1,1-3.42-3.43A3.42,3.42,0,0,1,35.52,27.94Z"/><path class="cls-40" d="M35.49,27.94a3.39,3.39,0,1,1-3.39-3.4A3.39,3.39,0,0,1,35.49,27.94Z"/><path class="cls-40" d="M35.46,27.94a3.36,3.36,0,1,1-3.36-3.37A3.36,3.36,0,0,1,35.46,27.94Z"/><path class="cls-41" d="M35.43,27.94a3.33,3.33,0,1,1-3.33-3.33A3.33,3.33,0,0,1,35.43,27.94Z"/><path class="cls-42" d="M35.4,27.94a3.3,3.3,0,1,1-3.3-3.3A3.3,3.3,0,0,1,35.4,27.94Z"/><path class="cls-43" d="M35.37,27.94a3.27,3.27,0,1,1-3.27-3.27A3.27,3.27,0,0,1,35.37,27.94Z"/><path class="cls-44" d="M35.34,27.94A3.24,3.24,0,1,1,32.1,24.7,3.24,3.24,0,0,1,35.34,27.94Z"/><path class="cls-45" d="M35.31,27.94a3.21,3.21,0,1,1-3.21-3.21A3.21,3.21,0,0,1,35.31,27.94Z"/><path class="cls-46" d="M35.28,27.94a3.18,3.18,0,1,1-3.18-3.18A3.18,3.18,0,0,1,35.28,27.94Z"/><path class="cls-47" d="M35.25,27.94a3.15,3.15,0,1,1-3.15-3.15A3.15,3.15,0,0,1,35.25,27.94Z"/><path class="cls-48" d="M35.21,27.94a3.12,3.12,0,1,1-3.11-3.12A3.11,3.11,0,0,1,35.21,27.94Z"/><path class="cls-49" d="M35.18,27.94a3.09,3.09,0,1,1-3.08-3.09A3.08,3.08,0,0,1,35.18,27.94Z"/><path class="cls-50" d="M35.15,27.94a3.05,3.05,0,1,1-3-3.06A3,3,0,0,1,35.15,27.94Z"/><path class="cls-51" d="M35.12,27.94a3,3,0,1,1-3-3A3,3,0,0,1,35.12,27.94Z"/><path class="cls-52" d="M35.09,27.94a3,3,0,1,1-3-3A3,3,0,0,1,35.09,27.94Z"/><path class="cls-53" d="M35.06,27.94a3,3,0,1,1-3-3A3,3,0,0,1,35.06,27.94Z"/><path class="cls-54" d="M35,27.94A2.93,2.93,0,1,1,32.1,25,2.93,2.93,0,0,1,35,27.94Z"/><path class="cls-55" d="M35,27.94A2.9,2.9,0,1,1,32.1,25,2.9,2.9,0,0,1,35,27.94Z"/><path class="cls-56" d="M35,27.94a2.87,2.87,0,1,1-2.87-2.87A2.88,2.88,0,0,1,35,27.94Z"/><path class="cls-57" d="M34.94,27.94A2.84,2.84,0,1,1,32.1,25.1,2.84,2.84,0,0,1,34.94,27.94Z"/><path class="cls-58" d="M34.91,27.94a2.81,2.81,0,1,1-2.81-2.81A2.8,2.8,0,0,1,34.91,27.94Z"/><path class="cls-59" d="M34.88,27.94a2.78,2.78,0,1,1-2.78-2.78A2.78,2.78,0,0,1,34.88,27.94Z"/><path class="cls-60" d="M34.84,27.94a2.75,2.75,0,1,1-2.74-2.75A2.74,2.74,0,0,1,34.84,27.94Z"/><path class="cls-61" d="M34.81,27.94a2.72,2.72,0,1,1-2.71-2.72A2.71,2.71,0,0,1,34.81,27.94Z"/><path class="cls-62" d="M34.78,27.94a2.68,2.68,0,1,1-2.68-2.69A2.68,2.68,0,0,1,34.78,27.94Z"/><path class="cls-63" d="M34.75,27.94a2.65,2.65,0,1,1-2.65-2.66A2.65,2.65,0,0,1,34.75,27.94Z"/><path class="cls-64" d="M34.72,27.94a2.62,2.62,0,1,1-2.62-2.62A2.62,2.62,0,0,1,34.72,27.94Z"/><path class="cls-65" d="M34.69,27.94a2.59,2.59,0,1,1-2.59-2.59A2.59,2.59,0,0,1,34.69,27.94Z"/><path class="cls-66" d="M34.66,27.94a2.56,2.56,0,1,1-2.56-2.56A2.56,2.56,0,0,1,34.66,27.94Z"/><path class="cls-67" d="M34.63,27.94a2.53,2.53,0,1,1-2.53-2.53A2.53,2.53,0,0,1,34.63,27.94Z"/><path class="cls-68" d="M34.6,27.94a2.5,2.5,0,1,1-2.5-2.5A2.5,2.5,0,0,1,34.6,27.94Z"/><path class="cls-69" d="M34.57,27.94a2.47,2.47,0,1,1-2.47-2.47A2.48,2.48,0,0,1,34.57,27.94Z"/><path class="cls-70" d="M34.54,27.94A2.44,2.44,0,1,1,32.1,25.5,2.43,2.43,0,0,1,34.54,27.94Z"/><path class="cls-71" d="M34.51,27.94a2.41,2.41,0,1,1-2.41-2.41A2.4,2.4,0,0,1,34.51,27.94Z"/><path class="cls-72" d="M34.47,27.94a2.38,2.38,0,1,1-2.37-2.38A2.37,2.37,0,0,1,34.47,27.94Z"/><path class="cls-73" d="M34.44,27.94a2.35,2.35,0,1,1-2.34-2.35A2.34,2.34,0,0,1,34.44,27.94Z"/><path class="cls-74" d="M34.41,27.94a2.31,2.31,0,1,1-2.31-2.32A2.3,2.3,0,0,1,34.41,27.94Z"/><path class="cls-75" d="M34.38,27.94a2.28,2.28,0,1,1-2.28-2.29A2.28,2.28,0,0,1,34.38,27.94Z"/><path class="cls-76" d="M34.35,27.94a2.25,2.25,0,1,1-2.25-2.25A2.25,2.25,0,0,1,34.35,27.94Z"/></g><path class="cls-5" d="M41.49,27.88c-.55,1.74-2,2.82-3.14,2.41s-1.69-2.14-1.13-3.88,2-2.82,3.14-2.42S42.05,26.14,41.49,27.88Z"/><path class="cls-4" d="M40.24,28.74a3.12,3.12,0,0,1-3-.77c-1.51,4.73-5.58,9.26-10.4,10a10.19,10.19,0,0,1-6.75-1.42,9.19,9.19,0,0,0,6.39,2.5c4.71,0,9.23-4.09,11.3-9.1a1.64,1.64,0,0,0,.54.32c1.13.39,2.46-.57,3.06-2.17A3.14,3.14,0,0,1,40.24,28.74Z"/><path class="cls-78" d="M18.46,20.57l-.19,3.83L22.76,27a8.34,8.34,0,0,0,.91-5.87L22,20.46l-2.22-.31Z"/><path class="cls-4" d="M38.31,27.14s.39-2.83,2.44-2.11a2.4,2.4,0,0,0-1.22,2.27Z"/><path class="cls-79" d="M21.83,31a7.6,7.6,0,0,0,8.53-.27h0A4.67,4.67,0,0,1,26,34.65,3.9,3.9,0,0,1,21.83,31Z"/><path class="cls-80" d="M29.35,31.5c0-.05,0-.11,0-.16a7.58,7.58,0,0,1-6.87.06,2.61,2.61,0,0,1-.08.56c0,.17-.09.34-.14.5A3.63,3.63,0,0,0,26,34.65a4.29,4.29,0,0,0,3.73-2.15A6.51,6.51,0,0,1,29.35,31.5Z"/><path class="cls-81" d="M22.74,33.08a8.92,8.92,0,0,1,3.3-.24,8,8,0,0,1,2.95.55,4.64,4.64,0,0,0,.69-.89,6.51,6.51,0,0,1-.33-1c0-.05,0-.11,0-.16a7.58,7.58,0,0,1-6.87.06,2.61,2.61,0,0,1-.08.56c0,.17-.09.34-.14.5a4.55,4.55,0,0,0,.38.67Z"/><path class="cls-80" d="M22.76,27s-1.38-6.36-4.49-2.56c0,0-.51.74,1.17,1.86A5.3,5.3,0,0,0,22.76,27Z"/><path class="cls-78" d="M29,21.08s-.41,3.47.1,4.9l5.55-1.76a7.48,7.48,0,0,0-.18-3.65l-1.89-.42Z"/><path class="cls-2" d="M21.27,24c-.53-.17-1.18.39-1.45,1.23a2.11,2.11,0,0,0,0,1.24,4.64,4.64,0,0,0,1.25.43,2.11,2.11,0,0,0,.72-1.06C22,25,21.81,24.16,21.27,24Z"/><path class="cls-82" d="M21.27,24c-.4-.13-.87.16-1.19.68a.33.33,0,0,1,.13,0,1.24,1.24,0,0,1,1.15.33,1.35,1.35,0,0,1,.21,1.3,2.43,2.43,0,0,0,.19-.43C22,25,21.81,24.16,21.27,24Z"/><path class="cls-83" d="M19.1,25.64s1.26-1,1.41-.35-1.22.7-1.22.7Z"/><path class="cls-2" d="M18.27,24.4a.7.7,0,0,1-.38-.14.79.79,0,0,1-.21-.27,1.52,1.52,0,0,1-.18-.84.22.22,0,0,0,.12.17.41.41,0,0,0,.21.05A3.89,3.89,0,0,0,19.51,23a1.68,1.68,0,0,1,1.52.21c1.33.85,1.73,3.72,1.73,3.72S21.67,24,20.45,23.84a2.39,2.39,0,0,0-1.46.44A1.23,1.23,0,0,1,18.27,24.4Z"/><path class="cls-80" d="M34.49,24.23c0-.1-2.48-2.09-5.4,1.75,0,0,0,.4,1.25.74A3.56,3.56,0,0,0,34.49,24.23Z"/><path class="cls-2" d="M32.37,23.89c-.54-.11-1.2.53-1.47,1.42a1.92,1.92,0,0,0,.08,1.5,3.58,3.58,0,0,0,1.49-.3,2.71,2.71,0,0,0,.39-.8C33.13,24.82,32.91,24,32.37,23.89Z"/><path class="cls-82" d="M32.37,23.89c-.41-.08-.88.26-1.21.82l.14-.05a1.17,1.17,0,0,1,1.16.2,1.32,1.32,0,0,1,.21,1.31,3.71,3.71,0,0,0,.19-.46C33.13,24.82,32.91,24,32.37,23.89Z"/><path class="cls-83" d="M30.2,25.81s1.28-1.19,1.43-.51-1.43,1.09-1.43,1.09Z"/><path class="cls-2" d="M29.09,26a2.09,2.09,0,0,0,.13-.35,4.08,4.08,0,0,1,.45-.85c.71-1,2.2-2.06,3.41-1.74a3.1,3.1,0,0,1,.87.44,2.07,2.07,0,0,0,.71.36.79.79,0,0,0,.77-.21,1.55,1.55,0,0,1-1.62,1,5.69,5.69,0,0,1-.76-.26C31.65,23.92,30.08,24.86,29.09,26Z"/><path class="cls-2" d="M19.81,20.38c1.66-.18,2.79,1.68,3.77,1.42.33-.09.09-.71.09-.71a3.48,3.48,0,0,0-5.21-.52S19.41,20.42,19.81,20.38Z"/><path class="cls-2" d="M33.85,20.53c-3.07-.77-3.4,1.17-4.3,1.14-.34,0-.56-.59-.56-.59s2.55-3,5.47-.51A5.52,5.52,0,0,1,33.85,20.53Z"/><path class="cls-5" d="M25.44,23.85a7.39,7.39,0,0,1-1.83,3.76c-1.41,1.22.5,3.22,2.38,2.54s1.61-2,1.61-2Z"/><path class="cls-4" d="M23.29,29.19a2.24,2.24,0,0,0,2.7,1c1.61-.59,1.64-1.67,1.62-2A3.8,3.8,0,0,1,23.29,29.19Z"/><path class="cls-84" d="M24.91,27.82a3.29,3.29,0,0,0,.86-1.49,3,3,0,0,0,.12-.9c0-.14-.14-1.23-.55-1.12a6.75,6.75,0,0,1-1.73,3.3,1.26,1.26,0,0,0-.48.94A2.23,2.23,0,0,0,24.91,27.82Z"/><path class="cls-2" d="M28.83,7.55c-4.14,0-13.94,2.29-13.14,16.36,0,0,.47-6,4.86-9.16,2.84-2,4.14.95,6.33.88,3.19-.1,4-2.81,7.19-.82,1.72,1.09,3.33,7,3.56,9.47.16,1.66,1.9-.43,1.9-.43C40.54,11.2,33.49,7.55,28.83,7.55Z"/><path class="cls-85" d="M15.69,23.91s-.25-13,11.91-12.53S39.53,23.85,39.53,23.85,42,9.05,28,9.15,15.69,23.91,15.69,23.91Z"/><path class="cls-5" d="M32.79,41.45A29.3,29.3,0,0,0,27.6,41a25,25,0,0,0-7.59,1c.47.72.91,1.45,1.42,2.1a58.34,58.34,0,0,0,4.67,5.14A91,91,0,0,1,32.79,41.45Z"/><path class="cls-86" d="M32.12,41.34a6.61,6.61,0,0,1-5,3.53,5.28,5.28,0,0,1-5.87-3.15c-6.2,1.51-8.79,5.22-9.87,8.22,1.7,1.34,3.53,2.89,5.47,4.32a28.43,28.43,0,0,0,20.73.89c1.85-1.2,3.6-2.47,5.2-3.46l.21-.17C42.86,48.48,41.36,42.74,32.12,41.34Z"/><path class="cls-80" d="M10.78,50.58a28.14,28.14,0,0,0,9.12,4.83c-.09-1.08-.21-2.6-.27-3.13-.37-3.11-.56-6.52-1.17-9.64a.12.12,0,0,0-.18-.09A12.94,12.94,0,0,0,10.78,50.58Z"/><path class="cls-80" d="M43.71,52.16c-.28-2.73-2.06-8.25-7.51-10a.12.12,0,0,0-.14.07,61.76,61.76,0,0,0-2.18,13.89A28.22,28.22,0,0,0,43.71,52.16Z"/><path class="cls-87" d="M21.83,31a9.29,9.29,0,0,0,4.13.62,11.41,11.41,0,0,0,4.4-.81,6.11,6.11,0,0,1-4.47,1.95C22.79,32.61,21.83,31,21.83,31Z"/><path class="cls-88" d="M21.83,31a3.88,3.88,0,0,0,3.91,3.1c3.37,0,4.62-3.29,4.62-3.29s-.6,4.48-4.64,4.48S21.83,31,21.83,31Z"/><path class="cls-89" d="M25.63,35.72h.93a.43.43,0,0,1,.42.54c-.08.22-.3.42-.88.46s-.87-.25-.9-.52A.43.43,0,0,1,25.63,35.72Z"/></svg>