<svg id="Layer_1" data-name="Layer 1" xmlns="http://www.w3.org/2000/svg" xmlns:xlink="http://www.w3.org/1999/xlink" viewBox="0 0 56.69 56.69"><defs><style>.cls-1{fill:#afc6d2;}.cls-2{fill:#421b12;}.cls-3{opacity:0.23;}.cls-4{fill:#d58a77;}.cls-5{fill:#f4b46e;}.cls-6{fill:#e49c84;}.cls-7{opacity:0.58;}.cls-8{fill:#e49b83;}.cls-9{fill:#e39a82;}.cls-10{fill:#e39981;}.cls-11{fill:#e39881;}.cls-12{fill:#e39780;}.cls-13{fill:#e2967f;}.cls-14{fill:#e2957e;}.cls-15{fill:#e2947d;}.cls-16{fill:#e2937d;}.cls-17{fill:#e2927c;}.cls-18{fill:#e1927b;}.cls-19{fill:#e1917a;}.cls-20{fill:#e19079;}.cls-21{fill:#e18f79;}.cls-22{fill:#e18e78;}.cls-23{fill:#e08d77;}.cls-24{fill:#e08c76;}.cls-25{fill:#e08b76;}.cls-26{fill:#e08a75;}.cls-27{fill:#e08974;}.cls-28{fill:#df8973;}.cls-29{fill:#df8873;}.cls-30{fill:#df8772;}.cls-31{fill:#df8671;}.cls-32{fill:#df8570;}.cls-33{fill:#de8470;}.cls-34{fill:#de836f;}.cls-35{fill:#de826e;}.cls-36{fill:#de816d;}.cls-37{fill:#de806d;}.cls-38{fill:#dd806c;}.cls-39{fill:#dd7f6b;}.cls-40{fill:#dd7e6a;}.cls-41{fill:#dd7d6a;}.cls-42{fill:#dd7c69;}.cls-43{fill:#dc7b68;}.cls-44{fill:#dc7a68;}.cls-45{fill:#dc7967;}.cls-46{fill:#dc7866;}.cls-47{fill:#dc7766;}.cls-48{fill:#dc7765;}.cls-49{fill:#db7664;}.cls-50{fill:#db7564;}.cls-51{fill:#db7463;}.cls-52{fill:#db7362;}.cls-53{fill:#db7261;}.cls-54{fill:#da7161;}.cls-55{fill:#da7060;}.cls-56{fill:#da6f5f;}.cls-57{fill:#da6e5f;}.cls-58{fill:#da6d5e;}.cls-59{fill:#da6c5d;}.cls-60{fill:#d96b5d;}.cls-61{fill:#d96b5c;}.cls-62{fill:#d96a5b;}.cls-63{fill:#d9695b;}.cls-64{fill:#d9685a;}.cls-65{fill:#d86759;}.cls-66{fill:#d86659;}.cls-67{fill:#d86558;}.cls-68{fill:#d86458;}.cls-69{fill:#d86357;}.cls-70{fill:#d86256;}.cls-71{fill:#d76156;}.cls-72{fill:#d76055;}.cls-73{fill:#d75f54;}.cls-74{fill:#d75d54;}.cls-75{fill:#d75c53;}.cls-76{fill:#d75b52;}.cls-77{fill:#d65a52;}.cls-78{opacity:0.65;}.cls-79{fill:#663330;}.cls-80,.cls-83,.cls-87{fill:#fff;}.cls-81{fill:#bab5a3;opacity:0.35;}.cls-82{fill:url(#_ÂÁ_Ï_ÌÌ_È_ËÂÌÚ_5);}.cls-83{opacity:0.87;}.cls-84{fill:url(#_ÂÁ_Ï_ÌÌ_È_ËÂÌÚ_5-2);}.cls-85{fill:#22120c;}.cls-86{opacity:0.1;}.cls-87{opacity:0.14;}.cls-88{fill:#4f251b;}.cls-89,.cls-90{opacity:0.08;}.cls-90{fill:#fdca8f;}.cls-91{opacity:0.09;}.cls-92{fill:#f37475;}.cls-93{fill:#f37c7b;}</style><linearGradient id="_ÂÁ_Ï_ÌÌ_È_ËÂÌÚ_5" x1="32.96" y1="24.93" x2="34.31" y2="21.32" gradientUnits="userSpaceOnUse"><stop offset="0" stop-color="#33b77a"/><stop offset="1"/></linearGradient><linearGradient id="_ÂÁ_Ï_ÌÌ_È_ËÂÌÚ_5-2" x1="22.66" y1="24.94" x2="23.87" y2="21.27" xlink:href="#_ÂÁ_Ï_ÌÌ_È_ËÂÌÚ_5"/></defs><circle class="cls-1" cx="28.35" cy="28.35" r="28.35"/><path class="cls-2" d="M26.07,3.92S20.7,2.1,13.23,18.58c-9.1,20.09,8,33.11,4.6,36.09a28.36,28.36,0,0,0,8,1.91c3.5-1,7.7-3.5,12.31-8.72C49,35.58,50.37,26.69,41.89,14.22,38.25,8.88,28.25.55,26.07,3.92Z"/><path class="cls-3" d="M40.25,23.77l-.06-.23q-.24-.87-.51-1.74c-.36-1.12-.78-2.22-1.23-3.31a31.46,31.46,0,0,0-3.21-6c-.33-.49-.68-1-1.05-1.42-.18-.22-.37-.43-.56-.65l-.1-.12a19.42,19.42,0,0,0-2.37-2A.73.73,0,0,1,31,8.2l-.19-.1c-.28-.16-.55-.31-.84-.45-.53-.28-1.06-.55-1.6-.81a30.14,30.14,0,0,1-3.14-1.77,3.13,3.13,0,0,1-.49.82,60.57,60.57,0,0,0-7.66,10.75,24.6,24.6,0,0,0-2.22,5.11,20.26,20.26,0,0,0-.59,5.53A35.37,35.37,0,0,0,16.82,39c.74,1.93,1.6,3.82,2.52,5.67.51,1,1.06,2,1.58,3.06.22.42.43.85.66,1.28.1.19.2.38.31.57l.15.27c1.27,2.23,2.64,4.44,3.8,6.73a19.49,19.49,0,0,0,4.75-2.15c1.23-1.35,2.41-2.75,3.52-4.2a41.46,41.46,0,0,0,3.55-5.34,33.76,33.76,0,0,0,1.65-3.43q.3-.72.57-1.47c.11-.29.21-.59.3-.89a1.66,1.66,0,0,0,0-.16,28.4,28.4,0,0,0,.28-14C40.44,24.57,40.35,24.17,40.25,23.77Z"/><path class="cls-4" d="M30.94,34c-.21-1.41-2.15-2.18-3.61-2.07s-2.19.88-2,2.29c0,0,.09,4.32-.92,4.32-1.43,0,3.06,4.55,4.52,4.45S33,38.73,31.6,38.66C30.57,38.61,30.94,34,30.94,34Z"/><path class="cls-4" d="M39.91,43.66c-.17-.67-.25-1.41-.39-1.72l-4.89,3a3.06,3.06,0,0,1-.16-.48c0,.07,0,.22.08.44a92.39,92.39,0,0,0,2.63,10.4,28.68,28.68,0,0,0,5.27-2.35C41.76,50.74,40.87,47.45,39.91,43.66Z"/><path class="cls-4" d="M35.29,39.14s0,.84,0,4.12,6,8.56,6,8.56-1.4-10.75-2.49-11.91S35.29,39.14,35.29,39.14Z"/><path class="cls-4" d="M34.72,39.32a1.33,1.33,0,0,1,0-.28,49.36,49.36,0,0,0-11.17-.43,6.54,6.54,0,0,1-1.61.14C18,38,16.82,40.18,16.82,40.18a119.64,119.64,0,0,1,4.2,12H39.91A19.9,19.9,0,0,1,37,48C35.65,45.32,35.29,42.25,34.72,39.32Z"/><path class="cls-5" d="M38.14,45.9a35.9,35.9,0,0,1-2.85-6.76c-.78-.16-.78-.13-1.55-.24a7.18,7.18,0,0,1,.19,2.7,4.24,4.24,0,0,1-6.78,3,14.44,14.44,0,0,1-3.62-6l-1.62.14a13.92,13.92,0,0,1,.93,4.74,12.88,12.88,0,0,1-2.53,8c.46,1.57,1.06,3,1.53,4.39a28.5,28.5,0,0,0,6.51.76,28.19,28.19,0,0,0,13.82-3.6A4.85,4.85,0,0,0,42,51C41.52,49.76,39.52,48.27,38.14,45.9Z"/><path class="cls-4" d="M40.45,22a2.77,2.77,0,0,0-1.37-.34l-.59,5.59C41.36,26.54,41.06,22.38,40.45,22Z"/><path class="cls-6" d="M31.82,9.35a12.35,12.35,0,0,0-3.91-.87,10.37,10.37,0,0,0-9,3.8c-1.8,2.36-2.07,5.47-1.76,8.32a26.53,26.53,0,0,0,1.6,6.56,2.78,2.78,0,0,1,.33.27c1.63,1.68,2.41,3.88,4.16,5.33a17,17,0,0,0,2.43,2,22.69,22.69,0,0,0,2.44,1,13.13,13.13,0,0,0,6.14-2.65,7,7,0,0,0,2.3-2.44,22.63,22.63,0,0,1,1.35-2.22c.15-.21.31-.41.47-.6l.06-.08a2.32,2.32,0,0,1,.42-1.17c1.32-4.68.81-10.06-2.22-13.7A12.32,12.32,0,0,0,31.82,9.35Z"/><g class="cls-7"><path class="cls-6" d="M34.13,21a4.29,4.29,0,1,0,4.35,4.22A4.29,4.29,0,0,0,34.13,21Z"/><path class="cls-8" d="M34.13,21a4.26,4.26,0,1,0,4.32,4.19A4.26,4.26,0,0,0,34.13,21Z"/><path class="cls-9" d="M34.13,21a4.23,4.23,0,1,0,4.29,4.16A4.24,4.24,0,0,0,34.13,21Z"/><path class="cls-10" d="M34.13,21a4.2,4.2,0,1,0,4.26,4.13A4.2,4.2,0,0,0,34.13,21Z"/><path class="cls-11" d="M34.13,21.07a4.17,4.17,0,1,0,4.23,4.1A4.18,4.18,0,0,0,34.13,21.07Z"/><path class="cls-12" d="M34.13,21.1a4.14,4.14,0,1,0,4.2,4.07A4.14,4.14,0,0,0,34.13,21.1Z"/><path class="cls-13" d="M34.13,21.13a4.11,4.11,0,1,0,4.17,4A4.1,4.1,0,0,0,34.13,21.13Z"/><path class="cls-14" d="M34.14,21.16a4.07,4.07,0,1,0,4.13,4A4.08,4.08,0,0,0,34.14,21.16Z"/><path class="cls-15" d="M34.14,21.2a4,4,0,1,0,4.1,4A4,4,0,0,0,34.14,21.2Z"/><path class="cls-16" d="M34.14,21.23a4,4,0,1,0,4.06,3.94A4,4,0,0,0,34.14,21.23Z"/><path class="cls-17" d="M34.14,21.26a4,4,0,1,0,4,3.92A4,4,0,0,0,34.14,21.26Z"/><path class="cls-18" d="M34.14,21.29a3.95,3.95,0,1,0,4,3.89A3.94,3.94,0,0,0,34.14,21.29Z"/><path class="cls-19" d="M34.14,21.32a3.92,3.92,0,1,0,4,3.86A3.91,3.91,0,0,0,34.14,21.32Z"/><path class="cls-20" d="M34.14,21.35a3.89,3.89,0,1,0,3.94,3.83A3.89,3.89,0,0,0,34.14,21.35Z"/><path class="cls-21" d="M34.14,21.38a3.86,3.86,0,1,0,3.91,3.8A3.85,3.85,0,0,0,34.14,21.38Z"/><path class="cls-22" d="M34.14,21.41A3.83,3.83,0,1,0,38,25.18,3.83,3.83,0,0,0,34.14,21.41Z"/><path class="cls-23" d="M34.14,21.44A3.8,3.8,0,1,0,38,25.18,3.8,3.8,0,0,0,34.14,21.44Z"/><path class="cls-24" d="M34.14,21.47A3.77,3.77,0,1,0,38,25.18,3.76,3.76,0,0,0,34.14,21.47Z"/><path class="cls-25" d="M34.14,21.5a3.74,3.74,0,1,0,3.79,3.68A3.74,3.74,0,0,0,34.14,21.5Z"/><path class="cls-26" d="M34.14,21.53a3.71,3.71,0,1,0,3.76,3.65A3.71,3.71,0,0,0,34.14,21.53Z"/><path class="cls-27" d="M34.14,21.56a3.68,3.68,0,1,0,3.73,3.62A3.67,3.67,0,0,0,34.14,21.56Z"/><path class="cls-28" d="M34.14,21.59a3.65,3.65,0,1,0,3.7,3.59A3.65,3.65,0,0,0,34.14,21.59Z"/><path class="cls-29" d="M34.14,21.62a3.62,3.62,0,1,0,3.67,3.56A3.61,3.61,0,0,0,34.14,21.62Z"/><path class="cls-30" d="M34.14,21.65a3.58,3.58,0,1,0,3.64,3.53A3.58,3.58,0,0,0,34.14,21.65Z"/><path class="cls-31" d="M34.14,21.68a3.55,3.55,0,1,0,3.61,3.5A3.55,3.55,0,0,0,34.14,21.68Z"/><path class="cls-32" d="M34.14,21.72a3.52,3.52,0,1,0,3.58,3.46A3.5,3.5,0,0,0,34.14,21.72Z"/><path class="cls-33" d="M34.14,21.75a3.49,3.49,0,1,0,3.54,3.43A3.48,3.48,0,0,0,34.14,21.75Z"/><path class="cls-34" d="M34.14,21.78a3.46,3.46,0,1,0,3.51,3.4A3.45,3.45,0,0,0,34.14,21.78Z"/><path class="cls-35" d="M34.14,21.81a3.43,3.43,0,1,0,3.48,3.37A3.42,3.42,0,0,0,34.14,21.81Z"/><path class="cls-36" d="M34.15,21.84a3.4,3.4,0,1,0,3.44,3.34A3.4,3.4,0,0,0,34.15,21.84Z"/><path class="cls-37" d="M34.15,21.87a3.37,3.37,0,1,0,3.41,3.31A3.37,3.37,0,0,0,34.15,21.87Z"/><path class="cls-38" d="M34.15,21.9a3.34,3.34,0,1,0,3.38,3.28A3.33,3.33,0,0,0,34.15,21.9Z"/><path class="cls-39" d="M34.15,21.93a3.31,3.31,0,1,0,3.35,3.26A3.31,3.31,0,0,0,34.15,21.93Z"/><path class="cls-40" d="M34.15,22a3.28,3.28,0,1,0,3.32,3.23A3.27,3.27,0,0,0,34.15,22Z"/><path class="cls-41" d="M34.15,22a3.25,3.25,0,1,0,3.29,3.2A3.25,3.25,0,0,0,34.15,22Z"/><path class="cls-42" d="M34.15,22a3.22,3.22,0,1,0,3.26,3.17A3.22,3.22,0,0,0,34.15,22Z"/><path class="cls-43" d="M34.15,22.05a3.19,3.19,0,1,0,3.23,3.14A3.19,3.19,0,0,0,34.15,22.05Z"/><path class="cls-44" d="M34.15,22.08a3.16,3.16,0,1,0,3.2,3.11A3.16,3.16,0,0,0,34.15,22.08Z"/><path class="cls-45" d="M34.15,22.11a3.13,3.13,0,1,0,3.17,3.08A3.14,3.14,0,0,0,34.15,22.11Z"/><path class="cls-46" d="M34.15,22.14a3.1,3.1,0,1,0,3.14,3.05A3.09,3.09,0,0,0,34.15,22.14Z"/><path class="cls-47" d="M34.15,22.17a3.06,3.06,0,1,0,3.11,3A3.06,3.06,0,0,0,34.15,22.17Z"/><path class="cls-48" d="M34.15,22.21a3,3,0,1,0,3.08,3A3,3,0,0,0,34.15,22.21Z"/><path class="cls-49" d="M34.15,22.24a3,3,0,1,0,3,3A3,3,0,0,0,34.15,22.24Z"/><path class="cls-50" d="M34.15,22.27a3,3,0,1,0,3,2.92A3,3,0,0,0,34.15,22.27Z"/><path class="cls-51" d="M34.15,22.3a2.94,2.94,0,1,0,3,2.89A2.93,2.93,0,0,0,34.15,22.3Z"/><path class="cls-52" d="M34.15,22.33a2.91,2.91,0,1,0,3,2.86A2.9,2.9,0,0,0,34.15,22.33Z"/><path class="cls-53" d="M34.15,22.36a2.88,2.88,0,1,0,2.92,2.83A2.87,2.87,0,0,0,34.15,22.36Z"/><path class="cls-54" d="M34.15,22.39A2.85,2.85,0,1,0,37,25.19,2.85,2.85,0,0,0,34.15,22.39Z"/><path class="cls-55" d="M34.15,22.42A2.82,2.82,0,1,0,37,25.19,2.82,2.82,0,0,0,34.15,22.42Z"/><path class="cls-56" d="M34.15,22.45A2.79,2.79,0,1,0,37,25.19,2.79,2.79,0,0,0,34.15,22.45Z"/><path class="cls-57" d="M34.16,22.48A2.76,2.76,0,1,0,37,25.19,2.75,2.75,0,0,0,34.16,22.48Z"/><path class="cls-58" d="M34.16,22.51a2.73,2.73,0,1,0,2.76,2.68A2.73,2.73,0,0,0,34.16,22.51Z"/><path class="cls-59" d="M34.16,22.54a2.7,2.7,0,1,0,2.73,2.65A2.7,2.7,0,0,0,34.16,22.54Z"/><path class="cls-60" d="M34.16,22.57a2.67,2.67,0,1,0,2.7,2.62A2.67,2.67,0,0,0,34.16,22.57Z"/><path class="cls-61" d="M34.16,22.6a2.64,2.64,0,1,0,2.67,2.6A2.64,2.64,0,0,0,34.16,22.6Z"/><path class="cls-62" d="M34.16,22.63A2.61,2.61,0,1,0,36.8,25.2,2.61,2.61,0,0,0,34.16,22.63Z"/><path class="cls-63" d="M34.16,22.66a2.58,2.58,0,1,0,2.61,2.54A2.57,2.57,0,0,0,34.16,22.66Z"/><path class="cls-64" d="M34.16,22.69a2.55,2.55,0,0,0-2.5,2.58,2.54,2.54,0,0,0,5.08-.07A2.55,2.55,0,0,0,34.16,22.69Z"/><path class="cls-65" d="M34.16,22.73a2.51,2.51,0,1,0,2.55,2.47A2.5,2.5,0,0,0,34.16,22.73Z"/><path class="cls-66" d="M34.16,22.76a2.48,2.48,0,1,0,2.51,2.44A2.47,2.47,0,0,0,34.16,22.76Z"/><path class="cls-67" d="M34.16,22.79a2.45,2.45,0,1,0,2.48,2.41A2.45,2.45,0,0,0,34.16,22.79Z"/><path class="cls-68" d="M34.16,22.82a2.42,2.42,0,1,0,2.45,2.38A2.41,2.41,0,0,0,34.16,22.82Z"/><path class="cls-69" d="M34.16,22.85a2.39,2.39,0,1,0,2.42,2.35A2.38,2.38,0,0,0,34.16,22.85Z"/><path class="cls-70" d="M34.16,22.88a2.36,2.36,0,1,0,2.39,2.32A2.36,2.36,0,0,0,34.16,22.88Z"/><path class="cls-71" d="M34.16,22.91a2.33,2.33,0,1,0,2.36,2.29A2.32,2.32,0,0,0,34.16,22.91Z"/><path class="cls-72" d="M34.16,22.94a2.3,2.3,0,1,0,2.33,2.26A2.29,2.29,0,0,0,34.16,22.94Z"/><path class="cls-73" d="M34.16,23a2.27,2.27,0,1,0,2.3,2.23A2.27,2.27,0,0,0,34.16,23Z"/><path class="cls-74" d="M34.16,23a2.24,2.24,0,1,0,2.27,2.2A2.23,2.23,0,0,0,34.16,23Z"/><path class="cls-75" d="M34.16,23A2.21,2.21,0,1,0,36.4,25.2,2.21,2.21,0,0,0,34.16,23Z"/><path class="cls-76" d="M34.16,23.06a2.18,2.18,0,1,0,2.21,2.14A2.18,2.18,0,0,0,34.16,23.06Z"/><path class="cls-77" d="M34.16,23.09a2.15,2.15,0,1,0,2.18,2.11A2.15,2.15,0,0,0,34.16,23.09Z"/></g><g class="cls-78"><path class="cls-6" d="M23.14,21.11a4.29,4.29,0,1,0,4.35,4.22A4.29,4.29,0,0,0,23.14,21.11Z"/><path class="cls-8" d="M23.14,21.14a4.26,4.26,0,1,0,4.32,4.19A4.26,4.26,0,0,0,23.14,21.14Z"/><path class="cls-9" d="M23.14,21.18a4.22,4.22,0,1,0,4.29,4.16A4.21,4.21,0,0,0,23.14,21.18Z"/><path class="cls-10" d="M23.14,21.21a4.19,4.19,0,1,0,4.25,4.13A4.19,4.19,0,0,0,23.14,21.21Z"/><path class="cls-11" d="M23.14,21.24a4.16,4.16,0,1,0,4.22,4.1A4.16,4.16,0,0,0,23.14,21.24Z"/><path class="cls-12" d="M23.14,21.27a4.13,4.13,0,1,0,4.19,4.07A4.13,4.13,0,0,0,23.14,21.27Z"/><path class="cls-13" d="M23.14,21.3a4.1,4.1,0,1,0,4.16,4A4.1,4.1,0,0,0,23.14,21.3Z"/><path class="cls-14" d="M23.14,21.33a4.07,4.07,0,1,0,4.13,4A4.07,4.07,0,0,0,23.14,21.33Z"/><path class="cls-15" d="M23.14,21.36a4,4,0,1,0,4.1,4A4,4,0,0,0,23.14,21.36Z"/><path class="cls-16" d="M23.14,21.39a4,4,0,1,0,4.07,3.95A4,4,0,0,0,23.14,21.39Z"/><path class="cls-17" d="M23.14,21.42a4,4,0,1,0,4,3.92A4,4,0,0,0,23.14,21.42Z"/><path class="cls-18" d="M23.14,21.45a4,4,0,1,0,4,3.89A3.94,3.94,0,0,0,23.14,21.45Z"/><path class="cls-19" d="M23.14,21.48a3.92,3.92,0,1,0,4,3.86A3.91,3.91,0,0,0,23.14,21.48Z"/><path class="cls-20" d="M23.14,21.51a3.89,3.89,0,1,0,3.95,3.83A3.88,3.88,0,0,0,23.14,21.51Z"/><path class="cls-21" d="M23.15,21.54a3.86,3.86,0,1,0,3.91,3.8A3.86,3.86,0,0,0,23.15,21.54Z"/><path class="cls-22" d="M23.15,21.57A3.83,3.83,0,1,0,27,25.34,3.82,3.82,0,0,0,23.15,21.57Z"/><path class="cls-23" d="M23.15,21.6A3.8,3.8,0,1,0,27,25.34,3.8,3.8,0,0,0,23.15,21.6Z"/><path class="cls-24" d="M23.15,21.63A3.77,3.77,0,1,0,27,25.34,3.78,3.78,0,0,0,23.15,21.63Z"/><path class="cls-25" d="M23.15,21.66a3.74,3.74,0,1,0,3.79,3.68A3.75,3.75,0,0,0,23.15,21.66Z"/><path class="cls-26" d="M23.15,21.7a3.7,3.7,0,1,0,3.76,3.64A3.7,3.7,0,0,0,23.15,21.7Z"/><path class="cls-27" d="M23.15,21.73a3.67,3.67,0,1,0,3.72,3.61A3.67,3.67,0,0,0,23.15,21.73Z"/><path class="cls-28" d="M23.15,21.76a3.64,3.64,0,1,0,3.69,3.58A3.64,3.64,0,0,0,23.15,21.76Z"/><path class="cls-29" d="M23.15,21.79a3.61,3.61,0,1,0,3.66,3.55A3.61,3.61,0,0,0,23.15,21.79Z"/><path class="cls-30" d="M23.15,21.82a3.58,3.58,0,1,0,3.63,3.52A3.58,3.58,0,0,0,23.15,21.82Z"/><path class="cls-31" d="M23.15,21.85a3.55,3.55,0,1,0,3.6,3.5A3.55,3.55,0,0,0,23.15,21.85Z"/><path class="cls-32" d="M23.15,21.88a3.52,3.52,0,1,0,3.57,3.47A3.53,3.53,0,0,0,23.15,21.88Z"/><path class="cls-33" d="M23.15,21.91a3.49,3.49,0,1,0,3.54,3.44A3.49,3.49,0,0,0,23.15,21.91Z"/><path class="cls-34" d="M23.15,21.94a3.46,3.46,0,1,0,3.51,3.41A3.47,3.47,0,0,0,23.15,21.94Z"/><path class="cls-35" d="M23.15,22a3.43,3.43,0,1,0,3.48,3.38A3.43,3.43,0,0,0,23.15,22Z"/><path class="cls-36" d="M23.15,22a3.4,3.4,0,1,0,3.45,3.35A3.4,3.4,0,0,0,23.15,22Z"/><path class="cls-37" d="M23.15,22a3.37,3.37,0,1,0,3.42,3.32A3.36,3.36,0,0,0,23.15,22Z"/><path class="cls-38" d="M23.15,22.06a3.34,3.34,0,1,0,3.39,3.29A3.34,3.34,0,0,0,23.15,22.06Z"/><path class="cls-39" d="M23.15,22.09a3.31,3.31,0,1,0,3.36,3.26A3.31,3.31,0,0,0,23.15,22.09Z"/><path class="cls-40" d="M23.15,22.12a3.28,3.28,0,1,0,3.33,3.23A3.28,3.28,0,0,0,23.15,22.12Z"/><path class="cls-41" d="M23.15,22.15a3.25,3.25,0,1,0,3.3,3.2A3.24,3.24,0,0,0,23.15,22.15Z"/><path class="cls-42" d="M23.15,22.19a3.21,3.21,0,1,0,3.27,3.16A3.2,3.2,0,0,0,23.15,22.19Z"/><path class="cls-43" d="M23.16,22.22a3.18,3.18,0,1,0,3.22,3.13A3.18,3.18,0,0,0,23.16,22.22Z"/><path class="cls-44" d="M23.16,22.25a3.15,3.15,0,1,0,3.19,3.1A3.14,3.14,0,0,0,23.16,22.25Z"/><path class="cls-45" d="M23.16,22.28a3.12,3.12,0,1,0,3.16,3.07A3.12,3.12,0,0,0,23.16,22.28Z"/><path class="cls-46" d="M23.16,22.31a3.09,3.09,0,1,0,3.13,3A3.09,3.09,0,0,0,23.16,22.31Z"/><path class="cls-47" d="M23.16,22.34a3.06,3.06,0,1,0,3.1,3A3.06,3.06,0,0,0,23.16,22.34Z"/><path class="cls-48" d="M23.16,22.37a3,3,0,1,0,3.07,3A3,3,0,0,0,23.16,22.37Z"/><path class="cls-49" d="M23.16,22.4a3,3,0,1,0,3,3A3,3,0,0,0,23.16,22.4Z"/><path class="cls-50" d="M23.16,22.43a3,3,0,1,0,3,2.92A3,3,0,0,0,23.16,22.43Z"/><path class="cls-51" d="M23.16,22.46a2.94,2.94,0,1,0,3,2.89A2.95,2.95,0,0,0,23.16,22.46Z"/><circle class="cls-52" cx="23.2" cy="25.4" r="2.91" transform="translate(-10.26 33.39) rotate(-61.02)"/><circle class="cls-53" cx="23.2" cy="25.4" r="2.88" transform="translate(-10.19 33.67) rotate(-61.5)"/><circle class="cls-54" cx="23.2" cy="25.4" r="2.85" transform="translate(-10.12 33.96) rotate(-62)"/><circle class="cls-55" cx="23.2" cy="25.4" r="2.82" transform="translate(-10.03 34.27) rotate(-62.54)"/><circle class="cls-56" cx="23.2" cy="25.4" r="2.78" transform="translate(-9.94 34.6) rotate(-63.11)"/><circle class="cls-57" cx="23.2" cy="25.4" r="2.75" transform="translate(-9.85 34.95) rotate(-63.71)"/><circle class="cls-58" cx="23.2" cy="25.4" r="2.72" transform="translate(-9.74 35.32) rotate(-64.34)"/><circle class="cls-59" cx="23.2" cy="25.4" r="2.69" transform="translate(-9.62 35.7) rotate(-65.02)"/><path class="cls-60" d="M23.16,22.74a2.66,2.66,0,1,0,2.7,2.62A2.66,2.66,0,0,0,23.16,22.74Z"/><path class="cls-61" d="M23.16,22.77a2.63,2.63,0,1,0,2.67,2.59A2.63,2.63,0,0,0,23.16,22.77Z"/><path class="cls-62" d="M23.16,22.8a2.6,2.6,0,1,0,2.64,2.56A2.6,2.6,0,0,0,23.16,22.8Z"/><path class="cls-63" d="M23.16,22.83a2.57,2.57,0,1,0,2.61,2.53A2.57,2.57,0,0,0,23.16,22.83Z"/><path class="cls-64" d="M23.16,22.86a2.54,2.54,0,1,0,2.58,2.5A2.54,2.54,0,0,0,23.16,22.86Z"/><path class="cls-65" d="M23.17,22.89a2.51,2.51,0,1,0,2.54,2.47A2.51,2.51,0,0,0,23.17,22.89Z"/><path class="cls-66" d="M23.17,22.92a2.48,2.48,0,1,0,2.51,2.44A2.49,2.49,0,0,0,23.17,22.92Z"/><path class="cls-67" d="M23.17,23a2.45,2.45,0,1,0,2.48,2.41A2.45,2.45,0,0,0,23.17,23Z"/><path class="cls-68" d="M23.17,23a2.42,2.42,0,1,0,2.45,2.38A2.41,2.41,0,0,0,23.17,23Z"/><path class="cls-69" d="M23.17,23a2.39,2.39,0,1,0,2.42,2.35A2.39,2.39,0,0,0,23.17,23Z"/><path class="cls-70" d="M23.17,23a2.36,2.36,0,1,0,2.39,2.32A2.36,2.36,0,0,0,23.17,23Z"/><path class="cls-71" d="M23.17,23.07a2.33,2.33,0,1,0,2.36,2.29A2.32,2.32,0,0,0,23.17,23.07Z"/><path class="cls-72" d="M23.17,23.1a2.3,2.3,0,1,0,2.33,2.26A2.29,2.29,0,0,0,23.17,23.1Z"/><path class="cls-73" d="M23.17,23.13a2.27,2.27,0,1,0,2.3,2.23A2.27,2.27,0,0,0,23.17,23.13Z"/><path class="cls-74" d="M23.17,23.16a2.24,2.24,0,1,0,2.27,2.2A2.24,2.24,0,0,0,23.17,23.16Z"/><path class="cls-75" d="M23.17,23.19a2.21,2.21,0,1,0,2.24,2.18A2.2,2.2,0,0,0,23.17,23.19Z"/><path class="cls-76" d="M23.17,23.23a2.17,2.17,0,1,0,2.21,2.14A2.16,2.16,0,0,0,23.17,23.23Z"/><path class="cls-77" d="M23.17,23.26a2.14,2.14,0,1,0,2.17,2.11A2.14,2.14,0,0,0,23.17,23.26Z"/></g><path class="cls-79" d="M24.42,27.28s1.19,4.67,4.86,4.55,4.4-4.57,4.4-4.57S29.9,31.63,24.42,27.28Z"/><path class="cls-80" d="M25.77,28a3.67,3.67,0,0,0,3.46,2.39c2.72.06,3.11-2.11,3-2.27C31.24,28.92,28.87,30.15,25.77,28Z"/><path class="cls-81" d="M25.77,28a3.73,3.73,0,0,0,1.66,1.93,11.68,11.68,0,0,1,1.3-.48,6.68,6.68,0,0,1,3.19-.29,1.7,1.7,0,0,0,.34-1C31.24,28.92,28.87,30.15,25.77,28Z"/><path class="cls-4" d="M36,17s-3.35-.72-5.07.94a34.06,34.06,0,0,1,1.12,5.52s.35-2.91,1.81-3.22,2.8,1.36,3,.91a1.74,1.74,0,0,0,.15-.8Z"/><path class="cls-80" d="M32.06,23.49a3.76,3.76,0,0,0,2.9-.17,2.37,2.37,0,0,0,1.24-2C33.19,17.76,32.06,23.49,32.06,23.49Z"/><path class="cls-82" d="M33.61,20.42a2.87,2.87,0,0,0-.85,1.07,2.67,2.67,0,0,0,.13,1.09,2.55,2.55,0,0,0,.69,1.12A3.55,3.55,0,0,0,35,23.32l.12-.07a2.52,2.52,0,0,0-.07-1.4C34.74,21,34.14,20.41,33.61,20.42Z"/><path class="cls-83" d="M33.79,21.94c-.18.78,1.55,1.07,1.55,1.07v-.65S34,21.15,33.79,21.94Z"/><path class="cls-80" d="M20.89,21.56c.17,2,2.71,3.1,4.95,1.5l-.11-.4C23.79,18.84,20.79,20.34,20.89,21.56Z"/><path class="cls-84" d="M22.94,20.57c-.6.21-.83,1.18-.51,2.17a2.58,2.58,0,0,0,.58,1,3.25,3.25,0,0,0,1.57-.08,2.42,2.42,0,0,0,0-1.69C24.28,21,23.54,20.37,22.94,20.57Z"/><path class="cls-4" d="M20.89,21.56h-.1A.19.19,0,0,0,20.89,21.56Z"/><path class="cls-4" d="M23.9,16.87a13.53,13.53,0,0,0-3.15-.17L20,21.43l.78.12c-.08-.06,0-.25,1.3-1,1.89-1.11,3.69,2.33,3.69,2.33a18.53,18.53,0,0,1,.79-5.33S25.07,17.17,23.9,16.87Z"/><path class="cls-85" d="M30.68,17.05,31,18.14a4.28,4.28,0,0,1,4.84.14L36,18S33.19,15.28,30.68,17.05Z"/><path class="cls-85" d="M21.12,17.42l.13.29a4.92,4.92,0,0,1,5.05.84l.27-1C24.49,15.28,21.12,17.42,21.12,17.42Z"/><path class="cls-6" d="M15.05,21.87c-1.47.65,2.57,7.89,3.77,5.29l-1-4.41C17.53,22.73,16.52,21.22,15.05,21.87Z"/><path class="cls-86" d="M40.45,22a2.48,2.48,0,0,0-.93-.31,13.76,13.76,0,0,0-2.91-8.85,12.15,12.15,0,0,0-8.7-4.37,10.37,10.37,0,0,0-9,3.8c-1.8,2.36-2.07,5.47-1.76,8.32.07.62.17,1.24.28,1.87a2.15,2.15,0,0,0-2.36-.6c-.8.35,0,2.66,1.16,4.27C20,21.43,26.05,18.31,28.43,14a8.1,8.1,0,0,0,1.85,2.37c4,3.13,8.84,4.78,10.12,9.55C41.15,24.36,40.86,22.26,40.45,22Z"/><path class="cls-6" d="M29.4,20.82l-1.32,0a17.15,17.15,0,0,0-.87,4.67c.15,1.48,3.77,2.14,4.16,0,.11-.64-.81-1.44-1.16-1.87A4.75,4.75,0,0,1,29.4,20.82Z"/><path class="cls-87" d="M29.43,21.46l-.5,0a7.29,7.29,0,0,0,.16,3.82l.44,0a5.21,5.21,0,0,0,1.71-.4,7.54,7.54,0,0,0-1-1.28A4.14,4.14,0,0,1,29.43,21.46Z"/><path class="cls-4" d="M27.2,25.35c0,.11,0,.22,0,.32.15,1.48,3.78,2,4.16-.12h0A4,4,0,0,1,27.2,25.35Z"/><path class="cls-85" d="M22.94,20c-2-.25-2.18,1.41-2.51,1.44a.62.62,0,0,1-.5-.13,1.06,1.06,0,0,0,.92.6c.66,0,1-1,2.29-.86,1.52.19,2.7,2,2.7,2S25.45,20.29,22.94,20Z"/><path class="cls-88" d="M26.07,3.92S20.13,1.83,12.66,18.3c-6.14,13.57.21,24.18,3.59,30.39-2.82-6-4.38-12.51-2.09-19.09,2.24-7.09,7.79-9.75,12-15.3.76-1.19,1.69-2.19,1.77-3.76C29.17,14.05,33.27,17.06,36,19c9.74,6.29,9.27,15,5.74,24.4,7.41-10.09,8.42-18.65,1-29.55C39.14,8.49,28.25.55,26.07,3.92Z"/><path class="cls-89" d="M15.73,47.74l.52.95c-.15-.31-.29-.62-.43-.93Z"/><path class="cls-90" d="M13.06,17.45a20.54,20.54,0,0,0,5,3.34c.45.23.9.44,1.36.64,1.67-1.72,3.49-3.31,5.2-5.2a16.54,16.54,0,0,1-9.13-3.36C14.67,14.19,13.87,15.71,13.06,17.45Z"/><path class="cls-90" d="M40.6,11.21a20,20,0,0,1-8.91,4.4A40.93,40.93,0,0,0,36,19a23,23,0,0,1,2.75,2.08c.67-.32,1.33-.68,2-1.08a14.94,14.94,0,0,0,3.81-3.24c-.54-.95-1.14-1.92-1.81-2.91A20.81,20.81,0,0,0,40.6,11.21Z"/><path class="cls-91" d="M29.91,5.32a83.73,83.73,0,0,1,11.36,6.59c-4.51-5.1-13.27-11-15.2-8,0,0-5.38-1.89-12.33,12.12a33.24,33.24,0,0,1,3.88-3.94,48.65,48.65,0,0,0,6.27-6.57,25.19,25.19,0,0,1-6,7.87c-2,1.71-5,6-6.9,9.55a26.42,26.42,0,0,0-.68,10.21c.06-3.14.39-6.33,1.94-9.08a23,23,0,0,1,4.6-5.57c1.76-1.63,3.7-3.05,5.33-4.81A24.77,24.77,0,0,0,25.8,8.81,21,21,0,0,0,27,6.11c2.5,2.22,2.53,2,3.72,3.15,1.85,1.74,4,3.1,5.92,4.74a41.53,41.53,0,0,1,5,5.05A27.78,27.78,0,0,1,44.8,23.7a25.52,25.52,0,0,1,1.71,4c.22.68.4,1.37.56,2.07a6.31,6.31,0,0,1,.37,2.12c1.05-4.88.2-9.76-2.84-15.17C40,11.58,29.91,5.32,29.91,5.32Z"/><path class="cls-85" d="M36.32,20.69c-.44-.05-.7-1.15-2.43-.9-2,.29-1.83,3.7-1.83,3.7s.55-2.25,2.08-2.7c.88-.26,1.55.82,2.35.79s.53-1.2.53-1.2A.81.81,0,0,1,36.32,20.69Z"/><path class="cls-83" d="M23.31,22.14c-.18.79,1.55,1.08,1.55,1.08v-.66S23.49,21.36,23.31,22.14Z"/><path class="cls-92" d="M24.42,27.28a8.36,8.36,0,0,0,5.07,1.92,5.27,5.27,0,0,0,4.19-1.94,12.57,12.57,0,0,1-4.34,1A16.62,16.62,0,0,1,24.42,27.28Z"/><path class="cls-93" d="M29.28,31.83c-2.74,0-4.86-4.55-4.86-4.55s.94,5.57,4.87,5.57c3.72,0,4.39-5.45,4.39-5.45S32,31.84,29.28,31.83Z"/><path class="cls-4" d="M28.75,35.22c-5.47.26-9.61-9.08-9.61-9.08a2.49,2.49,0,0,1-1.18.75,2,2,0,0,1-1.75-.75h0c.9,1.29,2,2.13,2.56,1.12.34.88,4.11,8.12,8.42,8.61,3.92.46,6.59-1.32,8.64-4.12,1.83-2.49,2.71-3.77,3.24-6.13C38.06,28.07,34.56,34.93,28.75,35.22Z"/><path class="cls-4" d="M16.82,40.18c-1.38,2.1-2.08,7.36-2.82,12.61a28.22,28.22,0,0,0,5.42,2.46c1.17-6.11,2-12.15,2-12.58C21.45,42.67,17.57,39.05,16.82,40.18Z"/></svg>