<svg id="Layer_1" data-name="Layer 1" xmlns="http://www.w3.org/2000/svg" xmlns:xlink="http://www.w3.org/1999/xlink" viewBox="0 0 56.69 56.69"><defs><style>.cls-1{fill:#afc6d2;}.cls-2{fill:#63b9a4;}.cls-3{fill:#6dc6af;}.cls-4{fill:#330d00;}.cls-5{fill:#df8e79;}.cls-6{fill:#d58a77;}.cls-7{fill:#e49c84;}.cls-8{opacity:0.38;}.cls-9{fill:#e49b83;}.cls-10{fill:#e39a82;}.cls-11{fill:#e39982;}.cls-12{fill:#e39881;}.cls-13{fill:#e39780;}.cls-14{fill:#e3977f;}.cls-15{fill:#e2967f;}.cls-16{fill:#e2957e;}.cls-17{fill:#e2947d;}.cls-18{fill:#e2937c;}.cls-19{fill:#e2927c;}.cls-20{fill:#e1927b;}.cls-21{fill:#e1917a;}.cls-22{fill:#e19079;}.cls-23{fill:#e18f79;}.cls-24{fill:#e18e78;}.cls-25{fill:#e08d77;}.cls-26{fill:#e08c76;}.cls-27{fill:#e08b75;}.cls-28{fill:#e08a75;}.cls-29{fill:#e08974;}.cls-30{fill:#df8873;}.cls-31{fill:#df8872;}.cls-32{fill:#df8772;}.cls-33{fill:#df8671;}.cls-34{fill:#df8570;}.cls-35{fill:#df8470;}.cls-36{fill:#de836f;}.cls-37{fill:#de836e;}.cls-38{fill:#de826e;}.cls-39{fill:#de816d;}.cls-40{fill:#de806c;}.cls-41{fill:#dd7f6c;}.cls-42{fill:#dd7e6b;}.cls-43{fill:#dd7e6a;}.cls-44{fill:#dd7d6a;}.cls-45{fill:#dd7c69;}.cls-46{fill:#dc7b68;}.cls-47{fill:#dc7a68;}.cls-48{fill:#dc7967;}.cls-49{fill:#dc7966;}.cls-50{fill:#dc7866;}.cls-51{fill:#dc7765;}.cls-52{fill:#db7665;}.cls-53{fill:#db7564;}.cls-54{fill:#db7563;}.cls-55{fill:#db7463;}.cls-56{fill:#db7362;}.cls-57{fill:#db7261;}.cls-58{fill:#da7161;}.cls-59{fill:#da7060;}.cls-60{fill:#da6f60;}.cls-61{fill:#da6f5f;}.cls-62{fill:#da6e5e;}.cls-63{fill:#da6d5e;}.cls-64{fill:#d96c5d;}.cls-65{fill:#d96b5d;}.cls-66{fill:#d96a5c;}.cls-67{fill:#d9695b;}.cls-68{fill:#d9685b;}.cls-69{fill:#d9675a;}.cls-70{fill:#d86759;}.cls-71{fill:#d86659;}.cls-72{fill:#d86558;}.cls-73{fill:#d86458;}.cls-74{fill:#d86357;}.cls-75{fill:#d86256;}.cls-76{fill:#d76156;}.cls-77{fill:#d76055;}.cls-78{fill:#d75f55;}.cls-79{fill:#d75e54;}.cls-80{fill:#d75d53;}.cls-81{fill:#d75c53;}.cls-82{fill:#d75b52;}.cls-83{fill:#d65a52;}.cls-84{fill:#e39880;}.cls-85{fill:#e2937d;}.cls-86{fill:#e1907a;}.cls-87{fill:#e18e77;}.cls-88{fill:#df8973;}.cls-89{fill:#df8571;}.cls-90{fill:#de846f;}.cls-91{fill:#de806d;}.cls-92{fill:#dd7f6b;}.cls-93{fill:#dc7a67;}.cls-94{fill:#dc7766;}.cls-95{fill:#db7664;}.cls-96{fill:#da6e5f;}.cls-97{fill:#d96b5c;}.cls-101,.cls-103,.cls-107,.cls-98{fill:#fff;}.cls-99{fill:url(#_ÂÁ_Ï_ÌÌ_È_ËÂÌÚ_20);}.cls-100{opacity:0.36;}.cls-101{opacity:0.6;}.cls-102{fill:url(#_ÂÁ_Ï_ÌÌ_È_ËÂÌÚ_20-2);}.cls-103{opacity:0.2;}.cls-104{fill:#663330;}.cls-105{fill:#e5e6e7;}.cls-106{fill:#bab5a3;opacity:0.35;}.cls-107{opacity:0.15;}</style><linearGradient id="_ÂÁ_Ï_ÌÌ_È_ËÂÌÚ_20" x1="33.6" y1="27.06" x2="34.71" y2="24.1" gradientUnits="userSpaceOnUse"><stop offset="0.02" stop-color="#51391b"/><stop offset="1"/></linearGradient><linearGradient id="_ÂÁ_Ï_ÌÌ_È_ËÂÌÚ_20-2" x1="23.58" y1="28.88" x2="24.59" y2="25.81" xlink:href="#_ÂÁ_Ï_ÌÌ_È_ËÂÌÚ_20"/></defs><circle class="cls-1" cx="28.35" cy="28.35" r="28.35"/><path class="cls-2" d="M10.11,50a28.32,28.32,0,0,0,37.56-1c-2.74-4.18-7.75-8.42-16.84-8.42C17.45,40.65,12.1,46.55,10.11,50Z"/><path class="cls-3" d="M37.11,42.64a4.36,4.36,0,0,0-.32-1.29,24.49,24.49,0,0,0-6-.7,34,34,0,0,0-9.4,1.2,4,4,0,0,0,0,.85c.3,3.22,4.06,5.82,8.4,5.81S37.42,45.86,37.11,42.64Z"/><path class="cls-4" d="M16.54,14.77c-.45,4.26,2.09,14,2.09,14l20-4.08s-1.52-10.27-4.38-13.32S17,10.51,16.54,14.77Z"/><path class="cls-5" d="M29.37,46.29h0c-2.57,0-5-1.81-5-4.38l.37-4.55a4.68,4.68,0,0,1,4.66-4.66h0a4.68,4.68,0,0,1,4.67,4.66V41.9A4.52,4.52,0,0,1,29.37,46.29Z"/><path class="cls-6" d="M40.17,24.21c-1.21-.23-2.42,1-2.7,2.79s.46,3.39,1.66,3.61,2.41-1,2.7-2.79S41.37,24.43,40.17,24.21Z"/><path class="cls-7" d="M19.37,16.9c-1.26,5.7-.8,14.38.77,17.48s9,5.66,9,5.66a7.31,7.31,0,0,0,5.82-1.53c2.44-2.2,4.66-8.2,4.66-8.2-.34-6-3.22-12.26-5.07-15.44C28,12.27,24,14.49,19.37,16.9Z"/><g class="cls-8"><path class="cls-7" d="M34.62,24.48a4.24,4.24,0,0,0-3.36,5,4.25,4.25,0,0,0,4.66,3.78,4.25,4.25,0,0,0,3.36-5A4.24,4.24,0,0,0,34.62,24.48Z"/><path class="cls-9" d="M34.63,24.5a4.23,4.23,0,0,0-3.35,4.94,4.22,4.22,0,0,0,4.63,3.75,4.23,4.23,0,0,0,3.35-4.93A4.23,4.23,0,0,0,34.63,24.5Z"/><path class="cls-10" d="M34.63,24.53a4.2,4.2,0,0,0-3.32,4.9,4.19,4.19,0,0,0,4.6,3.73,4.19,4.19,0,0,0,3.32-4.9A4.2,4.2,0,0,0,34.63,24.53Z"/><path class="cls-11" d="M34.63,24.56a4.16,4.16,0,0,0-3.29,4.87,4.16,4.16,0,0,0,4.57,3.7,4.16,4.16,0,0,0,3.29-4.87A4.17,4.17,0,0,0,34.63,24.56Z"/><path class="cls-12" d="M34.64,24.59a4.14,4.14,0,0,0-3.28,4.84,4,4,0,1,0,7.82-1.16A4.14,4.14,0,0,0,34.64,24.59Z"/><path class="cls-13" d="M34.64,24.62a4.11,4.11,0,0,0-3.25,4.8,3.94,3.94,0,1,0,7.76-1.15A4.11,4.11,0,0,0,34.64,24.62Z"/><path class="cls-14" d="M34.65,24.65a4.07,4.07,0,0,0-3.23,4.77,4.08,4.08,0,0,0,4.47,3.63,4.08,4.08,0,0,0,3.23-4.77A4.07,4.07,0,0,0,34.65,24.65Z"/><path class="cls-15" d="M34.65,24.68a4.05,4.05,0,0,0-3.21,4.73A4.06,4.06,0,0,0,35.89,33a4.07,4.07,0,0,0,3.21-4.74A4,4,0,0,0,34.65,24.68Z"/><path class="cls-16" d="M34.66,24.71a4,4,0,0,0-3.19,4.7A4,4,0,0,0,35.88,33a4,4,0,0,0,3.19-4.71A4,4,0,0,0,34.66,24.71Z"/><path class="cls-17" d="M34.66,24.73a4,4,0,0,0-3.17,4.68A4,4,0,0,0,35.88,33a4,4,0,0,0,3.17-4.67A4,4,0,0,0,34.66,24.73Z"/><path class="cls-18" d="M34.66,24.76a4,4,0,0,0-3.14,4.64A3.8,3.8,0,1,0,39,28.29,4,4,0,0,0,34.66,24.76Z"/><path class="cls-19" d="M34.67,24.79a4,4,0,0,0-3.12,4.61A3.78,3.78,0,1,0,39,28.29,4,4,0,0,0,34.67,24.79Z"/><path class="cls-20" d="M34.67,24.82a3.91,3.91,0,0,0-3.1,4.57A3.75,3.75,0,1,0,39,28.3,3.93,3.93,0,0,0,34.67,24.82Z"/><path class="cls-21" d="M34.68,24.85a3.88,3.88,0,0,0-3.08,4.54,3.72,3.72,0,1,0,7.34-1.09A3.89,3.89,0,0,0,34.68,24.85Z"/><path class="cls-22" d="M34.68,24.88a3.86,3.86,0,0,0-3.05,4.51,3.69,3.69,0,1,0,7.28-1.08A3.85,3.85,0,0,0,34.68,24.88Z"/><path class="cls-23" d="M34.69,24.91a3.83,3.83,0,0,0-3,4.47,3.84,3.84,0,0,0,4.2,3.41,3.84,3.84,0,0,0,3-4.48A3.83,3.83,0,0,0,34.69,24.91Z"/><path class="cls-24" d="M34.69,24.94a3.8,3.8,0,0,0-3,4.44,3.81,3.81,0,0,0,4.17,3.38,3.81,3.81,0,0,0,3-4.45A3.79,3.79,0,0,0,34.69,24.94Z"/><path class="cls-25" d="M34.69,25a3.78,3.78,0,0,0-3,4.41,3.61,3.61,0,1,0,7.12-1.05A3.77,3.77,0,0,0,34.69,25Z"/><path class="cls-25" d="M34.7,25a3.76,3.76,0,0,0-3,4.38,3.59,3.59,0,1,0,7.08-1.05A3.75,3.75,0,0,0,34.7,25Z"/><path class="cls-26" d="M34.7,25a3.72,3.72,0,0,0-2.94,4.35,3.56,3.56,0,1,0,7-1A3.71,3.71,0,0,0,34.7,25Z"/><path class="cls-27" d="M34.71,25.05a3.68,3.68,0,0,0-2.92,4.31,3.54,3.54,0,1,0,7-1A3.7,3.7,0,0,0,34.71,25.05Z"/><path class="cls-28" d="M34.71,25.08a3.66,3.66,0,0,0-2.9,4.28,3.51,3.51,0,1,0,6.92-1A3.67,3.67,0,0,0,34.71,25.08Z"/><path class="cls-29" d="M34.72,25.11a3.63,3.63,0,0,0-2.88,4.25,3.48,3.48,0,1,0,6.86-1A3.63,3.63,0,0,0,34.72,25.11Z"/><path class="cls-30" d="M34.72,25.14a3.76,3.76,0,0,0,1.1,7.42,3.76,3.76,0,0,0-1.1-7.42Z"/><path class="cls-31" d="M34.72,25.17a3.73,3.73,0,0,0,1.1,7.36,3.58,3.58,0,0,0,2.83-4.18A3.57,3.57,0,0,0,34.72,25.17Z"/><path class="cls-32" d="M34.73,25.19a3.71,3.71,0,0,0,1.08,7.31,3.71,3.71,0,0,0-1.08-7.31Z"/><path class="cls-33" d="M34.73,25.22a3.68,3.68,0,0,0,1.08,7.25,3.68,3.68,0,0,0-1.08-7.25Z"/><path class="cls-34" d="M34.74,25.25a3.65,3.65,0,0,0,1.06,7.19,3.65,3.65,0,0,0-1.06-7.19Z"/><path class="cls-35" d="M34.74,25.28a3.46,3.46,0,0,0-2.74,4,3.32,3.32,0,1,0,2.74-4Z"/><path class="cls-36" d="M34.75,25.31a3.59,3.59,0,0,0,1,7.07,3.59,3.59,0,0,0-1-7.07Z"/><path class="cls-37" d="M34.75,25.34a3.56,3.56,0,0,0,1,7,3.56,3.56,0,0,0-1-7Z"/><path class="cls-38" d="M34.75,25.37a3.53,3.53,0,0,0,1,7,3.53,3.53,0,0,0-1-7Z"/><path class="cls-39" d="M34.76,25.4a3.5,3.5,0,0,0,1,6.9,3.5,3.5,0,0,0-1-6.9Z"/><path class="cls-40" d="M34.76,25.42a3.48,3.48,0,0,0,1,6.85,3.48,3.48,0,0,0-1-6.85Z"/><path class="cls-41" d="M34.77,25.45a3.44,3.44,0,1,0,3.62,2.93A3.31,3.31,0,0,0,34.77,25.45Z"/><path class="cls-42" d="M34.77,25.48a3.41,3.41,0,0,0,1,6.73,3.41,3.41,0,0,0-1-6.73Z"/><path class="cls-43" d="M34.78,25.51a3.38,3.38,0,0,0,1,6.67,3.38,3.38,0,0,0-1-6.67Z"/><path class="cls-44" d="M34.78,25.54a3.35,3.35,0,0,0,1,6.61,3.35,3.35,0,0,0-1-6.61Z"/><path class="cls-45" d="M34.78,25.57a3.32,3.32,0,0,0,1,6.55,3.32,3.32,0,0,0-1-6.55Z"/><path class="cls-46" d="M34.79,25.6a3.3,3.3,0,0,0,1,6.5,3.3,3.3,0,0,0-1-6.5Z"/><path class="cls-47" d="M34.79,25.63a3.27,3.27,0,0,0,1,6.44,3.27,3.27,0,0,0-1-6.44Z"/><path class="cls-48" d="M34.8,25.65A3.24,3.24,0,0,0,35.74,32a3.24,3.24,0,0,0-.94-6.39Z"/><path class="cls-49" d="M34.8,25.68A3.21,3.21,0,0,0,35.74,32a3.21,3.21,0,0,0-.94-6.33Z"/><path class="cls-50" d="M34.81,25.71a3.18,3.18,0,1,0,3.34,2.71A3.06,3.06,0,0,0,34.81,25.71Z"/><path class="cls-51" d="M34.81,25.74A3.15,3.15,0,0,0,35.73,32a3.15,3.15,0,0,0-.92-6.21Z"/><path class="cls-52" d="M34.81,25.77a3.12,3.12,0,1,0,3.29,2.66A3,3,0,0,0,34.81,25.77Z"/><path class="cls-53" d="M34.82,25.8a3.09,3.09,0,1,0,3.25,2.63A3,3,0,0,0,34.82,25.8Z"/><path class="cls-54" d="M34.82,25.83A3.06,3.06,0,1,0,38,28.44,2.93,2.93,0,0,0,34.82,25.83Z"/><path class="cls-55" d="M34.83,25.86A3,3,0,1,0,38,28.44,2.9,2.9,0,0,0,34.83,25.86Z"/><path class="cls-56" d="M34.83,25.88A3,3,0,1,0,38,28.44,2.89,2.89,0,0,0,34.83,25.88Z"/><path class="cls-57" d="M34.84,25.91A3,3,0,1,0,38,28.45,2.86,2.86,0,0,0,34.84,25.91Z"/><path class="cls-58" d="M34.84,25.94a2.95,2.95,0,1,0,3.1,2.51A2.84,2.84,0,0,0,34.84,25.94Z"/><path class="cls-59" d="M34.84,26a2.92,2.92,0,1,0,3.07,2.49A2.8,2.8,0,0,0,34.84,26Z"/><path class="cls-60" d="M34.85,26a2.89,2.89,0,1,0,3,2.46A2.75,2.75,0,0,0,34.85,26Z"/><path class="cls-61" d="M34.85,26a2.86,2.86,0,1,0,3,2.43A2.74,2.74,0,0,0,34.85,26Z"/><path class="cls-62" d="M34.86,26.06a2.83,2.83,0,1,0,3,2.41A2.71,2.71,0,0,0,34.86,26.06Z"/><path class="cls-63" d="M34.86,26.09a2.8,2.8,0,1,0,2.94,2.38A2.67,2.67,0,0,0,34.86,26.09Z"/><path class="cls-64" d="M34.87,26.11a2.78,2.78,0,1,0,2.91,2.36A2.67,2.67,0,0,0,34.87,26.11Z"/><path class="cls-65" d="M34.87,26.14a2.74,2.74,0,1,0,2.88,2.34A2.63,2.63,0,0,0,34.87,26.14Z"/><path class="cls-66" d="M34.87,26.17a2.71,2.71,0,1,0,2.86,2.31A2.61,2.61,0,0,0,34.87,26.17Z"/><path class="cls-67" d="M34.88,26.2a2.68,2.68,0,1,0,2.82,2.29A2.58,2.58,0,0,0,34.88,26.2Z"/><path class="cls-68" d="M34.88,26.23a2.65,2.65,0,1,0,2.79,2.26A2.54,2.54,0,0,0,34.88,26.23Z"/><path class="cls-69" d="M34.89,26.26a2.62,2.62,0,1,0,2.76,2.23A2.51,2.51,0,0,0,34.89,26.26Z"/><path class="cls-70" d="M34.89,26.29a2.6,2.6,0,1,0,2.73,2.21A2.48,2.48,0,0,0,34.89,26.29Z"/><path class="cls-71" d="M34.9,26.32a2.57,2.57,0,1,0,2.69,2.18A2.45,2.45,0,0,0,34.9,26.32Z"/><path class="cls-72" d="M34.9,26.34a2.54,2.54,0,1,0,2.67,2.17A2.45,2.45,0,0,0,34.9,26.34Z"/><path class="cls-73" d="M34.9,26.37a2.51,2.51,0,1,0,2.64,2.14A2.41,2.41,0,0,0,34.9,26.37Z"/><path class="cls-74" d="M34.91,26.4a2.48,2.48,0,1,0,2.6,2.11A2.38,2.38,0,0,0,34.91,26.4Z"/><path class="cls-75" d="M34.91,26.43a2.45,2.45,0,1,0,2.58,2.09A2.35,2.35,0,0,0,34.91,26.43Z"/><path class="cls-76" d="M34.92,26.46a2.42,2.42,0,1,0,2.54,2.06A2.32,2.32,0,0,0,34.92,26.46Z"/><path class="cls-77" d="M34.92,26.49a2.39,2.39,0,1,0,2.52,2A2.28,2.28,0,0,0,34.92,26.49Z"/><path class="cls-78" d="M34.92,26.52a2.36,2.36,0,1,0,2.49,2A2.26,2.26,0,0,0,34.92,26.52Z"/><path class="cls-79" d="M34.93,26.55a2.33,2.33,0,1,0,2.45,2A2.23,2.23,0,0,0,34.93,26.55Z"/><path class="cls-80" d="M34.93,26.57a2.31,2.31,0,1,0,2.43,2A2.23,2.23,0,0,0,34.93,26.57Z"/><path class="cls-81" d="M34.94,26.6a2.28,2.28,0,1,0,2.39,1.94A2.19,2.19,0,0,0,34.94,26.6Z"/><path class="cls-82" d="M34.94,26.63a2.25,2.25,0,1,0,2.36,1.92A2.16,2.16,0,0,0,34.94,26.63Z"/><path class="cls-83" d="M35,26.66a2.22,2.22,0,1,0,2.33,1.89A2.13,2.13,0,0,0,35,26.66Z"/></g><g class="cls-8"><path class="cls-7" d="M23.76,26.09a4.42,4.42,0,1,0,5,3.72A4.41,4.41,0,0,0,23.76,26.09Z"/><path class="cls-9" d="M23.77,26.11a4.39,4.39,0,1,0,5,3.7A4.39,4.39,0,0,0,23.77,26.11Z"/><path class="cls-10" d="M23.77,26.14a4.36,4.36,0,1,0,5,3.68A4.36,4.36,0,0,0,23.77,26.14Z"/><path class="cls-11" d="M23.78,26.17a4.33,4.33,0,1,0,4.92,3.65A4.33,4.33,0,0,0,23.78,26.17Z"/><path class="cls-12" d="M23.78,26.2a4.3,4.3,0,1,0,4.89,3.63A4.32,4.32,0,0,0,23.78,26.2Z"/><path class="cls-84" d="M23.78,26.23a4.28,4.28,0,1,0,4.86,3.6A4.28,4.28,0,0,0,23.78,26.23Z"/><path class="cls-14" d="M23.79,26.26a4.25,4.25,0,1,0,4.82,3.57A4.25,4.25,0,0,0,23.79,26.26Z"/><path class="cls-15" d="M23.79,26.28a4.22,4.22,0,1,0,4.79,3.56A4.23,4.23,0,0,0,23.79,26.28Z"/><path class="cls-16" d="M23.8,26.31a4.19,4.19,0,1,0,4.76,3.53A4.19,4.19,0,0,0,23.8,26.31Z"/><path class="cls-17" d="M23.8,26.34a4.16,4.16,0,1,0,4.73,3.51A4.16,4.16,0,0,0,23.8,26.34Z"/><path class="cls-85" d="M23.81,26.37a4.13,4.13,0,1,0,4.69,3.48A4.14,4.14,0,0,0,23.81,26.37Z"/><path class="cls-19" d="M23.81,26.4a4.1,4.1,0,1,0,4.66,3.45A4.11,4.11,0,0,0,23.81,26.4Z"/><path class="cls-20" d="M23.81,26.43a4.07,4.07,0,1,0,4.63,3.43A4.07,4.07,0,0,0,23.81,26.43Z"/><path class="cls-21" d="M23.82,26.45a4,4,0,1,0,4.59,3.41A4.05,4.05,0,0,0,23.82,26.45Z"/><path class="cls-86" d="M23.82,26.48a4,4,0,1,0,4.57,3.39A4,4,0,0,0,23.82,26.48Z"/><path class="cls-23" d="M23.83,26.51a4,4,0,1,0,4.53,3.36A4,4,0,0,0,23.83,26.51Z"/><path class="cls-24" d="M23.83,26.54a4,4,0,1,0,4.5,3.34A4,4,0,0,0,23.83,26.54Z"/><path class="cls-87" d="M23.84,26.57a3.93,3.93,0,1,0,4.46,3.31A3.93,3.93,0,0,0,23.84,26.57Z"/><path class="cls-25" d="M23.84,26.6a3.9,3.9,0,1,0,4.43,3.28A3.91,3.91,0,0,0,23.84,26.6Z"/><path class="cls-26" d="M23.84,26.62a3.88,3.88,0,1,0,4.4,3.27A3.89,3.89,0,0,0,23.84,26.62Z"/><path class="cls-27" d="M23.85,26.65a3.85,3.85,0,1,0,4.37,3.24A3.85,3.85,0,0,0,23.85,26.65Z"/><path class="cls-28" d="M23.85,26.68a3.82,3.82,0,1,0,4.34,3.22A3.82,3.82,0,0,0,23.85,26.68Z"/><path class="cls-29" d="M23.86,26.71a3.79,3.79,0,1,0,4.3,3.19A3.78,3.78,0,0,0,23.86,26.71Z"/><path class="cls-88" d="M23.86,26.74a3.76,3.76,0,1,0,4.27,3.17A3.76,3.76,0,0,0,23.86,26.74Z"/><path class="cls-30" d="M23.86,26.77a3.73,3.73,0,1,0,4.24,3.14A3.73,3.73,0,0,0,23.86,26.77Z"/><path class="cls-32" d="M23.87,26.79a3.7,3.7,0,1,0,4.2,3.12A3.71,3.71,0,0,0,23.87,26.79Z"/><path class="cls-33" d="M23.87,26.82A3.67,3.67,0,1,0,28,29.92,3.68,3.68,0,0,0,23.87,26.82Z"/><path class="cls-89" d="M23.88,26.85A3.64,3.64,0,1,0,28,29.92,3.64,3.64,0,0,0,23.88,26.85Z"/><path class="cls-34" d="M23.88,26.88A3.61,3.61,0,1,0,28,29.93,3.61,3.61,0,0,0,23.88,26.88Z"/><path class="cls-90" d="M23.89,26.91a3.58,3.58,0,1,0,4.07,3A3.59,3.59,0,0,0,23.89,26.91Z"/><path class="cls-36" d="M23.89,26.94a3.56,3.56,0,1,0,4,3A3.56,3.56,0,0,0,23.89,26.94Z"/><path class="cls-38" d="M23.89,27a3.53,3.53,0,1,0,4,3A3.52,3.52,0,0,0,23.89,27Z"/><path class="cls-39" d="M23.9,27a3.5,3.5,0,1,0,4,3A3.51,3.51,0,0,0,23.9,27Z"/><path class="cls-91" d="M23.9,27a3.47,3.47,0,1,0,4,2.93A3.48,3.48,0,0,0,23.9,27Z"/><path class="cls-40" d="M23.91,27.05A3.44,3.44,0,1,0,27.82,30,3.44,3.44,0,0,0,23.91,27.05Z"/><path class="cls-92" d="M23.91,27.08A3.41,3.41,0,1,0,27.79,30,3.43,3.43,0,0,0,23.91,27.08Z"/><circle class="cls-42" cx="24.41" cy="30.46" r="3.39" transform="translate(-5.1 4.91) rotate(-10.4)"/><circle class="cls-44" cx="24.41" cy="30.46" r="3.36" transform="translate(-5.6 5.5) rotate(-11.54)"/><circle class="cls-45" cx="24.41" cy="30.46" r="3.33" transform="translate(-6.11 6.12) rotate(-12.72)"/><circle class="cls-45" cx="24.41" cy="30.46" r="3.3" transform="translate(-6.62 6.79) rotate(-13.95)"/><circle class="cls-46" cx="24.41" cy="30.46" r="3.27" transform="translate(-7.14 7.48) rotate(-15.23)"/><circle class="cls-93" cx="24.41" cy="30.46" r="3.24" transform="translate(-7.66 8.21) rotate(-16.55)"/><circle class="cls-48" cx="24.41" cy="30.46" r="3.21" transform="translate(-8.18 8.98) rotate(-17.9)"/><circle class="cls-50" cx="24.41" cy="30.46" r="3.18" transform="translate(-8.69 9.78) rotate(-19.29)"/><circle class="cls-94" cx="24.41" cy="30.46" r="3.16" transform="translate(-9.19 10.6) rotate(-20.71)"/><circle class="cls-51" cx="24.41" cy="30.46" r="3.13" transform="translate(-9.68 11.45) rotate(-22.15)"/><circle class="cls-95" cx="24.41" cy="30.46" r="3.1" transform="translate(-10.15 12.32) rotate(-23.6)"/><circle class="cls-53" cx="24.41" cy="30.46" r="3.07" transform="translate(-10.6 13.21) rotate(-25.06)"/><circle class="cls-55" cx="24.41" cy="30.46" r="3.04" transform="translate(-11.03 14.11) rotate(-26.53)"/><circle class="cls-56" cx="24.41" cy="30.46" r="3.01" transform="translate(-11.44 15.01) rotate(-27.98)"/><circle class="cls-56" cx="24.41" cy="30.46" r="2.98" transform="translate(-11.81 15.92) rotate(-29.42)"/><circle class="cls-57" cx="24.41" cy="30.46" r="2.96" transform="translate(-12.16 16.82) rotate(-30.83)"/><circle class="cls-58" cx="24.41" cy="30.46" r="2.93" transform="matrix(0.85, -0.53, 0.53, 0.85, -12.48, 17.71)"/><circle class="cls-59" cx="24.41" cy="30.46" r="2.9" transform="translate(-12.77 18.58) rotate(-33.58)"/><path class="cls-61" d="M24,27.62A2.87,2.87,0,1,0,27.25,30,2.87,2.87,0,0,0,24,27.62Z"/><path class="cls-96" d="M24,27.65A2.84,2.84,0,1,0,27.22,30,2.83,2.83,0,0,0,24,27.65Z"/><path class="cls-63" d="M24,27.67A2.82,2.82,0,1,0,27.19,30,2.81,2.81,0,0,0,24,27.67Z"/><path class="cls-63" d="M24,27.7a2.79,2.79,0,1,0,3.16,2.35A2.78,2.78,0,0,0,24,27.7Z"/><path class="cls-64" d="M24,27.73a2.75,2.75,0,1,0,3.13,2.32A2.75,2.75,0,0,0,24,27.73Z"/><path class="cls-97" d="M24,27.76a2.72,2.72,0,1,0,3.1,2.3A2.72,2.72,0,0,0,24,27.76Z"/><path class="cls-66" d="M24,27.79a2.69,2.69,0,1,0,3.06,2.27A2.7,2.7,0,0,0,24,27.79Z"/><path class="cls-67" d="M24,27.82a2.67,2.67,0,1,0,3,2.25A2.67,2.67,0,0,0,24,27.82Z"/><path class="cls-68" d="M24,27.85a2.64,2.64,0,1,0,3,2.22A2.63,2.63,0,0,0,24,27.85Z"/><path class="cls-69" d="M24,27.87a2.61,2.61,0,1,0,3,2.2A2.62,2.62,0,0,0,24,27.87Z"/><path class="cls-71" d="M24,27.9A2.58,2.58,0,1,0,27,30.08,2.58,2.58,0,0,0,24,27.9Z"/><path class="cls-71" d="M24,27.93a2.55,2.55,0,1,0,2.9,2.15A2.55,2.55,0,0,0,24,27.93Z"/><path class="cls-72" d="M24,28a2.52,2.52,0,1,0,2.87,2.13A2.53,2.53,0,0,0,24,28Z"/><path class="cls-73" d="M24.05,28a2.5,2.5,0,1,0,2.83,2.1A2.49,2.49,0,0,0,24.05,28Z"/><path class="cls-74" d="M24.05,28a2.47,2.47,0,1,0,2.8,2.07A2.46,2.46,0,0,0,24.05,28Z"/><path class="cls-75" d="M24.05,28a2.44,2.44,0,1,0,2.77,2.06A2.44,2.44,0,0,0,24.05,28Z"/><path class="cls-76" d="M24.06,28.07a2.41,2.41,0,1,0,2.74,2A2.41,2.41,0,0,0,24.06,28.07Z"/><path class="cls-77" d="M24.06,28.1a2.38,2.38,0,1,0,2.71,2A2.4,2.4,0,0,0,24.06,28.1Z"/><path class="cls-78" d="M24.07,28.13a2.35,2.35,0,1,0,2.67,2A2.36,2.36,0,0,0,24.07,28.13Z"/><path class="cls-79" d="M24.07,28.16a2.32,2.32,0,1,0,2.64,2A2.32,2.32,0,0,0,24.07,28.16Z"/><path class="cls-80" d="M24.08,28.19a2.29,2.29,0,1,0,2.6,1.93A2.29,2.29,0,0,0,24.08,28.19Z"/><path class="cls-81" d="M24.08,28.21a2.27,2.27,0,1,0,2.57,1.91A2.28,2.28,0,0,0,24.08,28.21Z"/><path class="cls-82" d="M24.08,28.24a2.24,2.24,0,1,0,2.55,1.89A2.24,2.24,0,0,0,24.08,28.24Z"/><path class="cls-83" d="M24.09,28.27a2.21,2.21,0,1,0,2.51,1.86A2.2,2.2,0,0,0,24.09,28.27Z"/></g><path class="cls-7" d="M16.23,27.76c-1.09.56-1.33,2.32-.54,3.93s2.3,2.46,3.39,1.89,1.33-2.32.55-3.93S17.32,27.19,16.23,27.76Z"/><path class="cls-5" d="M16,28.82a2.35,2.35,0,0,1,1.51,2l1-.29S17.89,27.83,16,28.82Z"/><path class="cls-98" d="M23.19,25.05A2.56,2.56,0,0,0,21,27.58s.38,1.44,3.21,1c2.44-.36,2.44-2,2.44-2A3.24,3.24,0,0,0,23.19,25.05Z"/><path class="cls-98" d="M32.12,26.11s.09,1.27,2.55.81,2.15-2.3,2.15-2.3C33.87,21.26,32.12,26.11,32.12,26.11Z"/><path class="cls-99" d="M33.42,24.29c-.5.24-.59,1.07-.21,1.86a2.25,2.25,0,0,0,.73.86,5.36,5.36,0,0,0,.73-.09l.44-.11A1.79,1.79,0,0,0,35,25.28C34.62,24.49,33.91,24.05,33.42,24.29Z"/><path class="cls-100" d="M33.42,24.29c-.5.24-.59,1.07-.21,1.86a2.59,2.59,0,0,0,.25.39,1.31,1.31,0,0,1,0-1.3,1.26,1.26,0,0,1,1.07-.49l.13,0A1.12,1.12,0,0,0,33.42,24.29Z"/><path class="cls-101" d="M34,25.49c-.05.69,1.51.69,1.51.69l-.08-.56S34.07,24.81,34,25.49Z"/><path class="cls-102" d="M23.45,25.77c-.49.24-.59,1.07-.2,1.85a2,2,0,0,0,.94,1,4.07,4.07,0,0,0,.9-.23A1.68,1.68,0,0,0,25,26.76C24.65,26,23.94,25.53,23.45,25.77Z"/><path class="cls-100" d="M23.45,25.77c-.49.24-.59,1.07-.2,1.85a2.14,2.14,0,0,0,.24.39,1.32,1.32,0,0,1,0-1.29,1.23,1.23,0,0,1,1.07-.49l.14,0A1.14,1.14,0,0,0,23.45,25.77Z"/><path class="cls-101" d="M24,27c-.06.69,1.5.69,1.5.69l-.08-.56S24.08,26.29,24,27Z"/><path class="cls-4" d="M34.26,23.11a2.56,2.56,0,0,0-2.14,3,3.54,3.54,0,0,1,2.5-2c1.7-.18,2.2.54,2.2.54A2.33,2.33,0,0,0,34.26,23.11Z"/><path class="cls-4" d="M30.2,19.09l.71,2A14.65,14.65,0,0,1,36,20.64l-.12-.87S33.92,18.1,30.2,19.09Z"/><path class="cls-4" d="M20.63,23.12l.21.88c1.41-1.13,5.6-2.33,5.6-2.33l-.24-1.94A8.36,8.36,0,0,0,20.63,23.12Z"/><path class="cls-4" d="M23.27,24.92A2.45,2.45,0,0,0,21,27.66s.13-1.13,2.41-1.6,3.22.58,3.22.58A2.93,2.93,0,0,0,23.27,24.92Z"/><path class="cls-7" d="M30.94,28.1A5.89,5.89,0,0,1,29.69,24s-2.43,4.5-1,6.54,5.45.21,4.58-1.81A1.35,1.35,0,0,0,30.94,28.1Z"/><path class="cls-103" d="M30.94,28.1a5.06,5.06,0,0,1-1.23-3l-.34.15a11.43,11.43,0,0,0,1.3,4,14,14,0,0,0,2.53-.72A1.34,1.34,0,0,0,30.94,28.1Z"/><path class="cls-6" d="M28.5,30.14a3.35,3.35,0,0,0,.21.36c1.31,1.83,4.7.53,4.7-1.23A10.49,10.49,0,0,1,28.5,30.14Z"/><path class="cls-104" d="M24.58,32.3s2,4.29,6.52,3.61c3.85-.57,5.19-5.34,5.19-5.34A11,11,0,0,1,30.52,33,11.61,11.61,0,0,1,24.58,32.3Z"/><path class="cls-105" d="M30.52,33a13.11,13.11,0,0,1-4.87-.32c.08.47.14.93.2,1.4a5.84,5.84,0,0,0,5.25,1.83,6.12,6.12,0,0,0,4.25-3.23c-.12-.4-.22-.81-.3-1.22A11.61,11.61,0,0,1,30.52,33Z"/><path class="cls-106" d="M30.52,33a13.11,13.11,0,0,1-4.87-.32c.08.47.14.93.2,1.4a6.59,6.59,0,0,0,1,.83A13.46,13.46,0,0,1,35.15,33c.07-.11.14-.22.2-.33-.12-.4-.22-.81-.3-1.22A11.61,11.61,0,0,1,30.52,33Z"/><path class="cls-4" d="M18.47,11.34h0Z"/><path class="cls-4" d="M35.22,9.75a5.23,5.23,0,0,0-2.35-4.1,4.42,4.42,0,0,0-.6,1.57h0c-1-2.48-4.19-4-4.19-4-2.18,1.57-2.52,2.7-2.52,2.7a2.13,2.13,0,0,0-.88-1.44,4.83,4.83,0,0,0-1.45,3.82c-1-1.19-4.05-2.14-4.05-2.14-1.65,3.89-.82,5-.71,5.16h0a13.92,13.92,0,0,0-2.41-1.48c-1.22,4.58.42,6.61.42,6.61A3.33,3.33,0,0,0,15.07,16v.27c0,2.63,3.09,3.88,3.09,3.88s.42-2.76.49-3.85,1.45-1.94,4-3,7.1-1.1,8.59-.84,4.5,3.23,4.5,3.23a10.27,10.27,0,0,0,.4-6.76A1.1,1.1,0,0,0,35.22,9.75Z"/><path class="cls-107" d="M35.22,9.75a5.61,5.61,0,0,0-.12-.85L35,9c-.11,0-.26.12-.35.14l-.16.06-.24,0h-.06c.1,0,0,0,0,0h-.17l-.23,0a3.49,3.49,0,0,1-.46,0,3.62,3.62,0,0,1-.47,0l-.5-.08c-.66-.14-1.41-.4-2.26-.65A15.6,15.6,0,0,0,27.44,8,13.74,13.74,0,0,0,26,7.85a13.55,13.55,0,0,0-1.44,0l-.33,0h-.39L23.2,8a2.6,2.6,0,0,0,0,.29L23,8.08a6.57,6.57,0,0,0-1.53.52A8.68,8.68,0,0,0,19,10.37c-.23.24-.45.48-.65.72a1.32,1.32,0,0,0,.14.25,1.12,1.12,0,0,0-.19-.18,13.73,13.73,0,0,0-1,1.32,15.09,15.09,0,0,0-1.06,2.07c-.11.24-.2.47-.28.69a4.29,4.29,0,0,0,.52,1.11v.06a3,3,0,0,0-.81-.36c0,.11-.07.21-.1.31-.07.25-.14.48-.19.7a3.49,3.49,0,0,0,.56,1.2l.08-.15c.2-.34.45-.75.74-1.21s.63-1,1-1.49.82-1.08,1.3-1.62a12.06,12.06,0,0,1,1.6-1.51,7,7,0,0,1,1.88-1.09,5.89,5.89,0,0,1,1-.26,4.63,4.63,0,0,1,.51,0l.64,0,1.27,0h1.25c.83,0,1.64,0,2.46.12s1.67.18,2.56.18c.22,0,.44,0,.65,0s.44,0,.64-.08.41-.08.61-.14l.28-.08.14,0,.07,0h.07l0,0,.24-.1.29-.15a5,5,0,0,0,.48-.32,7,7,0,0,0,.56-.49c-.1-.48-.19-.76-.19-.76A1.1,1.1,0,0,0,35.22,9.75Z"/></svg>