<svg id="Layer_1" data-name="Layer 1" xmlns="http://www.w3.org/2000/svg" xmlns:xlink="http://www.w3.org/1999/xlink" viewBox="0 0 56.69 56.69"><defs><style>.cls-1{fill:#afc6d2;}.cls-106,.cls-107,.cls-2,.cls-3,.cls-96{fill:#d58a77;}.cls-2{opacity:0.65;}.cls-4{fill:#330d00;}.cls-5{fill:#e49c84;}.cls-6{opacity:0.38;}.cls-7{fill:#e49b83;}.cls-8{fill:#e39a82;}.cls-9{fill:#e39981;}.cls-10{fill:#e39881;}.cls-11{fill:#e39780;}.cls-12{fill:#e2967f;}.cls-13{fill:#e2957e;}.cls-14{fill:#e2947d;}.cls-15{fill:#e2937c;}.cls-16{fill:#e2927c;}.cls-17{fill:#e1917b;}.cls-18{fill:#e1907a;}.cls-19{fill:#e19079;}.cls-20{fill:#e18f78;}.cls-21{fill:#e18e78;}.cls-22{fill:#e08d77;}.cls-23{fill:#e08c76;}.cls-24{fill:#e08b75;}.cls-25{fill:#e08a75;}.cls-26{fill:#e08974;}.cls-27{fill:#df8873;}.cls-28{fill:#df8772;}.cls-29{fill:#df8672;}.cls-30{fill:#df8671;}.cls-31{fill:#df8570;}.cls-32{fill:#de846f;}.cls-33{fill:#de836f;}.cls-34{fill:#de826e;}.cls-35{fill:#de816d;}.cls-36{fill:#de806c;}.cls-37{fill:#dd7f6c;}.cls-38{fill:#dd7e6b;}.cls-39{fill:#dd7d6a;}.cls-40{fill:#dd7c69;}.cls-41{fill:#dd7b69;}.cls-42{fill:#dc7b68;}.cls-43{fill:#dc7a67;}.cls-44{fill:#dc7967;}.cls-45{fill:#dc7866;}.cls-46{fill:#dc7765;}.cls-47{fill:#db7664;}.cls-48{fill:#db7564;}.cls-49{fill:#db7463;}.cls-50{fill:#db7362;}.cls-51{fill:#db7262;}.cls-52{fill:#db7161;}.cls-53{fill:#da7060;}.cls-54{fill:#da6f5f;}.cls-55{fill:#da6e5e;}.cls-56{fill:#da6d5e;}.cls-57{fill:#d96c5d;}.cls-58{fill:#d96b5c;}.cls-59{fill:#d96a5c;}.cls-60{fill:#d9695b;}.cls-61{fill:#d9685a;}.cls-62{fill:#d9675a;}.cls-63{fill:#d86659;}.cls-64{fill:#d86558;}.cls-65{fill:#d86458;}.cls-66{fill:#d86357;}.cls-67{fill:#d86256;}.cls-68{fill:#d76156;}.cls-69{fill:#d76055;}.cls-70{fill:#d75f54;}.cls-71{fill:#d75e54;}.cls-72{fill:#d75c53;}.cls-73{fill:#d75b52;}.cls-74{fill:#d65a52;}.cls-75{fill:#e2937d;}.cls-76{fill:#e1927b;}.cls-77{fill:#e1917a;}.cls-78{fill:#e18f79;}.cls-79{fill:#e08b76;}.cls-80{fill:#df8973;}.cls-81{fill:#de8470;}.cls-82{fill:#de806d;}.cls-83{fill:#dd806c;}.cls-84{fill:#dd7f6b;}.cls-85{fill:#dd7e6a;}.cls-86{fill:#dc7a68;}.cls-87{fill:#dc7766;}.cls-88{fill:#db7261;}.cls-89{fill:#da7161;}.cls-90{fill:#da6e5f;}.cls-91{fill:#da6c5d;}.cls-92{fill:#d96b5d;}.cls-93{fill:#d96a5b;}.cls-94{fill:#d86759;}.cls-95{fill:#d75d54;}.cls-96{opacity:0.52;}.cls-104,.cls-105,.cls-97{fill:#fff;}.cls-98{fill:url(#_ÂÁ_Ï_ÌÌ_È_ËÂÌÚ_15);}.cls-99{fill:url(#_ÂÁ_Ï_ÌÌ_È_ËÂÌÚ_9);}.cls-100{fill:#31201b;}.cls-101{fill:#663330;}.cls-102{fill:#cfb8b5;opacity:0.35;}.cls-103{fill:#312625;}.cls-104{opacity:0.12;}.cls-105{opacity:0.11;}.cls-106{opacity:0.63;}.cls-107{opacity:0.69;}.cls-108{fill:#221718;}.cls-109{fill:#5d5e8e;}.cls-110{fill:#646899;}</style><linearGradient id="_ÂÁ_Ï_ÌÌ_È_ËÂÌÚ_15" x1="30.08" y1="22.36" x2="30.93" y2="20.09" gradientTransform="matrix(1, 0, -0.03, 1, -6.22, 0.93)" gradientUnits="userSpaceOnUse"><stop offset="0" stop-color="#563235"/><stop offset="0.14" stop-color="#482e30"/><stop offset="1"/></linearGradient><linearGradient id="_ÂÁ_Ï_ÌÌ_È_ËÂÌÚ_9" x1="39.61" y1="23" x2="40.54" y2="20.19" gradientTransform="matrix(1, 0, -0.03, 1, -6.22, 0.93)" gradientUnits="userSpaceOnUse"><stop offset="0" stop-color="#563235"/><stop offset="1"/></linearGradient></defs><circle class="cls-1" cx="28.35" cy="28.35" r="28.35"/><path class="cls-2" d="M16.45,53c-2.47-.44-2.78-7.73-5.27-8a20.12,20.12,0,0,0-1.89,4.38A28.24,28.24,0,0,0,16.5,54.1C16.66,53.48,16.7,53,16.45,53Z"/><path class="cls-3" d="M18.07,21.2c-1.07.38-1.49,2.05-.93,3.73s1.87,2.72,2.94,2.34,1.5-2.05.94-3.72S19.15,20.82,18.07,21.2Z"/><path class="cls-3" d="M29,28.46h0c-2.45,0-4.19,1.19-4.16,2.94l-.6,8c0,1.75,2.52,2,5,2.07s4.44-.25,4.41-2l-.26-7.53C33.32,30.14,31.45,28.51,29,28.46Z"/><path class="cls-4" d="M25.26,6.43v0Z"/><path class="cls-5" d="M37.33,11.49C36.84,7.61,26,5.77,22.64,11.1A49.2,49.2,0,0,0,19,22.76a.28.28,0,0,1,0-.08s-3.39,12.17,7.35,12.93,12.15-4.95,11.93-12.07h0A51.37,51.37,0,0,0,37.33,11.49Z"/><g class="cls-6"><path class="cls-5" d="M22.89,20.8A4.25,4.25,0,0,0,18.82,25a3.9,3.9,0,0,0,3.66,4.3,4.25,4.25,0,0,0,4.08-4.19A3.92,3.92,0,0,0,22.89,20.8Z"/><path class="cls-7" d="M22.89,20.83a4.21,4.21,0,0,0-4,4.16,3.87,3.87,0,0,0,3.63,4.27,4.22,4.22,0,0,0,4.05-4.16A3.88,3.88,0,0,0,22.89,20.83Z"/><path class="cls-8" d="M22.89,20.87a4.18,4.18,0,0,0-4,4.12,3.86,3.86,0,0,0,3.61,4.24,4.18,4.18,0,0,0,4-4.13A3.84,3.84,0,0,0,22.89,20.87Z"/><path class="cls-9" d="M22.89,20.9a4.15,4.15,0,0,0-4,4.09,3.83,3.83,0,0,0,3.59,4.21,4.15,4.15,0,0,0,4-4.1A3.82,3.82,0,0,0,22.89,20.9Z"/><path class="cls-10" d="M22.89,20.93a4.12,4.12,0,0,0-4,4.06,3.8,3.8,0,0,0,3.56,4.18,4.13,4.13,0,0,0,4-4.07A3.79,3.79,0,0,0,22.89,20.93Z"/><path class="cls-11" d="M22.89,21A4.09,4.09,0,0,0,19,25a3.76,3.76,0,0,0,3.53,4.14,4.08,4.08,0,0,0,3.93-4A3.77,3.77,0,0,0,22.89,21Z"/><path class="cls-12" d="M22.88,21A4,4,0,0,0,19,25a3.74,3.74,0,0,0,3.5,4.11,4.06,4.06,0,0,0,3.9-4A3.74,3.74,0,0,0,22.88,21Z"/><path class="cls-13" d="M22.88,21A4,4,0,0,0,19,25a3.71,3.71,0,0,0,3.48,4.08,4,4,0,0,0,3.87-4A3.71,3.71,0,0,0,22.88,21Z"/><path class="cls-14" d="M22.88,21.05A4,4,0,0,0,19,25,3.69,3.69,0,0,0,22.49,29a4,4,0,0,0,3.84-3.94A3.68,3.68,0,0,0,22.88,21.05Z"/><path class="cls-15" d="M22.88,21.08A4,4,0,0,0,19.07,25a3.65,3.65,0,0,0,3.43,4,4,4,0,0,0,3.8-3.91A3.65,3.65,0,0,0,22.88,21.08Z"/><path class="cls-16" d="M22.88,21.11A3.93,3.93,0,0,0,19.1,25a3.62,3.62,0,0,0,3.4,4,3.94,3.94,0,0,0,3.78-3.88A3.63,3.63,0,0,0,22.88,21.11Z"/><path class="cls-17" d="M22.88,21.14A3.9,3.9,0,0,0,19.13,25,3.59,3.59,0,0,0,22.5,29a3.91,3.91,0,0,0,3.75-3.85A3.61,3.61,0,0,0,22.88,21.14Z"/><path class="cls-18" d="M22.87,21.17A3.88,3.88,0,0,0,19.15,25a3.57,3.57,0,0,0,3.35,3.92,3.87,3.87,0,0,0,3.72-3.82A3.57,3.57,0,0,0,22.87,21.17Z"/><path class="cls-19" d="M22.87,21.2A3.86,3.86,0,0,0,19.18,25a3.55,3.55,0,0,0,3.32,3.89,3.83,3.83,0,0,0,3.69-3.79A3.54,3.54,0,0,0,22.87,21.2Z"/><path class="cls-20" d="M22.87,21.23A3.82,3.82,0,0,0,19.21,25a3.51,3.51,0,0,0,3.29,3.86,3.81,3.81,0,0,0,3.66-3.76A3.51,3.51,0,0,0,22.87,21.23Z"/><path class="cls-21" d="M22.87,21.26A3.79,3.79,0,0,0,19.24,25a3.48,3.48,0,0,0,3.26,3.83,3.8,3.8,0,0,0,3.64-3.74A3.5,3.5,0,0,0,22.87,21.26Z"/><path class="cls-22" d="M22.87,21.3a3.75,3.75,0,0,0-3.6,3.7,3.46,3.46,0,0,0,3.24,3.8,3.76,3.76,0,0,0,3.6-3.71A3.44,3.44,0,0,0,22.87,21.3Z"/><path class="cls-23" d="M22.87,21.33A3.71,3.71,0,0,0,19.29,25a3.44,3.44,0,0,0,3.22,3.77,3.73,3.73,0,0,0,3.57-3.68A3.42,3.42,0,0,0,22.87,21.33Z"/><path class="cls-24" d="M22.87,21.36A3.69,3.69,0,0,0,19.32,25a3.39,3.39,0,0,0,3.19,3.73,3.68,3.68,0,0,0,3.54-3.64A3.39,3.39,0,0,0,22.87,21.36Z"/><path class="cls-25" d="M22.86,21.39A3.66,3.66,0,0,0,19.35,25a3.36,3.36,0,0,0,3.16,3.7A3.65,3.65,0,0,0,26,25.09,3.36,3.36,0,0,0,22.86,21.39Z"/><path class="cls-26" d="M22.86,21.42A3.63,3.63,0,0,0,19.38,25a3.33,3.33,0,0,0,3.13,3.67A3.63,3.63,0,0,0,26,25.09,3.34,3.34,0,0,0,22.86,21.42Z"/><path class="cls-27" d="M22.86,21.45A3.58,3.58,0,0,0,19.41,25a3.3,3.3,0,0,0,3.1,3.64A3.6,3.6,0,0,0,26,25.09,3.32,3.32,0,0,0,22.86,21.45Z"/><path class="cls-28" d="M22.86,21.48A3.57,3.57,0,0,0,19.43,25a3.29,3.29,0,0,0,3.08,3.61,3.57,3.57,0,0,0,3.43-3.52A3.29,3.29,0,0,0,22.86,21.48Z"/><path class="cls-29" d="M22.86,21.51A3.55,3.55,0,0,0,19.46,25a3.26,3.26,0,0,0,3.06,3.58,3.53,3.53,0,0,0,3.39-3.49A3.25,3.25,0,0,0,22.86,21.51Z"/><path class="cls-30" d="M22.86,21.54A3.51,3.51,0,0,0,19.49,25a3.22,3.22,0,0,0,3,3.55,3.5,3.5,0,0,0,3.36-3.46A3.23,3.23,0,0,0,22.86,21.54Z"/><path class="cls-31" d="M22.86,21.57A3.48,3.48,0,0,0,19.52,25a3.2,3.2,0,0,0,3,3.52,3.49,3.49,0,0,0,3.34-3.43A3.2,3.2,0,0,0,22.86,21.57Z"/><path class="cls-32" d="M22.85,21.6a3.44,3.44,0,0,0-3.3,3.4,3.17,3.17,0,0,0,3,3.49,3.45,3.45,0,0,0,3.31-3.4A3.18,3.18,0,0,0,22.85,21.6Z"/><path class="cls-33" d="M22.85,21.63A3.41,3.41,0,0,0,19.58,25a3.13,3.13,0,0,0,2.94,3.46,3.42,3.42,0,0,0,3.28-3.37A3.15,3.15,0,0,0,22.85,21.63Z"/><path class="cls-34" d="M22.85,21.66A3.39,3.39,0,0,0,19.6,25a3.12,3.12,0,0,0,2.92,3.43,3.38,3.38,0,0,0,3.25-3.34A3.12,3.12,0,0,0,22.85,21.66Z"/><ellipse class="cls-35" cx="22.69" cy="25.05" rx="3.36" ry="3.05" transform="translate(-6.5 42.07) rotate(-78.08)"/><ellipse class="cls-36" cx="22.69" cy="25.05" rx="3.33" ry="3.02" transform="translate(-6.5 42.07) rotate(-78.08)"/><ellipse class="cls-37" cx="22.69" cy="25.05" rx="3.3" ry="2.99" transform="translate(-6.5 42.07) rotate(-78.08)"/><ellipse class="cls-38" cx="22.69" cy="25.05" rx="3.27" ry="2.96" transform="translate(-6.5 42.07) rotate(-78.08)"/><ellipse class="cls-39" cx="22.69" cy="25.05" rx="3.24" ry="2.93" transform="translate(-6.5 42.07) rotate(-78.08)"/><ellipse class="cls-40" cx="22.69" cy="25.05" rx="3.21" ry="2.91" transform="translate(-6.5 42.07) rotate(-78.08)"/><ellipse class="cls-41" cx="22.69" cy="25.05" rx="3.18" ry="2.88" transform="translate(-6.5 42.07) rotate(-78.08)"/><ellipse class="cls-42" cx="22.69" cy="25.05" rx="3.15" ry="2.85" transform="translate(-6.5 42.07) rotate(-78.08)"/><ellipse class="cls-43" cx="22.69" cy="25.05" rx="3.12" ry="2.82" transform="translate(-6.5 42.07) rotate(-78.08)"/><ellipse class="cls-44" cx="22.69" cy="25.05" rx="3.09" ry="2.79" transform="translate(-6.5 42.07) rotate(-78.08)"/><ellipse class="cls-45" cx="22.69" cy="25.05" rx="3.06" ry="2.77" transform="translate(-6.5 42.07) rotate(-78.08)"/><path class="cls-46" d="M22.83,22a3,3,0,0,0-2.89,3,2.77,2.77,0,0,0,2.6,3,3,3,0,0,0,2.89-3A2.77,2.77,0,0,0,22.83,22Z"/><path class="cls-47" d="M22.83,22.06A3,3,0,0,0,20,25a2.75,2.75,0,0,0,2.57,3,3,3,0,0,0,2.87-3A2.76,2.76,0,0,0,22.83,22.06Z"/><path class="cls-48" d="M22.83,22.09A3,3,0,0,0,20,25a2.72,2.72,0,0,0,2.54,3,3,3,0,0,0,2.84-2.92A2.72,2.72,0,0,0,22.83,22.09Z"/><path class="cls-49" d="M22.83,22.13A2.92,2.92,0,0,0,20,25a2.7,2.7,0,0,0,2.53,3,2.92,2.92,0,0,0,2.8-2.89A2.68,2.68,0,0,0,22.83,22.13Z"/><path class="cls-50" d="M22.83,22.16A2.89,2.89,0,0,0,20.05,25a2.67,2.67,0,0,0,2.5,2.93,2.89,2.89,0,0,0,2.77-2.86A2.66,2.66,0,0,0,22.83,22.16Z"/><path class="cls-51" d="M22.83,22.19A2.86,2.86,0,0,0,20.08,25a2.63,2.63,0,0,0,2.47,2.89,2.84,2.84,0,0,0,2.74-2.82A2.62,2.62,0,0,0,22.83,22.19Z"/><path class="cls-52" d="M22.82,22.22A2.82,2.82,0,0,0,20.11,25a2.6,2.6,0,0,0,2.44,2.86,2.84,2.84,0,0,0,2.72-2.79A2.61,2.61,0,0,0,22.82,22.22Z"/><path class="cls-53" d="M22.82,22.25A2.78,2.78,0,0,0,20.14,25a2.57,2.57,0,0,0,2.41,2.83,2.8,2.8,0,0,0,2.69-2.76A2.58,2.58,0,0,0,22.82,22.25Z"/><path class="cls-53" d="M22.82,22.28A2.77,2.77,0,0,0,20.16,25a2.55,2.55,0,0,0,2.39,2.8,2.76,2.76,0,0,0,2.66-2.73A2.55,2.55,0,0,0,22.82,22.28Z"/><path class="cls-54" d="M22.82,22.31A2.74,2.74,0,0,0,20.19,25a2.52,2.52,0,0,0,2.36,2.77,2.73,2.73,0,0,0,2.63-2.7A2.51,2.51,0,0,0,22.82,22.31Z"/><path class="cls-55" d="M22.82,22.34A2.71,2.71,0,0,0,20.22,25a2.49,2.49,0,0,0,2.34,2.74,2.7,2.7,0,0,0,2.59-2.67A2.49,2.49,0,0,0,22.82,22.34Z"/><path class="cls-56" d="M22.82,22.37A2.67,2.67,0,0,0,20.25,25a2.46,2.46,0,0,0,2.31,2.71,2.68,2.68,0,0,0,2.57-2.64A2.47,2.47,0,0,0,22.82,22.37Z"/><path class="cls-57" d="M22.82,22.4A2.64,2.64,0,0,0,20.28,25a2.44,2.44,0,0,0,2.28,2.68,2.65,2.65,0,0,0,2.54-2.61A2.44,2.44,0,0,0,22.82,22.4Z"/><path class="cls-58" d="M22.81,22.43A2.62,2.62,0,0,0,20.3,25a2.41,2.41,0,0,0,2.26,2.65,2.61,2.61,0,0,0,2.51-2.58A2.41,2.41,0,0,0,22.81,22.43Z"/><path class="cls-59" d="M22.81,22.46A2.6,2.6,0,0,0,20.33,25a2.38,2.38,0,0,0,2.23,2.62A2.58,2.58,0,0,0,25,25.08,2.38,2.38,0,0,0,22.81,22.46Z"/><path class="cls-60" d="M22.81,22.49A2.56,2.56,0,0,0,20.36,25a2.36,2.36,0,0,0,2.2,2.59A2.54,2.54,0,0,0,25,25.08,2.35,2.35,0,0,0,22.81,22.49Z"/><path class="cls-61" d="M22.81,22.53A2.51,2.51,0,0,0,20.39,25a2.32,2.32,0,0,0,2.18,2.56A2.54,2.54,0,0,0,25,25.08,2.32,2.32,0,0,0,22.81,22.53Z"/><path class="cls-62" d="M22.81,22.56A2.48,2.48,0,0,0,20.42,25a2.29,2.29,0,0,0,2.15,2.53A2.51,2.51,0,0,0,25,25.08,2.29,2.29,0,0,0,22.81,22.56Z"/><path class="cls-63" d="M22.81,22.59A2.47,2.47,0,0,0,20.44,25a2.28,2.28,0,0,0,2.13,2.5,2.47,2.47,0,0,0,2.36-2.43A2.25,2.25,0,0,0,22.81,22.59Z"/><path class="cls-64" d="M22.8,22.62A2.42,2.42,0,0,0,20.47,25a2.23,2.23,0,0,0,2.1,2.46,2.42,2.42,0,0,0,2.33-2.39A2.23,2.23,0,0,0,22.8,22.62Z"/><path class="cls-65" d="M22.8,22.65A2.4,2.4,0,0,0,20.5,25a2.2,2.2,0,0,0,2.07,2.42,2.39,2.39,0,0,0,2.3-2.36A2.2,2.2,0,0,0,22.8,22.65Z"/><path class="cls-66" d="M22.8,22.68A2.36,2.36,0,0,0,20.53,25a2.17,2.17,0,0,0,2,2.39,2.38,2.38,0,0,0,2.28-2.33A2.19,2.19,0,0,0,22.8,22.68Z"/><path class="cls-67" d="M22.8,22.71A2.33,2.33,0,0,0,20.56,25a2.14,2.14,0,0,0,2,2.36,2.33,2.33,0,0,0,2.25-2.3A2.16,2.16,0,0,0,22.8,22.71Z"/><path class="cls-68" d="M22.8,22.74A2.31,2.31,0,0,0,20.58,25a2.12,2.12,0,0,0,2,2.33,2.3,2.3,0,0,0,2.21-2.27A2.13,2.13,0,0,0,22.8,22.74Z"/><path class="cls-69" d="M22.8,22.77A2.28,2.28,0,0,0,20.61,25a2.1,2.1,0,0,0,2,2.3,2.27,2.27,0,0,0,2.18-2.24A2.1,2.1,0,0,0,22.8,22.77Z"/><path class="cls-70" d="M22.8,22.8A2.26,2.26,0,0,0,20.64,25a2.07,2.07,0,0,0,1.94,2.27,2.24,2.24,0,0,0,2.15-2.22A2.07,2.07,0,0,0,22.8,22.8Z"/><path class="cls-71" d="M22.79,22.83A2.22,2.22,0,0,0,20.67,25a2,2,0,0,0,1.91,2.24,2.22,2.22,0,0,0,2.13-2.19A2,2,0,0,0,22.79,22.83Z"/><path class="cls-72" d="M22.79,22.86A2.18,2.18,0,0,0,20.7,25a2,2,0,0,0,1.88,2.21,2.19,2.19,0,0,0,2.1-2.16A2,2,0,0,0,22.79,22.86Z"/><path class="cls-73" d="M22.79,22.89A2.17,2.17,0,0,0,20.72,25a2,2,0,0,0,1.86,2.18,2.16,2.16,0,0,0,2.07-2.13A2,2,0,0,0,22.79,22.89Z"/><path class="cls-74" d="M22.79,22.92a2.14,2.14,0,0,0-2,2.1,2,2,0,0,0,1.83,2.15,2.14,2.14,0,0,0,2-2.1A2,2,0,0,0,22.79,22.92Z"/></g><g class="cls-6"><ellipse class="cls-5" cx="33.16" cy="25.19" rx="4.3" ry="4.16" transform="translate(-7.53 34.07) rotate(-49.54)"/><ellipse class="cls-7" cx="33.16" cy="25.19" rx="4.27" ry="4.13" transform="translate(-7.53 34.07) rotate(-49.54)"/><ellipse class="cls-8" cx="33.16" cy="25.19" rx="4.24" ry="4.1" transform="translate(-7.53 34.07) rotate(-49.54)"/><ellipse class="cls-9" cx="33.16" cy="25.19" rx="4.21" ry="4.07" transform="translate(-7.53 34.07) rotate(-49.54)"/><ellipse class="cls-10" cx="33.16" cy="25.19" rx="4.18" ry="4.04" transform="translate(-7.53 34.07) rotate(-49.54)"/><ellipse class="cls-11" cx="33.16" cy="25.19" rx="4.15" ry="4.01" transform="translate(-7.53 34.07) rotate(-49.54)"/><ellipse class="cls-12" cx="33.16" cy="25.19" rx="4.12" ry="3.98" transform="translate(-7.53 34.07) rotate(-49.54)"/><ellipse class="cls-13" cx="33.16" cy="25.19" rx="4.09" ry="3.95" transform="translate(-7.53 34.07) rotate(-49.54)"/><ellipse class="cls-14" cx="33.16" cy="25.19" rx="4.06" ry="3.92" transform="translate(-7.53 34.07) rotate(-49.54)"/><ellipse class="cls-75" cx="33.16" cy="25.19" rx="4.03" ry="3.89" transform="translate(-7.53 34.07) rotate(-49.54)"/><ellipse class="cls-16" cx="33.16" cy="25.19" rx="4" ry="3.86" transform="matrix(0.65, -0.76, 0.76, 0.65, -7.53, 34.07)"/><ellipse class="cls-76" cx="33.16" cy="25.19" rx="3.97" ry="3.83" transform="translate(-7.53 34.07) rotate(-49.54)"/><ellipse class="cls-77" cx="33.16" cy="25.19" rx="3.94" ry="3.8" transform="translate(-7.53 34.07) rotate(-49.54)"/><ellipse class="cls-19" cx="33.16" cy="25.19" rx="3.91" ry="3.77" transform="translate(-7.53 34.07) rotate(-49.54)"/><ellipse class="cls-78" cx="33.16" cy="25.19" rx="3.87" ry="3.74" transform="translate(-7.53 34.07) rotate(-49.53)"/><ellipse class="cls-21" cx="33.16" cy="25.19" rx="3.84" ry="3.71" transform="translate(-7.53 34.07) rotate(-49.53)"/><ellipse class="cls-22" cx="33.16" cy="25.19" rx="3.81" ry="3.68" transform="translate(-7.53 34.07) rotate(-49.53)"/><ellipse class="cls-23" cx="33.16" cy="25.19" rx="3.78" ry="3.65" transform="translate(-7.53 34.07) rotate(-49.53)"/><ellipse class="cls-79" cx="33.16" cy="25.19" rx="3.75" ry="3.62" transform="translate(-7.53 34.07) rotate(-49.53)"/><ellipse class="cls-25" cx="33.16" cy="25.19" rx="3.72" ry="3.59" transform="translate(-7.53 34.07) rotate(-49.53)"/><path class="cls-26" d="M33.33,21.56a3.78,3.78,0,0,0-3.79,3.58A3.49,3.49,0,0,0,33,28.83a3.78,3.78,0,0,0,3.79-3.59A3.48,3.48,0,0,0,33.33,21.56Z"/><path class="cls-80" d="M33.33,21.59a3.75,3.75,0,0,0-3.76,3.55A3.46,3.46,0,0,0,33,28.8a3.75,3.75,0,0,0,3.76-3.56A3.45,3.45,0,0,0,33.33,21.59Z"/><path class="cls-27" d="M33.33,21.62a3.72,3.72,0,0,0-3.73,3.52A3.43,3.43,0,0,0,33,28.77a3.72,3.72,0,0,0,3.73-3.53A3.43,3.43,0,0,0,33.33,21.62Z"/><path class="cls-28" d="M33.33,21.65a3.69,3.69,0,0,0-3.7,3.49A3.4,3.4,0,0,0,33,28.74a3.69,3.69,0,0,0,3.7-3.5A3.4,3.4,0,0,0,33.33,21.65Z"/><path class="cls-30" d="M33.33,21.68a3.66,3.66,0,0,0-3.67,3.46A3.37,3.37,0,0,0,33,28.71a3.66,3.66,0,0,0,3.66-3.47A3.36,3.36,0,0,0,33.33,21.68Z"/><path class="cls-31" d="M33.33,21.71a3.63,3.63,0,0,0-3.64,3.43A3.35,3.35,0,0,0,33,28.68a3.63,3.63,0,0,0,3.63-3.44A3.34,3.34,0,0,0,33.33,21.71Z"/><path class="cls-81" d="M33.32,21.74a3.6,3.6,0,0,0-3.6,3.41A3.31,3.31,0,0,0,33,28.65a3.59,3.59,0,0,0,3.6-3.41A3.31,3.31,0,0,0,33.32,21.74Z"/><path class="cls-33" d="M33.32,21.77a3.56,3.56,0,0,0-3.57,3.38A3.28,3.28,0,0,0,33,28.62a3.57,3.57,0,0,0,3.57-3.38A3.28,3.28,0,0,0,33.32,21.77Z"/><path class="cls-34" d="M33.32,21.8a3.54,3.54,0,0,0-3.54,3.35A3.26,3.26,0,0,0,33,28.59a3.54,3.54,0,0,0,3.54-3.35A3.26,3.26,0,0,0,33.32,21.8Z"/><path class="cls-35" d="M33.32,21.83a3.48,3.48,0,0,0-3.5,3.32A3.22,3.22,0,0,0,33,28.56a3.5,3.5,0,0,0,3.51-3.32A3.22,3.22,0,0,0,33.32,21.83Z"/><path class="cls-82" d="M33.32,21.86a3.46,3.46,0,0,0-3.47,3.29A3.19,3.19,0,0,0,33,28.53a3.48,3.48,0,0,0,3.48-3.29A3.19,3.19,0,0,0,33.32,21.86Z"/><path class="cls-83" d="M33.32,21.89a3.42,3.42,0,0,0-3.44,3.26A3.16,3.16,0,0,0,33,28.5a3.44,3.44,0,0,0,3.44-3.26A3.17,3.17,0,0,0,33.32,21.89Z"/><path class="cls-84" d="M33.31,21.92a3.4,3.4,0,0,0-3.4,3.23A3.13,3.13,0,0,0,33,28.47a3.41,3.41,0,0,0,3.41-3.23A3.14,3.14,0,0,0,33.31,21.92Z"/><path class="cls-85" d="M33.31,22a3.36,3.36,0,0,0-3.37,3.2A3.1,3.1,0,0,0,33,28.44a3.38,3.38,0,0,0,3.38-3.2A3.12,3.12,0,0,0,33.31,22Z"/><path class="cls-39" d="M33.31,22A3.33,3.33,0,0,0,30,25.15a3.08,3.08,0,0,0,3,3.26,3.36,3.36,0,0,0,3.35-3.17A3.08,3.08,0,0,0,33.31,22Z"/><path class="cls-40" d="M33.31,22A3.3,3.3,0,0,0,30,25.15a3,3,0,0,0,3,3.23,3.32,3.32,0,0,0,3.32-3.14A3.05,3.05,0,0,0,33.31,22Z"/><path class="cls-42" d="M33.31,22A3.28,3.28,0,0,0,30,25.15a3,3,0,0,0,3,3.2,3.29,3.29,0,0,0,3.29-3.11A3,3,0,0,0,33.31,22Z"/><path class="cls-86" d="M33.31,22.07a3.25,3.25,0,0,0-3.25,3.08A3,3,0,0,0,33,28.32a3.26,3.26,0,0,0,3.25-3.08A3,3,0,0,0,33.31,22.07Z"/><path class="cls-44" d="M33.31,22.1a3.21,3.21,0,0,0-3.22,3A2.94,2.94,0,0,0,33,28.28a3.22,3.22,0,0,0,3.22-3A3,3,0,0,0,33.31,22.1Z"/><path class="cls-45" d="M33.3,22.13a3.18,3.18,0,0,0-3.18,3A2.92,2.92,0,0,0,33,28.25a3.18,3.18,0,0,0,3.19-3A2.94,2.94,0,0,0,33.3,22.13Z"/><path class="cls-87" d="M33.3,22.16a3.15,3.15,0,0,0-3.15,3A2.9,2.9,0,0,0,33,28.22a3.14,3.14,0,0,0,3.16-3A2.91,2.91,0,0,0,33.3,22.16Z"/><path class="cls-46" d="M33.3,22.19a3.12,3.12,0,0,0-3.12,3,2.87,2.87,0,0,0,2.83,3,3.11,3.11,0,0,0,3.13-3A2.88,2.88,0,0,0,33.3,22.19Z"/><path class="cls-47" d="M33.3,22.22a3.09,3.09,0,0,0-3.09,2.93,2.83,2.83,0,0,0,2.8,3,3.08,3.08,0,0,0,3.1-2.92A2.86,2.86,0,0,0,33.3,22.22Z"/><path class="cls-48" d="M33.3,22.25a3.06,3.06,0,0,0-3.06,2.9,2.8,2.8,0,0,0,2.77,3,3,3,0,0,0,3.07-2.89A2.83,2.83,0,0,0,33.3,22.25Z"/><path class="cls-49" d="M33.3,22.28a3,3,0,0,0-3,2.87,2.78,2.78,0,0,0,2.75,3,3,3,0,0,0,3-2.87A2.8,2.8,0,0,0,33.3,22.28Z"/><path class="cls-50" d="M33.3,22.32a3,3,0,0,0-3,2.83A2.75,2.75,0,0,0,33,28.07a3,3,0,0,0,3-2.84A2.75,2.75,0,0,0,33.3,22.32Z"/><path class="cls-88" d="M33.29,22.35a2.94,2.94,0,0,0-3,2.8A2.72,2.72,0,0,0,33,28a3,3,0,0,0,3-2.81A2.73,2.73,0,0,0,33.29,22.35Z"/><path class="cls-89" d="M33.29,22.38a2.92,2.92,0,0,0-2.93,2.77A2.69,2.69,0,0,0,33,28,2.93,2.93,0,0,0,36,25.23,2.7,2.7,0,0,0,33.29,22.38Z"/><path class="cls-53" d="M33.29,22.41a2.88,2.88,0,0,0-2.9,2.74A2.66,2.66,0,0,0,33,28a2.91,2.91,0,0,0,2.91-2.75A2.67,2.67,0,0,0,33.29,22.41Z"/><path class="cls-54" d="M33.29,22.44a2.85,2.85,0,0,0-2.87,2.72A2.63,2.63,0,0,0,33,28a2.87,2.87,0,0,0,2.88-2.72A2.64,2.64,0,0,0,33.29,22.44Z"/><path class="cls-90" d="M33.29,22.47a2.83,2.83,0,0,0-2.84,2.69A2.6,2.6,0,0,0,33,27.92a2.84,2.84,0,0,0,2.85-2.69A2.62,2.62,0,0,0,33.29,22.47Z"/><path class="cls-56" d="M33.29,22.5a2.8,2.8,0,0,0-2.81,2.66A2.58,2.58,0,0,0,33,27.89a2.81,2.81,0,0,0,2.81-2.66A2.58,2.58,0,0,0,33.29,22.5Z"/><path class="cls-91" d="M33.29,22.53a2.76,2.76,0,0,0-2.78,2.63A2.55,2.55,0,0,0,33,27.86a2.78,2.78,0,0,0,2.78-2.63A2.55,2.55,0,0,0,33.29,22.53Z"/><path class="cls-92" d="M33.28,22.56a2.74,2.74,0,0,0-2.74,2.6A2.52,2.52,0,0,0,33,27.83a2.75,2.75,0,0,0,2.75-2.6A2.52,2.52,0,0,0,33.28,22.56Z"/><path class="cls-58" d="M33.28,22.59a2.7,2.7,0,0,0-2.71,2.57A2.49,2.49,0,0,0,33,27.8a2.71,2.71,0,0,0,2.72-2.57A2.5,2.5,0,0,0,33.28,22.59Z"/><path class="cls-93" d="M33.28,22.62a2.68,2.68,0,0,0-2.68,2.54A2.46,2.46,0,0,0,33,27.77a2.69,2.69,0,0,0,2.69-2.54A2.48,2.48,0,0,0,33.28,22.62Z"/><path class="cls-60" d="M33.28,22.65a2.64,2.64,0,0,0-2.65,2.51A2.44,2.44,0,0,0,33,27.74a2.63,2.63,0,0,0,2.65-2.51A2.43,2.43,0,0,0,33.28,22.65Z"/><path class="cls-61" d="M33.28,22.68a2.62,2.62,0,0,0-2.62,2.48A2.4,2.4,0,0,0,33,27.71a2.61,2.61,0,0,0,2.62-2.48A2.4,2.4,0,0,0,33.28,22.68Z"/><path class="cls-94" d="M33.28,22.71a2.58,2.58,0,0,0-2.59,2.45A2.38,2.38,0,0,0,33,27.68a2.57,2.57,0,0,0,2.58-2.45A2.37,2.37,0,0,0,33.28,22.71Z"/><path class="cls-63" d="M33.28,22.74a2.54,2.54,0,0,0-2.56,2.42A2.34,2.34,0,0,0,33,27.65a2.55,2.55,0,0,0,2.55-2.42A2.34,2.34,0,0,0,33.28,22.74Z"/><path class="cls-64" d="M33.27,22.77a2.51,2.51,0,0,0-2.52,2.39A2.32,2.32,0,0,0,33,27.62a2.51,2.51,0,0,0,2.52-2.39A2.32,2.32,0,0,0,33.27,22.77Z"/><path class="cls-65" d="M33.27,22.8a2.48,2.48,0,0,0-2.49,2.36A2.29,2.29,0,0,0,33,27.59a2.48,2.48,0,0,0,2.49-2.36A2.29,2.29,0,0,0,33.27,22.8Z"/><path class="cls-66" d="M33.27,22.83a2.45,2.45,0,0,0-2.46,2.33A2.27,2.27,0,0,0,33,27.56a2.45,2.45,0,0,0,2.46-2.33A2.25,2.25,0,0,0,33.27,22.83Z"/><path class="cls-67" d="M33.27,22.86a2.42,2.42,0,0,0-2.43,2.3A2.23,2.23,0,0,0,33,27.53a2.42,2.42,0,0,0,2.43-2.3A2.23,2.23,0,0,0,33.27,22.86Z"/><path class="cls-68" d="M33.27,22.89a2.39,2.39,0,0,0-2.4,2.27A2.21,2.21,0,0,0,33,27.5a2.4,2.4,0,0,0,2.4-2.27A2.2,2.2,0,0,0,33.27,22.89Z"/><path class="cls-69" d="M33.27,22.92a2.36,2.36,0,0,0-2.37,2.24,2.18,2.18,0,0,0,2.15,2.31,2.37,2.37,0,0,0,2.36-2.24A2.18,2.18,0,0,0,33.27,22.92Z"/><path class="cls-70" d="M33.27,23a2.32,2.32,0,0,0-2.34,2.21,2.15,2.15,0,0,0,2.12,2.28,2.34,2.34,0,0,0,2.33-2.21A2.14,2.14,0,0,0,33.27,23Z"/><path class="cls-95" d="M33.26,23A2.3,2.3,0,0,0,31,25.16a2.13,2.13,0,0,0,2.09,2.25,2.31,2.31,0,0,0,2.3-2.19A2.11,2.11,0,0,0,33.26,23Z"/><path class="cls-72" d="M33.26,23A2.28,2.28,0,0,0,31,25.16a2.09,2.09,0,0,0,2.06,2.22,2.27,2.27,0,0,0,2.27-2.16A2.09,2.09,0,0,0,33.26,23Z"/><path class="cls-73" d="M33.26,23A2.25,2.25,0,0,0,31,25.16a2.06,2.06,0,0,0,2,2.19,2.24,2.24,0,0,0,2.24-2.13A2.06,2.06,0,0,0,33.26,23Z"/><path class="cls-74" d="M33.26,23.07a2.21,2.21,0,0,0-2.21,2.09,2,2,0,0,0,2,2.16,2.2,2.2,0,0,0,2.21-2.1A2,2,0,0,0,33.26,23.07Z"/></g><path class="cls-5" d="M41.1,21.51c-1-.43-2.46.57-3.29,2.24s-.71,3.37.28,3.81,2.46-.57,3.3-2.24S42.09,22,41.1,21.51Z"/><path class="cls-3" d="M38.17,27.58c1,.36,2.41-.63,3.22-2.26a5.46,5.46,0,0,0,.43-1.18s0-.08,0-.12c-.21.56-2.23,3.86-4.22,1.71a10,10,0,0,1-2.44,6.12c-1.65,2.13-5.07,2.83-7.59,2.74-6-.24-7.53-2.09-8.68-4.59h0a4.42,4.42,0,0,0,.15.48v.05c.06.15.11.31.17.46l0,.05.21.46h0c.07.16.16.32.24.47h0c.08.14.18.29.27.43l0,0a3.68,3.68,0,0,0,.3.39l0,.06c.11.13.22.26.34.38l0,0c.12.13.25.25.38.37h0a4.78,4.78,0,0,0,.42.34l.07,0a5,5,0,0,0,.45.3l.08,0,.5.26.07,0,.56.24h0c.19.08.4.14.61.21l.09,0,.64.16.12,0q.34.08.69.12h.11a6.43,6.43,0,0,0,.78.08C35,36.22,37.58,32.68,38.17,27.58Z"/><path class="cls-96" d="M21.54,18.26s-.45,2.08-.56,3.37l4.2,1.31s2-3.58,1.75-5.86l-4,.18Z"/><path class="cls-3" d="M38.78,24.52l.94.18a2.9,2.9,0,0,1,1.54-2.17C39.54,21.77,38.78,24.52,38.78,24.52Z"/><path class="cls-96" d="M30.72,17.12A6.75,6.75,0,0,0,31,22.65l4.89-1a3.39,3.39,0,0,0,.65-2.73C36,16.52,30.72,17.12,30.72,17.12Z"/><path class="cls-97" d="M33.72,20.46A3,3,0,0,0,31,22.59s.34.54,2.48.31,2.41-1.28,2.41-1.28A1.88,1.88,0,0,0,33.72,20.46Z"/><path class="cls-97" d="M21,21.63s-.26.33,1.88.83c1.84.42,2.32.48,2.32.48S23.35,18,21,21.63Z"/><path class="cls-98" d="M22.48,22.36l.38.1,1.38.3a2,2,0,0,0,.13-.29,2.24,2.24,0,0,0,.14-.86,4.85,4.85,0,0,0-.35-.48h0a2.71,2.71,0,0,0-.41-.42,1.65,1.65,0,0,0-1.16,1.16A2.29,2.29,0,0,0,22.48,22.36Z"/><path class="cls-99" d="M33.47,22.9l.41-.06a2.29,2.29,0,0,0,.1-.23c.29-.8.13-1.58-.37-1.74s-1.12.34-1.41,1.14a2.25,2.25,0,0,0-.13.93A7.75,7.75,0,0,0,33.47,22.9Z"/><path class="cls-100" d="M23.15,20.09A2.06,2.06,0,0,0,21,21.63s.39-.78,1.89-.68,2.31,2,2.31,2S25.4,20.37,23.15,20.09Z"/><path class="cls-100" d="M21.54,18.26c2.42-1.63,4.29.66,5.22,0,.35-.25.17-1.16.17-1.16C22.13,16,21.54,18.26,21.54,18.26Z"/><path class="cls-100" d="M30.72,17.12a2,2,0,0,0,.23,1c.74.91,3.76-1.37,5.61.9C36.56,19,36.11,15.69,30.72,17.12Z"/><path class="cls-100" d="M33.48,20.34A2.82,2.82,0,0,0,31,22.59s.49-1.22,2.61-1.4c1.95-.17,2.28.43,2.28.43A2,2,0,0,0,33.48,20.34Z"/><path class="cls-101" d="M27.74,28.53c-2.93,0-4.1-.83-4.48-1.19a.06.06,0,0,0-.09.06c.26.82,1.35,3.52,4.38,3.52a5.47,5.47,0,0,0,4.65-3,.12.12,0,0,0-.16-.16A8.51,8.51,0,0,1,27.74,28.53Z"/><path class="cls-97" d="M28.24,30.87c.11,0,.22,0,.33-.06l.18,0,.28-.08.17-.06.28-.11.14-.07.28-.14.1-.06.33-.21,0,0a5,5,0,0,0,.65-.54h0a8.93,8.93,0,0,1-.08-1.27,11.92,11.92,0,0,1-3.2.32l-.6,0H27l-.38,0-.18,0-.35,0-.13,0a7.37,7.37,0,0,1-.85-.18h0l-.36-.1h0a4.46,4.46,0,0,1-.6-.23c0,.37-.09.74-.15,1.11l.1.15.08.09.16.2.06.08.22.23.07.06.26.23,0,0a2.83,2.83,0,0,0,.28.2l.07.05.32.18.08,0,.37.16h0a2.77,2.77,0,0,0,.41.12l.08,0,.43.08h.09l.5,0a4.53,4.53,0,0,0,.52,0Z"/><path class="cls-102" d="M27,28.5l-.38,0-.18,0-.35,0-.13,0a7.37,7.37,0,0,1-.85-.18h0l-.36-.1h0a4.46,4.46,0,0,1-.6-.23c0,.37-.09.74-.15,1.11l.06.08.11.16.06.07c0,.06.09.12.15.18a1.58,1.58,0,0,1,.24-.15c.87-.61,5.53-.69,6.1.47a2.67,2.67,0,0,0,.35-.31h0a8.93,8.93,0,0,1-.08-1.27,11.92,11.92,0,0,1-3.2.32l-.6,0Z"/><path class="cls-101" d="M32.06,27.53h0Z"/><path class="cls-103" d="M29.94,6C17.85,6,19,22.68,19,22.68c.72-4.18,3.11-11.95,5.95-11.84a6.45,6.45,0,0,0,3.76,1.31,13.26,13.26,0,0,0,4.93-1.46c3.51.07,4,7.17,4.08,12.29,0,1.17,1.29-.84,1.29-.84S41.24,6,29.94,6Z"/><path class="cls-104" d="M34.75,6.91Z"/><polygon class="cls-104" points="34.73 6.91 34.73 6.91 34.73 6.91 34.73 6.91"/><path class="cls-5" d="M27.13,21.07s.22,2.76-1.16,3-2.51,2.42,1.8,2.43c4.11,0,3.21-1.93,1.95-2.23s-.45-3.19-.45-3.19Z"/><path class="cls-105" d="M28.27,21.07H27.13s.22,2.76-1.16,3a1.63,1.63,0,0,0-1.09.71,9.43,9.43,0,0,0,2.72.42A9.58,9.58,0,0,0,28.27,21.07Z"/><path class="cls-3" d="M24.73,25.24c0,.62.74,1.25,3,1.25s2.94-.54,3-1.1A12,12,0,0,1,24.73,25.24Z"/><path class="cls-106" d="M37.55,16.05a1.07,1.07,0,0,1,.08-.32v0a1.35,1.35,0,0,1,.29-.74,32.87,32.87,0,0,0-.59-3.48c-.15-1.23-1.36-2.26-3-2.92l-7.94-.22a6.88,6.88,0,0,0-3.72,2.75c-.42.93-.94,2.18-1.46,3.61,1.41.08,10.37.45,13.11-2.74,0,0,.52,3.34,3.1,4.43C37.42,16.34,37.5,16.17,37.55,16.05Z"/><path class="cls-107" d="M26.76,31.69a4.48,4.48,0,0,0,1.63,0,.51.51,0,0,1,.59.66c-.13.34-.5.65-1.43.65s-1.16-.22-1.33-.48A.54.54,0,0,1,26.76,31.69Z"/><path class="cls-97" d="M23.49,21.83c0,.14-.27.28-.61.3s-.62-.07-.62-.22.26-.28.6-.31S23.49,21.68,23.49,21.83Z"/><path class="cls-97" d="M33.08,22c.06.16-.17.41-.53.56s-.69.15-.75,0,.17-.42.52-.57S33,21.86,33.08,22Z"/><path class="cls-108" d="M18.71,13.65a36.74,36.74,0,0,1,.35,5.71,36.45,36.45,0,0,1-.23,4.09s1.47-7.33,3.6-9.9c1.83-2.21-3.19-.78-3.19-.78Z"/><path class="cls-103" d="M37.7,7.25c-2.19,2.24-9.12-8-15.36-3.5-5,3.58-4.91,10.14-4.91,10.14s13.28,1.5,17.16-3c0,0,.92,4,2.78,5.56C38,17,40.37,7.82,37.7,7.25Z"/><path class="cls-103" d="M37.68,7.27c-.19.66-1.81.71-2.44,1l1.08.5,2.68,13s.82-7.81,2.66-11.31C41.66,10.43,40,6.86,37.68,7.27Z"/><path class="cls-108" d="M34.59,10.89s.92,4,2.78,5.56c-1.16-1.06-2.17-7.08-2.17-7.08a14.88,14.88,0,0,1-6.59,3.11c-3.08.66-7.49-1-9.07-.84s-2.11,2.25-2.11,2.25S30.71,15.39,34.59,10.89Z"/><path class="cls-103" d="M38,6.57c-.74.11-.93.47-.93.47a3.57,3.57,0,0,0,.25-2.31,2.26,2.26,0,0,0-1.37,2c-.65-1.49-2.82-2-2.82-2a4.39,4.39,0,0,0,1.36,2.53L35.56,9l2.36-.37-.2-1.05A1.28,1.28,0,0,0,38,6.57Z"/><path class="cls-104" d="M39,8.79a8.68,8.68,0,0,1,1.47.39c.2.08.39.15.56.23A6.88,6.88,0,0,0,39.79,8l-.46-.17a7.64,7.64,0,0,0-2-.38,8.67,8.67,0,0,0-1.14,0l-.57.06-.5,0a6.2,6.2,0,0,1-2-.21,8.4,8.4,0,0,1-1.94-.83,20.58,20.58,0,0,1-1.86-1.23c-.63-.43-1.25-.89-1.9-1.29a11,11,0,0,0-1-.58l-.23-.12L26,3.17l-.14-.06c-.19-.09-.38-.15-.57-.22a5.76,5.76,0,0,0-.81-.15,6.07,6.07,0,0,0-2.17,1,10.86,10.86,0,0,0-1.88,1.74l.35-.19a6.06,6.06,0,0,1,2.4-.75,4,4,0,0,1,1.46.21c.13,0,.26.09.38.15l.1,0,.1,0,.23.11c.27.14.57.31.87.49.59.37,1.2.79,1.85,1.22a19.7,19.7,0,0,0,2.08,1.24,8.92,8.92,0,0,0,2.4.86A7.44,7.44,0,0,0,35.21,9c.2,0,.4-.06.6-.1l.51-.11a7.46,7.46,0,0,1,1-.11A7.82,7.82,0,0,1,39,8.79Z"/><path class="cls-109" d="M8.16,48.24a28.34,28.34,0,0,0,8.54,5.95c.78-1.75,1.52-3.21,2.07-4.2L20.38,38.7C20.15,39.11,13.49,38.77,8.16,48.24Z"/><path class="cls-3" d="M37.44,45l.31-6.58C32.5,36.8,25.21,36.81,20,39l-.29,6Z"/><path class="cls-109" d="M39.77,38.88h0a6.4,6.4,0,0,0-.66-.23l-.09,0c-.24-.07-.48-.14-.74-.19l-.16,0-.86-.23c-.76,3-5,4.52-7.69,4.6-3.56.1-7.21-1.2-8.95-4.34a16.89,16.89,0,0,0-5.76,2.75c-2,1.83-2.46,5.43-2.75,10.41a28.34,28.34,0,0,0,32,.32c.08-1.52.16-2.92.22-4.15C44.41,46.82,44.84,40.91,39.77,38.88Z"/><path class="cls-109" d="M50.66,45.82a14.67,14.67,0,0,0-3.57-3.59A22.34,22.34,0,0,0,36.87,38c.84,2.17,1.9,9.3,3.66,15.91A28.57,28.57,0,0,0,50.66,45.82Z"/><path class="cls-110" d="M21.63,37.6s.91,4.11,7,4S36,37.45,36,37.45l2.89.58s-1.18,5.81-10.58,5.82c-8.89,0-9.23-5.44-9.23-5.44Z"/></svg>