<svg id="Layer_1" data-name="Layer 1" xmlns="http://www.w3.org/2000/svg" xmlns:xlink="http://www.w3.org/1999/xlink" viewBox="0 0 56.69 56.69"><defs><style>.cls-1{fill:#afc6d2;}.cls-2{fill:#6b7db7;}.cls-3,.cls-77{fill:#d58a77;}.cls-4{fill:#330d00;}.cls-5{fill:#e49c84;}.cls-6{opacity:0.38;}.cls-7{fill:#e49b83;}.cls-8{fill:#e39a82;}.cls-9{fill:#e39981;}.cls-10{fill:#e39881;}.cls-11{fill:#e39780;}.cls-12{fill:#e2967f;}.cls-13{fill:#e2957e;}.cls-14{fill:#e2947d;}.cls-15{fill:#e2937d;}.cls-16{fill:#e2927c;}.cls-17{fill:#e1927b;}.cls-18{fill:#e1917a;}.cls-19{fill:#e19079;}.cls-20{fill:#e18f79;}.cls-21{fill:#e18e78;}.cls-22{fill:#e08d77;}.cls-23{fill:#e08c76;}.cls-24{fill:#e08b76;}.cls-25{fill:#e08a75;}.cls-26{fill:#e08974;}.cls-27{fill:#df8973;}.cls-28{fill:#df8873;}.cls-29{fill:#df8772;}.cls-30{fill:#df8671;}.cls-31{fill:#df8570;}.cls-32{fill:#de8470;}.cls-33{fill:#de836f;}.cls-34{fill:#de826e;}.cls-35{fill:#de816d;}.cls-36{fill:#de806d;}.cls-37{fill:#dd806c;}.cls-38{fill:#dd7f6b;}.cls-39{fill:#dd7e6a;}.cls-40{fill:#dd7d6a;}.cls-41{fill:#dd7c69;}.cls-42{fill:#dc7b68;}.cls-43{fill:#dc7a68;}.cls-44{fill:#dc7967;}.cls-45{fill:#dc7866;}.cls-46{fill:#dc7766;}.cls-47{fill:#dc7765;}.cls-48{fill:#db7664;}.cls-49{fill:#db7564;}.cls-50{fill:#db7463;}.cls-51{fill:#db7362;}.cls-52{fill:#db7261;}.cls-53{fill:#da7161;}.cls-54{fill:#da7060;}.cls-55{fill:#da6f5f;}.cls-56{fill:#da6e5f;}.cls-57{fill:#da6d5e;}.cls-58{fill:#da6c5d;}.cls-59{fill:#d96b5d;}.cls-60{fill:#d96b5c;}.cls-61{fill:#d96a5b;}.cls-62{fill:#d9695b;}.cls-63{fill:#d9685a;}.cls-64{fill:#d86759;}.cls-65{fill:#d86659;}.cls-66{fill:#d86558;}.cls-67{fill:#d86458;}.cls-68{fill:#d86357;}.cls-69{fill:#d86256;}.cls-70{fill:#d76156;}.cls-71{fill:#d76055;}.cls-72{fill:#d75f54;}.cls-73{fill:#d75d54;}.cls-74{fill:#d75c53;}.cls-75{fill:#d75b52;}.cls-76{fill:#d65a52;}.cls-77{opacity:0.52;}.cls-78,.cls-80,.cls-85,.cls-87{fill:#fff;}.cls-79{fill:url(#_ÂÁ_Ï_ÌÌ_È_ËÂÌÚ_9);}.cls-80{opacity:0.6;}.cls-81{fill:url(#_ÂÁ_Ï_ÌÌ_È_ËÂÌÚ_9-2);}.cls-82{fill:#3e2c26;}.cls-83{fill:#663330;}.cls-84{fill:#bab5a3;opacity:0.35;}.cls-85{opacity:0.2;}.cls-86{fill:#49362e;}.cls-87{opacity:0.12;}.cls-88{fill:#e6903c;opacity:0.11;}.cls-89{opacity:0.16;}.cls-90{fill:#d5dee5;}.cls-91{fill:#05293e;opacity:0.08;}.cls-92{fill:#7185be;}.cls-93{fill:#a6aebe;}</style><linearGradient id="_ÂÁ_Ï_ÌÌ_È_ËÂÌÚ_9" x1="15.39" y1="45.21" x2="16.48" y2="42.31" gradientTransform="matrix(1, -0.07, 0.07, 1, 3.94, -19.81)" gradientUnits="userSpaceOnUse"><stop offset="0" stop-color="#563235"/><stop offset="1"/></linearGradient><linearGradient id="_ÂÁ_Ï_ÌÌ_È_ËÂÌÚ_9-2" x1="25" y1="46.65" x2="26.08" y2="43.38" xlink:href="#_ÂÁ_Ï_ÌÌ_È_ËÂÌÚ_9"/></defs><circle class="cls-1" cx="28.35" cy="28.35" r="28.35"/><path class="cls-2" d="M7.58,47.63A28.47,28.47,0,0,0,16.31,54c2.3-3.28,4.07-6.13,4.16-6.28L17,40.1C13.07,41.25,9.93,44.47,7.58,47.63Z"/><path class="cls-3" d="M16.82,21.8c-1.13.37-1.64,2-1.13,3.69s1.83,2.71,3,2.34,1.64-2,1.14-3.69S18,21.42,16.82,21.8Z"/><path class="cls-3" d="M28.13,29h0c-2.46,0-4.38.79-4.41,2.54L23,39.94c0,1.75,2.45,2,4.91,2.06s4.46-.24,4.48-2l-.12-7.86C32.28,30.39,30.58,29.08,28.13,29Z"/><path class="cls-4" d="M24.1,6.79v0Z"/><path class="cls-5" d="M36.58,11.9c-.64-3.92-11.72-5.78-15-.39a47.85,47.85,0,0,0-3.29,11.81v-.08s-3,12.32,8,13.09S38.45,31.31,38,24.1h0A52.81,52.81,0,0,0,36.58,11.9Z"/><g class="cls-6"><path class="cls-5" d="M22.2,21.34a4.13,4.13,0,0,0-4,4.24,4.13,4.13,0,0,0,3.88,4.35,4.13,4.13,0,0,0,4-4.24A4.12,4.12,0,0,0,22.2,21.34Z"/><path class="cls-7" d="M22.2,21.37a4.09,4.09,0,0,0-4,4.21,4.1,4.1,0,0,0,3.85,4.32,4.11,4.11,0,0,0,4-4.21A4.11,4.11,0,0,0,22.2,21.37Z"/><path class="cls-8" d="M22.2,21.4a4.08,4.08,0,0,0-3.95,4.18,4.08,4.08,0,0,0,3.83,4.29,4.08,4.08,0,0,0,4-4.18A4.07,4.07,0,0,0,22.2,21.4Z"/><path class="cls-9" d="M22.2,21.43a4,4,0,0,0-3.92,4.15,4,4,0,0,0,3.8,4.26A4.05,4.05,0,0,0,26,25.69,4,4,0,0,0,22.2,21.43Z"/><path class="cls-10" d="M22.2,21.46a4,4,0,0,0-3.89,4.12,4,4,0,0,0,3.77,4.22A4,4,0,0,0,26,25.69,4,4,0,0,0,22.2,21.46Z"/><path class="cls-11" d="M22.2,21.49a4,4,0,0,0-3.86,4.09,4,4,0,0,0,3.74,4.19,4,4,0,0,0,3.86-4.09A4,4,0,0,0,22.2,21.49Z"/><path class="cls-12" d="M22.2,21.52a4,4,0,0,0-3.83,4.06,4,4,0,0,0,3.71,4.16,4,4,0,0,0,3.84-4.06A4,4,0,0,0,22.2,21.52Z"/><path class="cls-13" d="M22.2,21.55a3.92,3.92,0,0,0-3.8,4,3.92,3.92,0,0,0,3.69,4.13,3.92,3.92,0,0,0,3.8-4A3.93,3.93,0,0,0,22.2,21.55Z"/><path class="cls-14" d="M22.2,21.58a3.89,3.89,0,0,0-3.78,4,3.9,3.9,0,0,0,3.67,4.1,3.89,3.89,0,0,0,3.77-4A3.9,3.9,0,0,0,22.2,21.58Z"/><path class="cls-15" d="M22.2,21.61a3.87,3.87,0,0,0-3.75,4,3.87,3.87,0,0,0,3.64,4.07,3.87,3.87,0,0,0,3.74-4A3.87,3.87,0,0,0,22.2,21.61Z"/><path class="cls-16" d="M22.2,21.64a3.84,3.84,0,0,0-3.72,3.94,3.84,3.84,0,0,0,3.61,4,3.83,3.83,0,0,0,3.71-3.94A3.84,3.84,0,0,0,22.2,21.64Z"/><path class="cls-17" d="M22.2,21.67a3.82,3.82,0,0,0-3.69,3.91,3.81,3.81,0,0,0,3.58,4,3.8,3.8,0,0,0,3.68-3.91A3.8,3.8,0,0,0,22.2,21.67Z"/><path class="cls-18" d="M22.2,21.71a3.76,3.76,0,0,0-3.66,3.87,3.78,3.78,0,0,0,3.55,4,3.78,3.78,0,0,0,3.66-3.88A3.77,3.77,0,0,0,22.2,21.71Z"/><path class="cls-19" d="M22.2,21.74a3.75,3.75,0,0,0-3.64,3.84,3.76,3.76,0,0,0,3.53,4,3.75,3.75,0,0,0,3.63-3.85A3.74,3.74,0,0,0,22.2,21.74Z"/><path class="cls-20" d="M22.19,21.77a3.71,3.71,0,0,0-3.6,3.81,3.72,3.72,0,0,0,3.5,3.92,3.72,3.72,0,0,0,3.6-3.82A3.72,3.72,0,0,0,22.19,21.77Z"/><path class="cls-21" d="M22.19,21.8a3.69,3.69,0,0,0-3.57,3.78,3.69,3.69,0,0,0,3.47,3.89,3.7,3.7,0,0,0,3.57-3.79A3.68,3.68,0,0,0,22.19,21.8Z"/><path class="cls-22" d="M22.19,21.83a3.65,3.65,0,0,0-3.54,3.75,3.66,3.66,0,0,0,3.44,3.86,3.66,3.66,0,0,0,3.54-3.76A3.65,3.65,0,0,0,22.19,21.83Z"/><ellipse class="cls-23" cx="22.14" cy="25.63" rx="3.77" ry="3.46" transform="translate(-3.79 47.42) rotate(-89.21)"/><ellipse class="cls-24" cx="22.14" cy="25.63" rx="3.74" ry="3.44" transform="translate(-3.79 47.42) rotate(-89.21)"/><ellipse class="cls-25" cx="22.14" cy="25.63" rx="3.71" ry="3.41" transform="translate(-3.79 47.42) rotate(-89.21)"/><ellipse class="cls-26" cx="22.14" cy="25.63" rx="3.68" ry="3.38" transform="translate(-3.79 47.42) rotate(-89.21)"/><ellipse class="cls-27" cx="22.14" cy="25.63" rx="3.65" ry="3.35" transform="translate(-3.79 47.42) rotate(-89.21)"/><ellipse class="cls-28" cx="22.14" cy="25.63" rx="3.62" ry="3.32" transform="translate(-3.79 47.42) rotate(-89.21)"/><ellipse class="cls-29" cx="22.14" cy="25.63" rx="3.59" ry="3.3" transform="translate(-3.79 47.42) rotate(-89.21)"/><ellipse class="cls-30" cx="22.14" cy="25.63" rx="3.56" ry="3.27" transform="translate(-3.79 47.42) rotate(-89.21)"/><ellipse class="cls-31" cx="22.14" cy="25.63" rx="3.53" ry="3.24" transform="translate(-3.79 47.42) rotate(-89.21)"/><ellipse class="cls-32" cx="22.14" cy="25.63" rx="3.5" ry="3.21" transform="translate(-3.79 47.42) rotate(-89.21)"/><ellipse class="cls-33" cx="22.14" cy="25.63" rx="3.47" ry="3.18" transform="translate(-3.79 47.42) rotate(-89.21)"/><ellipse class="cls-34" cx="22.14" cy="25.63" rx="3.44" ry="3.15" transform="translate(-3.79 47.42) rotate(-89.21)"/><ellipse class="cls-35" cx="22.14" cy="25.63" rx="3.41" ry="3.13" transform="translate(-3.79 47.42) rotate(-89.21)"/><ellipse class="cls-36" cx="22.14" cy="25.63" rx="3.38" ry="3.1" transform="translate(-3.79 47.42) rotate(-89.21)"/><ellipse class="cls-37" cx="22.14" cy="25.63" rx="3.34" ry="3.07" transform="translate(-3.79 47.42) rotate(-89.21)"/><ellipse class="cls-38" cx="22.14" cy="25.63" rx="3.31" ry="3.04" transform="translate(-3.79 47.42) rotate(-89.21)"/><ellipse class="cls-39" cx="22.14" cy="25.63" rx="3.28" ry="3.01" transform="translate(-3.79 47.42) rotate(-89.21)"/><ellipse class="cls-40" cx="22.14" cy="25.63" rx="3.25" ry="2.99" transform="translate(-3.79 47.42) rotate(-89.21)"/><ellipse class="cls-41" cx="22.14" cy="25.63" rx="3.22" ry="2.96" transform="translate(-3.79 47.42) rotate(-89.21)"/><ellipse class="cls-42" cx="22.14" cy="25.63" rx="3.19" ry="2.93" transform="translate(-3.79 47.42) rotate(-89.21)"/><ellipse class="cls-43" cx="22.14" cy="25.63" rx="3.16" ry="2.9" transform="translate(-3.79 47.42) rotate(-89.21)"/><ellipse class="cls-44" cx="22.14" cy="25.63" rx="3.13" ry="2.87" transform="translate(-3.79 47.42) rotate(-89.21)"/><ellipse class="cls-45" cx="22.14" cy="25.63" rx="3.1" ry="2.85" transform="translate(-3.79 47.42) rotate(-89.21)"/><ellipse class="cls-46" cx="22.14" cy="25.63" rx="3.07" ry="2.82" transform="translate(-3.79 47.42) rotate(-89.21)"/><ellipse class="cls-47" cx="22.14" cy="25.63" rx="3.04" ry="2.79" transform="translate(-3.79 47.42) rotate(-89.21)"/><ellipse class="cls-48" cx="22.14" cy="25.63" rx="3.01" ry="2.76" transform="translate(-3.79 47.42) rotate(-89.21)"/><ellipse class="cls-49" cx="22.14" cy="25.63" rx="2.98" ry="2.73" transform="translate(-3.79 47.42) rotate(-89.21)"/><ellipse class="cls-50" cx="22.14" cy="25.63" rx="2.95" ry="2.7" transform="translate(-3.79 47.42) rotate(-89.21)"/><ellipse class="cls-51" cx="22.14" cy="25.63" rx="2.91" ry="2.68" transform="translate(-3.79 47.42) rotate(-89.21)"/><ellipse class="cls-52" cx="22.14" cy="25.63" rx="2.88" ry="2.65" transform="translate(-3.79 47.42) rotate(-89.21)"/><ellipse class="cls-53" cx="22.14" cy="25.63" rx="2.85" ry="2.62" transform="translate(-3.79 47.42) rotate(-89.21)"/><ellipse class="cls-54" cx="22.14" cy="25.63" rx="2.82" ry="2.59" transform="translate(-3.79 47.42) rotate(-89.21)"/><path class="cls-55" d="M22.18,22.84a2.8,2.8,0,0,0-.08,5.58,2.8,2.8,0,0,0,.08-5.58Z"/><path class="cls-56" d="M22.18,22.87a2.77,2.77,0,0,0-.08,5.52,2.77,2.77,0,0,0,.08-5.52Z"/><path class="cls-57" d="M22.18,22.9a2.74,2.74,0,0,0-.08,5.46,2.74,2.74,0,0,0,.08-5.46Z"/><path class="cls-58" d="M22.18,22.93a2.71,2.71,0,0,0-.08,5.4,2.71,2.71,0,0,0,.08-5.4Z"/><path class="cls-59" d="M22.18,23a2.68,2.68,0,0,0-.08,5.34A2.68,2.68,0,0,0,22.18,23Z"/><path class="cls-60" d="M22.18,23a2.65,2.65,0,0,0-.07,5.28A2.65,2.65,0,0,0,22.18,23Z"/><path class="cls-61" d="M22.18,23a2.62,2.62,0,0,0-.07,5.22A2.62,2.62,0,0,0,22.18,23Z"/><path class="cls-62" d="M22.18,23.06a2.58,2.58,0,0,0-.07,5.15,2.58,2.58,0,0,0,.07-5.15Z"/><path class="cls-63" d="M22.18,23.09a2.55,2.55,0,1,0,2.3,2.57A2.45,2.45,0,0,0,22.18,23.09Z"/><path class="cls-64" d="M22.18,23.12a2.52,2.52,0,1,0,2.27,2.54A2.42,2.42,0,0,0,22.18,23.12Z"/><path class="cls-65" d="M22.18,23.15a2.49,2.49,0,1,0,2.24,2.51A2.39,2.39,0,0,0,22.18,23.15Z"/><path class="cls-66" d="M22.18,23.18a2.47,2.47,0,1,0,2.21,2.48A2.36,2.36,0,0,0,22.18,23.18Z"/><path class="cls-67" d="M22.17,23.21a2.43,2.43,0,0,0-.06,4.85,2.43,2.43,0,0,0,.06-4.85Z"/><path class="cls-68" d="M22.17,23.24a2.4,2.4,0,1,0,2.17,2.42A2.3,2.3,0,0,0,22.17,23.24Z"/><path class="cls-69" d="M22.17,23.27a2.37,2.37,0,1,0,2.14,2.39A2.28,2.28,0,0,0,22.17,23.27Z"/><path class="cls-70" d="M22.17,23.3a2.34,2.34,0,1,0,2.11,2.36A2.24,2.24,0,0,0,22.17,23.3Z"/><path class="cls-71" d="M22.17,23.33a2.31,2.31,0,1,0,2.08,2.33A2.22,2.22,0,0,0,22.17,23.33Z"/><path class="cls-72" d="M22.17,23.36a2.28,2.28,0,1,0,2.06,2.3A2.18,2.18,0,0,0,22.17,23.36Z"/><path class="cls-73" d="M22.17,23.39a2.25,2.25,0,1,0,2,2.27A2.15,2.15,0,0,0,22.17,23.39Z"/><path class="cls-74" d="M22.17,23.42a2.22,2.22,0,1,0,2,2.24A2.13,2.13,0,0,0,22.17,23.42Z"/><path class="cls-75" d="M22.17,23.45a2.19,2.19,0,1,0,2,2.21A2.1,2.1,0,0,0,22.17,23.45Z"/><path class="cls-76" d="M22.17,23.48a2.16,2.16,0,1,0,1.94,2.18A2.08,2.08,0,0,0,22.17,23.48Z"/></g><g class="cls-6"><path class="cls-5" d="M32.87,21.48a4.3,4.3,0,1,0,4.24,4.36A4.3,4.3,0,0,0,32.87,21.48Z"/><path class="cls-7" d="M32.87,21.51a4.27,4.27,0,1,0,4.21,4.33A4.27,4.27,0,0,0,32.87,21.51Z"/><path class="cls-8" d="M32.87,21.55a4.23,4.23,0,1,0,4.18,4.29A4.22,4.22,0,0,0,32.87,21.55Z"/><path class="cls-9" d="M32.87,21.58A4.2,4.2,0,1,0,37,25.84,4.19,4.19,0,0,0,32.87,21.58Z"/><path class="cls-10" d="M32.87,21.61A4.17,4.17,0,1,0,37,25.84,4.17,4.17,0,0,0,32.87,21.61Z"/><path class="cls-11" d="M32.87,21.64A4.14,4.14,0,1,0,37,25.84,4.14,4.14,0,0,0,32.87,21.64Z"/><path class="cls-12" d="M32.87,21.67a4.11,4.11,0,1,0,4.05,4.17A4.11,4.11,0,0,0,32.87,21.67Z"/><path class="cls-13" d="M32.87,21.7a4.08,4.08,0,1,0,4,4.14A4.08,4.08,0,0,0,32.87,21.7Z"/><path class="cls-14" d="M32.87,21.73a4.05,4.05,0,1,0,4,4.1A4.05,4.05,0,0,0,32.87,21.73Z"/><path class="cls-15" d="M32.87,21.76a4,4,0,1,0,4,4.07A4,4,0,0,0,32.87,21.76Z"/><path class="cls-16" d="M32.87,21.79a4,4,0,1,0,3.93,4A4,4,0,0,0,32.87,21.79Z"/><path class="cls-17" d="M32.87,21.82a4,4,0,1,0,3.9,4A4,4,0,0,0,32.87,21.82Z"/><path class="cls-18" d="M32.87,21.85a3.93,3.93,0,1,0,3.87,4A3.94,3.94,0,0,0,32.87,21.85Z"/><path class="cls-19" d="M32.87,21.88a3.9,3.9,0,1,0,3.84,3.95A3.89,3.89,0,0,0,32.87,21.88Z"/><path class="cls-20" d="M32.86,21.91a3.87,3.87,0,1,0,3.82,3.92A3.86,3.86,0,0,0,32.86,21.91Z"/><path class="cls-21" d="M32.86,21.94a3.84,3.84,0,1,0,3.79,3.89A3.85,3.85,0,0,0,32.86,21.94Z"/><path class="cls-22" d="M32.86,22a3.81,3.81,0,1,0,3.76,3.86A3.81,3.81,0,0,0,32.86,22Z"/><path class="cls-23" d="M32.86,22a3.77,3.77,0,1,0,3.73,3.82A3.77,3.77,0,0,0,32.86,22Z"/><path class="cls-24" d="M32.86,22a3.74,3.74,0,1,0,3.69,3.79A3.74,3.74,0,0,0,32.86,22Z"/><path class="cls-25" d="M32.86,22.07a3.71,3.71,0,1,0,3.66,3.76A3.71,3.71,0,0,0,32.86,22.07Z"/><path class="cls-26" d="M32.86,22.1a3.68,3.68,0,1,0,3.63,3.73A3.68,3.68,0,0,0,32.86,22.1Z"/><path class="cls-27" d="M32.86,22.13a3.65,3.65,0,1,0,3.6,3.7A3.65,3.65,0,0,0,32.86,22.13Z"/><path class="cls-28" d="M32.86,22.16a3.62,3.62,0,1,0,3.57,3.67A3.62,3.62,0,0,0,32.86,22.16Z"/><path class="cls-29" d="M32.86,22.19a3.59,3.59,0,1,0,3.54,3.64A3.59,3.59,0,0,0,32.86,22.19Z"/><path class="cls-30" d="M32.86,22.22a3.56,3.56,0,1,0,3.51,3.61A3.56,3.56,0,0,0,32.86,22.22Z"/><path class="cls-31" d="M32.86,22.25a3.53,3.53,0,1,0,3.48,3.58A3.53,3.53,0,0,0,32.86,22.25Z"/><path class="cls-32" d="M32.86,22.28a3.5,3.5,0,1,0,3.45,3.55A3.51,3.51,0,0,0,32.86,22.28Z"/><path class="cls-33" d="M32.86,22.31a3.47,3.47,0,1,0,3.42,3.52A3.48,3.48,0,0,0,32.86,22.31Z"/><path class="cls-34" d="M32.86,22.34a3.44,3.44,0,1,0,3.39,3.49A3.43,3.43,0,0,0,32.86,22.34Z"/><path class="cls-35" d="M32.86,22.37a3.41,3.41,0,1,0,3.36,3.46A3.41,3.41,0,0,0,32.86,22.37Z"/><path class="cls-36" d="M32.86,22.4a3.38,3.38,0,1,0,3.33,3.43A3.37,3.37,0,0,0,32.86,22.4Z"/><path class="cls-37" d="M32.86,22.44a3.34,3.34,0,1,0,3.3,3.39A3.33,3.33,0,0,0,32.86,22.44Z"/><path class="cls-38" d="M32.86,22.47a3.31,3.31,0,1,0,3.26,3.35A3.3,3.3,0,0,0,32.86,22.47Z"/><path class="cls-39" d="M32.86,22.5a3.28,3.28,0,1,0,3.23,3.32A3.27,3.27,0,0,0,32.86,22.5Z"/><path class="cls-40" d="M32.86,22.53a3.25,3.25,0,1,0,3.2,3.29A3.24,3.24,0,0,0,32.86,22.53Z"/><path class="cls-41" d="M32.86,22.56A3.22,3.22,0,1,0,36,25.82,3.22,3.22,0,0,0,32.86,22.56Z"/><path class="cls-42" d="M32.86,22.59A3.19,3.19,0,1,0,36,25.82,3.18,3.18,0,0,0,32.86,22.59Z"/><path class="cls-43" d="M32.85,22.62A3.16,3.16,0,1,0,36,25.82,3.17,3.17,0,0,0,32.85,22.62Z"/><path class="cls-44" d="M32.85,22.65a3.13,3.13,0,1,0,3.09,3.17A3.14,3.14,0,0,0,32.85,22.65Z"/><path class="cls-45" d="M32.85,22.68a3.1,3.1,0,1,0,3.06,3.14A3.11,3.11,0,0,0,32.85,22.68Z"/><path class="cls-46" d="M32.85,22.71a3.07,3.07,0,1,0,3,3.11A3.08,3.08,0,0,0,32.85,22.71Z"/><path class="cls-47" d="M32.85,22.74a3,3,0,1,0,3,3.08A3.05,3.05,0,0,0,32.85,22.74Z"/><path class="cls-48" d="M32.85,22.77a3,3,0,1,0,3,3.05A3,3,0,0,0,32.85,22.77Z"/><path class="cls-49" d="M32.85,22.8a3,3,0,1,0,2.94,3A3,3,0,0,0,32.85,22.8Z"/><path class="cls-50" d="M32.85,22.83a2.95,2.95,0,1,0,2.91,3A2.95,2.95,0,0,0,32.85,22.83Z"/><path class="cls-51" d="M32.85,22.86a2.92,2.92,0,1,0,2.88,3A2.92,2.92,0,0,0,32.85,22.86Z"/><path class="cls-52" d="M32.85,22.9a2.88,2.88,0,1,0,2.85,2.92A2.87,2.87,0,0,0,32.85,22.9Z"/><path class="cls-53" d="M32.85,22.93a2.85,2.85,0,1,0,2.81,2.89A2.84,2.84,0,0,0,32.85,22.93Z"/><path class="cls-54" d="M32.85,23a2.82,2.82,0,1,0,2.78,2.86A2.82,2.82,0,0,0,32.85,23Z"/><path class="cls-55" d="M32.85,23a2.79,2.79,0,1,0,2.75,2.83A2.79,2.79,0,0,0,32.85,23Z"/><path class="cls-56" d="M32.85,23a2.76,2.76,0,1,0,2.72,2.8A2.76,2.76,0,0,0,32.85,23Z"/><path class="cls-57" d="M32.85,23.05a2.73,2.73,0,1,0,2.69,2.77A2.73,2.73,0,0,0,32.85,23.05Z"/><path class="cls-58" d="M32.85,23.08a2.7,2.7,0,1,0,2.66,2.74A2.7,2.7,0,0,0,32.85,23.08Z"/><path class="cls-59" d="M32.85,23.11a2.67,2.67,0,1,0,2.63,2.71A2.67,2.67,0,0,0,32.85,23.11Z"/><path class="cls-60" d="M32.85,23.14a2.64,2.64,0,1,0,2.6,2.68A2.64,2.64,0,0,0,32.85,23.14Z"/><path class="cls-61" d="M32.85,23.17a2.61,2.61,0,1,0,2.57,2.65A2.61,2.61,0,0,0,32.85,23.17Z"/><path class="cls-62" d="M32.85,23.2a2.58,2.58,0,1,0,2.54,2.61A2.58,2.58,0,0,0,32.85,23.2Z"/><path class="cls-63" d="M32.85,23.23a2.55,2.55,0,1,0,2.51,2.58A2.54,2.54,0,0,0,32.85,23.23Z"/><path class="cls-64" d="M32.85,23.26a2.52,2.52,0,1,0,2.48,2.55A2.51,2.51,0,0,0,32.85,23.26Z"/><path class="cls-65" d="M32.85,23.29a2.49,2.49,0,1,0,2.45,2.52A2.49,2.49,0,0,0,32.85,23.29Z"/><path class="cls-66" d="M32.85,23.32a2.46,2.46,0,1,0,2.42,2.49A2.46,2.46,0,0,0,32.85,23.32Z"/><path class="cls-67" d="M32.84,23.36a2.42,2.42,0,1,0,2.4,2.45A2.42,2.42,0,0,0,32.84,23.36Z"/><path class="cls-68" d="M32.84,23.39a2.39,2.39,0,1,0,2.36,2.42A2.38,2.38,0,0,0,32.84,23.39Z"/><path class="cls-69" d="M32.84,23.42a2.36,2.36,0,1,0,2.33,2.39A2.36,2.36,0,0,0,32.84,23.42Z"/><path class="cls-70" d="M32.84,23.45a2.33,2.33,0,1,0,2.3,2.36A2.33,2.33,0,0,0,32.84,23.45Z"/><path class="cls-71" d="M32.84,23.48a2.3,2.3,0,1,0,2.27,2.33A2.3,2.3,0,0,0,32.84,23.48Z"/><path class="cls-72" d="M32.84,23.51a2.27,2.27,0,1,0,2.24,2.3A2.27,2.27,0,0,0,32.84,23.51Z"/><path class="cls-73" d="M32.84,23.54a2.24,2.24,0,1,0,2.21,2.27A2.24,2.24,0,0,0,32.84,23.54Z"/><path class="cls-74" d="M32.84,23.57A2.21,2.21,0,1,0,35,25.81,2.21,2.21,0,0,0,32.84,23.57Z"/><path class="cls-75" d="M32.84,23.6A2.18,2.18,0,1,0,35,25.81,2.19,2.19,0,0,0,32.84,23.6Z"/><path class="cls-76" d="M32.84,23.63A2.15,2.15,0,1,0,35,25.81,2.15,2.15,0,0,0,32.84,23.63Z"/></g><path class="cls-5" d="M40.34,22.12c-1.12-.4-2.47.61-3,2.26s-.09,3.32,1,3.72,2.48-.61,3-2.26S41.47,22.52,40.34,22.12Z"/><path class="cls-3" d="M40.46,26a2.52,2.52,0,0,1-3.08-.22,11.09,11.09,0,0,1-2.28,6.72c-1.61,2.16-5.07,2.87-7.64,2.77-6.13-.24-7.74-2.11-9-4.64.86,2.77,3,5.34,7.8,5.68,8.94.63,11.41-3.1,11.76-8.4a1.29,1.29,0,0,0,.33.17c1.12.41,2.48-.61,3-2.26a4.72,4.72,0,0,0,.23-1.26A2.72,2.72,0,0,1,40.46,26Z"/><path class="cls-77" d="M20.63,19.33a17.47,17.47,0,0,0-.53,3l4.72.83a11.17,11.17,0,0,0,1.27-7Z"/><path class="cls-3" d="M38.49,25.12l1,.15a2.3,2.3,0,0,1,1.2-2.16C38.76,22.4,38.49,25.12,38.49,25.12Z"/><path class="cls-77" d="M30.8,16.19S28.57,20,30.17,23l5.56.25A9.56,9.56,0,0,0,36,19.56C35.67,18,30.8,16.19,30.8,16.19Z"/><path class="cls-78" d="M33.28,21a3.17,3.17,0,0,0-3.11,2s.37,1.43,2.77,1.46c2.77,0,2.79-1.29,2.79-1.29A2.48,2.48,0,0,0,33.28,21Z"/><path class="cls-78" d="M20.1,22.37s-.37,1.34,2.07,1.47,2.65-.64,2.65-.64S22.5,18.75,20.1,22.37Z"/><path class="cls-79" d="M23.33,21.61c-.51-.16-1.13.35-1.4,1.16a2.1,2.1,0,0,0-.08,1l.32,0a7.44,7.44,0,0,0,1.41-.05,2.54,2.54,0,0,0,.18-.41C24,22.57,23.84,21.78,23.33,21.61Z"/><path class="cls-80" d="M21.62,23l.08.35s1.44-.11,1.3-.77S21.62,23,21.62,23Z"/><path class="cls-81" d="M33.12,21.75c-.5-.17-1.13.35-1.39,1.15a1.82,1.82,0,0,0,0,1.41,4.27,4.27,0,0,0,1.17.15,2.1,2.1,0,0,0,.62-.95C33.83,22.71,33.63,21.92,33.12,21.75Z"/><path class="cls-80" d="M31.4,23.34l0,.36s1.51-.05,1.37-.71S31.4,23.34,31.4,23.34Z"/><path class="cls-4" d="M22.36,20.59a2.26,2.26,0,0,0-2.26,1.78s.38-.76,2-.8a3.44,3.44,0,0,1,2.68,1.63A2.49,2.49,0,0,0,22.36,20.59Z"/><path class="cls-82" d="M20.63,19.33C22.32,18.34,25,19,26,18c.36-.38.14-1.83.14-1.83C21,16.89,20.63,19.33,20.63,19.33Z"/><path class="cls-82" d="M30.8,16.19s-.7,1.13-.44,1.53c.79,1.26,4.27.87,5.63,1.92C36,19.64,36.35,17.22,30.8,16.19Z"/><path class="cls-4" d="M33.19,20.9a2.86,2.86,0,0,0-3,2.1s.77-1.13,3-1,2.53,1.22,2.53,1.22A2.39,2.39,0,0,0,33.19,20.9Z"/><path class="cls-83" d="M27.79,29c-4.3.06-4.81-.88-4.81-.88s-.88,3.49,4.35,3.52c5,0,4.48-3.27,4.44-3.45C31.78,28.24,31.74,28.91,27.79,29Z"/><path class="cls-83" d="M31.77,28.15h0Z"/><path class="cls-78" d="M30.8,28.7a16.13,16.13,0,0,1-3,.27,13.12,13.12,0,0,1-3.88-.37,13.77,13.77,0,0,1-.34,1.79c.59.66,1.7,1.21,3.76,1.22s3.3-.59,3.88-1.31q-.12-.3-.21-.6A5.37,5.37,0,0,1,30.8,28.7Z"/><path class="cls-84" d="M30.8,28.7a16.13,16.13,0,0,1-3,.27,13.12,13.12,0,0,1-3.88-.37c0,.2-.06.4-.09.6,2.27-.61,5,.13,7.28,1.23l.11-.13q-.12-.3-.21-.6A5.37,5.37,0,0,1,30.8,28.7Z"/><path class="cls-5" d="M26.21,24.35a1.31,1.31,0,0,0-2.18.88c-.58,2.05,3.51,3.29,4.65,1.14s-1.79-6.16-1.79-6.16A5.65,5.65,0,0,1,26.21,24.35Z"/><path class="cls-85" d="M26.21,24.35a1.3,1.3,0,0,0-2.14.74,14.67,14.67,0,0,0,2.56.4,11.18,11.18,0,0,0,.73-4l-.35-.1A4.64,4.64,0,0,1,26.21,24.35Z"/><path class="cls-86" d="M28.86,6.39c-11.37.75-9.72,13.35-9.72,13.35.68-3.75,3-8.39,4.81-8.49a6.83,6.83,0,0,0,3.88,1.32,13.22,13.22,0,0,0,5-1.47c2.08,0,4.45,6.38,4.73,11.56.06,1.18,1.09-.18,1.09-.18S40,5.65,28.86,6.39Z"/><path class="cls-86" d="M34.8,7.37C31.44,2.24,20.49,3.73,20.49,3.73c-1.07,5.82,3,7.13,3,7.13S33,9.17,34.41,10.18s4.23,9.15,4.23,9.15,2.43-8.49.64-11.62C38,5.42,34.8,7.37,34.8,7.37Z"/><path class="cls-86" d="M24.72,2.55a3.13,3.13,0,0,0,.71,1.55s11.48,7.8,9.37,3.27S24.72,2.55,24.72,2.55Z"/><path class="cls-86" d="M36.66,5.81c-.65.1-.8.4-.8.4a3.08,3.08,0,0,0,.14-2,1.87,1.87,0,0,0-1.13,1.73,4,4,0,0,0-2.53-1.7,4,4,0,0,0,1.27,2.19l1,1.51,2-.32-.21-.92A1.1,1.1,0,0,0,36.66,5.81Z"/><path class="cls-82" d="M20.79,8.16c-3.34,1-2.37,14.32-2.37,14.32.68-3.75,3.74-11.13,5.53-11.23A11.83,11.83,0,0,1,20.79,8.16Z"/><path class="cls-87" d="M33.79,7.27Z"/><path class="cls-88" d="M38,6.68c-.41.07-.85.17-1.29.27a9.24,9.24,0,0,1-3.27.26,11.2,11.2,0,0,1-3.5-1.3c-.57-.29-1.13-.58-1.72-.83a10,10,0,0,0-4.11-1,5.71,5.71,0,0,0-2,.49,4.24,4.24,0,0,0-1.41.94,3.91,3.91,0,0,0-.39.45,6.51,6.51,0,0,0,.17,1.25l.13-.1a4.77,4.77,0,0,1,.85-.49,3.82,3.82,0,0,1,1.13-.28,10.24,10.24,0,0,1,4.65,1.14c.61.25,1.22.55,1.88.82a20.46,20.46,0,0,0,2,.75A7.17,7.17,0,0,0,35,9.17L35.53,9a10.77,10.77,0,0,0,1.65-.7c.47-.24.88-.47,1.24-.63a4.69,4.69,0,0,1,.67-.27A2,2,0,0,0,38,6.68Z"/><polygon class="cls-87" points="33.76 7.27 33.77 7.27 33.77 7.27 33.76 7.27"/><path class="cls-86" d="M18.42,22.48s-.09,5.27,3.39,5.68c0,0-.86,4.51,5.58,4.56,6.23.06,5.25-4.53,5.25-4.53s4.34,0,4.88-5.71h1.1s-1,3.32-.47,5.3c0,0,1.59,8.82-10.15,9S17.05,28.06,18.42,22.48Z"/><path class="cls-86" d="M26.61,26.37a9.77,9.77,0,0,0-3.78.47c-2.16.65-3,.27-3,.27s.54,1.7,7.24,1.86c5.69.13,7.55-1,7.55-1S31.94,26.27,26.61,26.37Z"/><path class="cls-3" d="M24,25.8c.24,1.69,3.67,2.51,4.7.57a2.39,2.39,0,0,0,.15-.37A10.19,10.19,0,0,1,24,25.8Z"/><path class="cls-89" d="M26.17,33.4a6.35,6.35,0,0,0,2.25.07A.53.53,0,0,1,29,34c0,.48-.24,1.1-1.81,1.08s-1.77-.7-1.7-1.22A.53.53,0,0,1,26.17,33.4Z"/><path class="cls-2" d="M36.2,39.13l1.27,11.3c.51,1,1.17,2.37,1.88,4a28.47,28.47,0,0,0,8.76-5.82C43.07,39.21,36.42,39.54,36.2,39.13Z"/><path class="cls-3" d="M36.61,45.79l-.12-6.58c-5.36-1.57-12.65-1.56-17.77.6l.11,6Z"/><path class="cls-90" d="M38.81,54.69l-.27-15A8.93,8.93,0,0,0,37,39.27l-1.44-.39c-.46,3.07-4.31,3.76-8.53,3.83-3.82.06-5.56-.76-6.29-3.69a21.6,21.6,0,0,0-6.23,2.39l.21,11.81a28.37,28.37,0,0,0,24.06,1.47Z"/><path class="cls-2" d="M13.77,42c-1.66,1.64-2.35,4.66-2.65,8.84A28.12,28.12,0,0,0,24.3,56.4c.39-6.56.76-11.41.84-12.3C25,43.3,22.51,41,22,38.78,19.67,38.78,15.14,40.64,13.77,42Z"/><path class="cls-2" d="M33.93,38.45c-.39,2.63-1.47,2.1-4.56,5.59-.1,1.21-.47,5.91-.82,12.65a28.23,28.23,0,0,0,15.22-4.56c0-1.29,0-2.48-.05-3.54s0-7.93-6.69-9.32Z"/><path class="cls-91" d="M20.74,38.91h0s-1.06,5.22.13,7.49c0,0,.24-3.27,1.69-2.7A6.93,6.93,0,0,1,25,46.28c.05-1.13.09-1.89.12-2.18-.18-.77-2.48-3-3.12-5.12A6.41,6.41,0,0,0,20.74,38.91Z"/><path class="cls-92" d="M22.16,41c0,.11-.75,6.39-1.45,14.63.37.11.74.2,1.12.29.62-7.39,1.28-13.24,1.43-14.51l-.19-.29Z"/><path class="cls-92" d="M31.57,41.85c-.14,1.63-.62,7.4-1,14.75.38,0,.76-.07,1.14-.12.4-8.52,1-14.86,1-15l-.69-.08Z"/><path class="cls-91" d="M33.1,43.7c1.42-.57,1.78,2.7,1.78,2.7,1.11-2.27-.14-7.49-.14-7.49h0a6.74,6.74,0,0,0-.9,0c-.46,2.09-1.59,1.85-4.47,5.1,0,.35-.16,1.47-.21,2.8A19,19,0,0,1,33.1,43.7Z"/><polygon class="cls-92" points="12.2 50.46 12.75 49.26 21.86 47.67 22.06 48.79 12.2 50.46"/><path class="cls-92" d="M25.14,44.1S22,40.29,21.28,42.86c-.49,1.74-.7,2.78-.7,2.78s-1.5-4.41,0-6.54a7,7,0,0,1,2.7-2.57,11.6,11.6,0,0,0,.89,4.67A14.69,14.69,0,0,1,25.14,44.1Z"/><path class="cls-93" d="M24.5,47.33a.71.71,0,0,1-.75.68.74.74,0,0,1-.77-.68.7.7,0,0,1,.75-.67A.74.74,0,0,1,24.5,47.33Z"/><path class="cls-93" d="M23.87,55a.7.7,0,0,1-.74.68.75.75,0,0,1-.78-.68.71.71,0,0,1,.75-.67A.73.73,0,0,1,23.87,55Z"/><polygon class="cls-92" points="40.81 50.46 31.59 48.56 31.8 47.45 41.02 49.35 40.81 50.46"/><path class="cls-92" d="M29.37,44.15s4.16-3.86,5-1.29c.55,1.74.81,2.78.81,2.78s1.34-4.41-.26-6.54-2.58-2.2-2.58-2.2a7.11,7.11,0,0,1-.81,3C30.9,41.34,29.55,42.35,29.37,44.15Z"/><path class="cls-87" d="M24.19,41.2a11.6,11.6,0,0,1-.89-4.67,3.72,3.72,0,0,0-.78.49c-1.12,1.08-.9,3.26-.36,5,1.18,0,3,2.12,3,2.12A14.69,14.69,0,0,0,24.19,41.2Z"/><path class="cls-87" d="M33.29,42a6.39,6.39,0,0,0-1-5.08h0a7.11,7.11,0,0,1-.81,3c-.6,1.4-1.95,2.41-2.13,4.21C29.37,44.15,31.78,41.92,33.29,42Z"/><path class="cls-92" d="M11.23,50.94c.35.27.71.52,1.07.77,1.44-7.57,3.33-10.48,4.1-11.39a5.1,5.1,0,0,0-2.23,1.06A39.8,39.8,0,0,0,11.23,50.94Z"/><path class="cls-92" d="M38.67,39.77a8.52,8.52,0,0,0-1.64-.5l-.17-.05c.75.65,2.63,3.36,4.29,14.41.36-.18.72-.37,1.07-.57C41.06,45.49,39.75,41.67,38.67,39.77Z"/></svg>