<svg id="Layer_1" data-name="Layer 1" xmlns="http://www.w3.org/2000/svg" xmlns:xlink="http://www.w3.org/1999/xlink" viewBox="0 0 56.69 56.69"><defs><style>.cls-1{fill:#afc6d2;}.cls-2{fill:#e69e86;}.cls-3{fill:#ecbf7a;}.cls-4{fill:#1b7672;}.cls-5{fill:#63b9a4;}.cls-6{fill:#e49c84;}.cls-7{fill:#1d7e7d;}.cls-8{opacity:0.08;}.cls-9,.cls-95{fill:#d58a77;}.cls-10,.cls-88{opacity:0.1;}.cls-11{opacity:0.58;}.cls-12{fill:#e49b83;}.cls-13{fill:#e39a82;}.cls-14{fill:#e39982;}.cls-15{fill:#e39881;}.cls-16{fill:#e39780;}.cls-17{fill:#e3977f;}.cls-18{fill:#e2967f;}.cls-19{fill:#e2957e;}.cls-20{fill:#e2947d;}.cls-21{fill:#e2937c;}.cls-22{fill:#e2927c;}.cls-23{fill:#e1917b;}.cls-24{fill:#e1917a;}.cls-25{fill:#e19079;}.cls-26{fill:#e18f79;}.cls-27{fill:#e18e78;}.cls-28{fill:#e08d77;}.cls-29{fill:#e08c76;}.cls-30{fill:#e08b76;}.cls-31{fill:#e08b75;}.cls-32{fill:#e08a74;}.cls-33{fill:#e08974;}.cls-34{fill:#df8873;}.cls-35{fill:#df8772;}.cls-36{fill:#df8672;}.cls-37{fill:#df8671;}.cls-38{fill:#df8570;}.cls-39{fill:#de846f;}.cls-40{fill:#de836f;}.cls-41{fill:#de826e;}.cls-42{fill:#de816d;}.cls-43{fill:#de806c;}.cls-44{fill:#dd7f6b;}.cls-45{fill:#dd7e6b;}.cls-46{fill:#dd7d6a;}.cls-47{fill:#dd7c69;}.cls-48{fill:#dc7b68;}.cls-49{fill:#dc7a67;}.cls-50{fill:#dc7967;}.cls-51{fill:#dc7866;}.cls-52{fill:#dc7765;}.cls-53{fill:#db7664;}.cls-54{fill:#db7564;}.cls-55{fill:#db7463;}.cls-56{fill:#db7362;}.cls-57{fill:#db7262;}.cls-58{fill:#db7161;}.cls-59{fill:#da7160;}.cls-60{fill:#da7060;}.cls-61{fill:#da6f5f;}.cls-62{fill:#da6e5f;}.cls-63{fill:#da6d5e;}.cls-64{fill:#da6c5d;}.cls-65{fill:#d96b5d;}.cls-66{fill:#d96a5c;}.cls-67{fill:#d9695b;}.cls-68{fill:#d9685a;}.cls-69{fill:#d9675a;}.cls-70{fill:#d86659;}.cls-71{fill:#d86558;}.cls-72{fill:#d86458;}.cls-73{fill:#d86357;}.cls-74{fill:#d86257;}.cls-75{fill:#d76156;}.cls-76{fill:#d76055;}.cls-77{fill:#d75f55;}.cls-78{fill:#d75e54;}.cls-79{fill:#d75d54;}.cls-80{fill:#d75c53;}.cls-81{fill:#d75b52;}.cls-82{fill:#d65a52;}.cls-83{opacity:0.65;}.cls-84,.cls-88,.cls-92{fill:#fff;}.cls-85{fill:#330d00;}.cls-86{fill:#663330;}.cls-87{fill:#d0c6b5;opacity:0.3;}.cls-89{fill:url(#_ÂÁ_Ï_ÌÌ_È_ËÂÌÚ_4);}.cls-90{fill:url(#_ÂÁ_Ï_ÌÌ_È_ËÂÌÚ_4-2);}.cls-91{fill:#fecb84;}.cls-92{opacity:0.36;}.cls-93{fill:#e16a6c;}.cls-94{fill:#f17576;}.cls-95{opacity:0.37;}</style><linearGradient id="_ÂÁ_Ï_ÌÌ_È_ËÂÌÚ_4" x1="21.06" y1="25.03" x2="22.46" y2="21.28" gradientUnits="userSpaceOnUse"><stop offset="0" stop-color="#63abac"/><stop offset="1"/></linearGradient><linearGradient id="_ÂÁ_Ï_ÌÌ_È_ËÂÌÚ_4-2" x1="32.24" y1="26.49" x2="33.45" y2="22.82" xlink:href="#_ÂÁ_Ï_ÌÌ_È_ËÂÌÚ_4"/></defs><circle class="cls-1" cx="28.35" cy="28.35" r="28.35"/><path class="cls-2" d="M39.68,49.42,36,51.13l1.37,4.09a28.74,28.74,0,0,0,4.44-1.92Z"/><path class="cls-3" d="M42.16,15.67S38.1,2,27.54,4.19,10.68,19.7,9.27,35C8.33,45.12,21.83,46.47,21.83,46.47s16.85,3.61,20.74-4.77C46.84,32.46,46.25,15.32,42.16,15.67Z"/><path class="cls-4" d="M31.05,40.92a6.78,6.78,0,0,1,4.66.7c2.06,1.32,5.24,8.1,5.24,8.1s-5.7,2.46-5.69,2.33S31.05,40.92,31.05,40.92Z"/><path class="cls-5" d="M34.57,50.18c.41,1.09.69,1.84.69,1.87S41,49.72,41,49.72s-.42-.89-1-2.08C38.13,48.48,36.34,49.31,34.57,50.18Z"/><path class="cls-6" d="M37.06,54.63c-.12-.45-.18-.71-.18-.71l.24-.21c-.69-1.57-1.37-3.15-2-4.72s-1.31-3.09-1.92-4.66c-.28-.56-.58-1.11-.89-1.66s-.85-1.3-1.15-2a69.24,69.24,0,0,0-8.93.41c-.63,1.83-1.13,3.69-1.93,5.48-.06.14-.13.27-.19.41.75,2.32,1.61,5.1,2.35,7.66Z"/><path class="cls-7" d="M34.83,46.6c-1.52-1-1.86-5.72-4.38-6,0,.86,1.46,3.93.87,4.53a3.86,3.86,0,0,1-2.63,1.25,4.47,4.47,0,0,1-2.75-1c-1.51-1.07-2.26-2.78-3-4.42l-.76.08c-.63,1.83-1.13,3.69-1.93,5.48-.06.14-.5.53-.56.66.88,2.73,2,6,2.91,8.89a28.68,28.68,0,0,0,5.75.58A28.21,28.21,0,0,0,38,55a16.9,16.9,0,0,1,.44-1.82C38.84,51.72,38.61,49,34.83,46.6Z"/><path class="cls-8" d="M28.24,52.34c-2.64-.4-6.12-1.46-8-3.59.78,2.38,1.68,5,2.41,7.36a28.68,28.68,0,0,0,5.75.58A28.21,28.21,0,0,0,38,55a16.9,16.9,0,0,1,.44-1.82A4.11,4.11,0,0,0,38.55,52,27.43,27.43,0,0,1,28.24,52.34Z"/><path class="cls-2" d="M15.67,53.7a28.73,28.73,0,0,0,3.48,1.46,27.13,27.13,0,0,0,1.78-7.24l-3.18-.54A62.91,62.91,0,0,1,15.67,53.7Z"/><path class="cls-7" d="M18.46,43.88c-1,2-2.75,7.45-2.75,7.45l5.14,1.2,1.33-11.45A5,5,0,0,0,18.46,43.88Z"/><path class="cls-5" d="M21.43,51.43,16,49.72l-.59,1.91,5.49,1.65s.62-1.8.58-1.85Z"/><path class="cls-5" d="M30,40.54s3.22,5.1-1.1,5.31c-3.58.18-5.71-5-5.71-5l-1.18.22s1.34,7.53,7.78,6.13,1.85-6.6,1.85-6.6Z"/><path class="cls-9" d="M16.35,22.15c-1.19.28-1.86,1.94-1.49,3.7s1.65,2.95,2.84,2.67,1.87-1.94,1.5-3.7S17.55,21.87,16.35,22.15Z"/><path class="cls-6" d="M27.46,33.34a2.67,2.67,0,0,0-2.72,2.6l-.48,6.35c1.53,0,3.06,0,4.55-.13l.49,0,.45-5.8A2.69,2.69,0,0,0,27.46,33.34Z"/><path class="cls-9" d="M27.46,33.34a2.67,2.67,0,0,0-2.72,2.6l-.26,3.47a7.91,7.91,0,0,0,3.21.79A7.11,7.11,0,0,0,29.46,40l.29-3.71A2.69,2.69,0,0,0,27.46,33.34Z"/><path class="cls-6" d="M30.6,9.1a11.15,11.15,0,0,0-3.77.24A12.84,12.84,0,0,0,20,13.92a14.8,14.8,0,0,0-1.38,2l-.05.1c-3.5,6.35-2.91,20.86,7.34,22,6.08.66,12.54-5.82,13.56-12.54C40.5,18.55,38.1,9.88,30.6,9.1Z"/><path class="cls-10" d="M30.6,9.1a11.15,11.15,0,0,0-3.77.24A12.84,12.84,0,0,0,20,13.92a14.8,14.8,0,0,0-1.38,2l-.05.1a16,16,0,0,0-1.64,5c5.19-4.2,12.86-1.66,18.63-4.47-1.58,2.13.47,6.22,1.74,7.26A8.11,8.11,0,0,0,39.51,25C40.39,18.17,37.94,9.86,30.6,9.1Z"/><g class="cls-11"><path class="cls-6" d="M21.56,22.11a4.44,4.44,0,1,0,4,4.85A4.45,4.45,0,0,0,21.56,22.11Z"/><path class="cls-12" d="M21.56,22.14a4.41,4.41,0,1,0,4,4.82A4.41,4.41,0,0,0,21.56,22.14Z"/><path class="cls-13" d="M21.56,22.17A4.38,4.38,0,1,0,25.48,27,4.38,4.38,0,0,0,21.56,22.17Z"/><path class="cls-14" d="M21.55,22.2A4.35,4.35,0,1,0,25.45,27,4.36,4.36,0,0,0,21.55,22.2Z"/><path class="cls-15" d="M21.55,22.23A4.32,4.32,0,1,0,25.42,27,4.32,4.32,0,0,0,21.55,22.23Z"/><path class="cls-16" d="M21.55,22.26A4.29,4.29,0,1,0,25.39,27,4.29,4.29,0,0,0,21.55,22.26Z"/><path class="cls-17" d="M21.55,22.29A4.26,4.26,0,1,0,25.36,27,4.26,4.26,0,0,0,21.55,22.29Z"/><path class="cls-18" d="M21.54,22.32a4.23,4.23,0,1,0,3.79,4.62A4.23,4.23,0,0,0,21.54,22.32Z"/><path class="cls-19" d="M21.54,22.35a4.2,4.2,0,1,0,3.76,4.59A4.2,4.2,0,0,0,21.54,22.35Z"/><path class="cls-20" d="M21.54,22.38a4.17,4.17,0,1,0,3.73,4.56A4.16,4.16,0,0,0,21.54,22.38Z"/><path class="cls-21" d="M21.53,22.41a4.13,4.13,0,1,0,3.71,4.53A4.12,4.12,0,0,0,21.53,22.41Z"/><path class="cls-22" d="M21.53,22.44a4.11,4.11,0,1,0,3.68,4.49A4.09,4.09,0,0,0,21.53,22.44Z"/><path class="cls-23" d="M21.53,22.47a4.08,4.08,0,1,0,3.65,4.46A4.08,4.08,0,0,0,21.53,22.47Z"/><path class="cls-24" d="M21.53,22.5a4.05,4.05,0,1,0,3.62,4.43A4,4,0,0,0,21.53,22.5Z"/><path class="cls-25" d="M21.52,22.53a4,4,0,1,0,3.61,4.39A4,4,0,0,0,21.52,22.53Z"/><path class="cls-26" d="M21.52,22.56a4,4,0,1,0,3.58,4.36A4,4,0,0,0,21.52,22.56Z"/><path class="cls-27" d="M21.52,22.59a4,4,0,1,0,3.55,4.33A4,4,0,0,0,21.52,22.59Z"/><path class="cls-28" d="M21.51,22.61A3.93,3.93,0,1,0,25,26.92,3.94,3.94,0,0,0,21.51,22.61Z"/><path class="cls-29" d="M21.51,22.64A3.9,3.9,0,1,0,25,26.91,3.92,3.92,0,0,0,21.51,22.64Z"/><path class="cls-30" d="M21.51,22.67A3.87,3.87,0,1,0,25,26.91,3.88,3.88,0,0,0,21.51,22.67Z"/><path class="cls-31" d="M21.5,22.7A3.84,3.84,0,1,0,25,26.91,3.85,3.85,0,0,0,21.5,22.7Z"/><path class="cls-32" d="M21.5,22.73a3.81,3.81,0,1,0,3.42,4.17A3.81,3.81,0,0,0,21.5,22.73Z"/><path class="cls-33" d="M21.5,22.76a3.78,3.78,0,1,0,3.39,4.14A3.79,3.79,0,0,0,21.5,22.76Z"/><path class="cls-34" d="M21.5,22.79a3.75,3.75,0,1,0,3.36,4.11A3.75,3.75,0,0,0,21.5,22.79Z"/><path class="cls-35" d="M21.49,22.82a3.72,3.72,0,1,0,3.34,4.07A3.72,3.72,0,0,0,21.49,22.82Z"/><path class="cls-36" d="M21.49,22.85a3.69,3.69,0,1,0,3.31,4A3.69,3.69,0,0,0,21.49,22.85Z"/><path class="cls-37" d="M21.49,22.88a3.66,3.66,0,1,0,3.28,4A3.66,3.66,0,0,0,21.49,22.88Z"/><path class="cls-38" d="M21.48,22.91a3.63,3.63,0,1,0,3.26,4A3.63,3.63,0,0,0,21.48,22.91Z"/><path class="cls-39" d="M21.48,22.94a3.6,3.6,0,1,0,3.23,3.94A3.6,3.6,0,0,0,21.48,22.94Z"/><path class="cls-40" d="M21.48,23a3.58,3.58,0,1,0,3.2,3.91A3.57,3.57,0,0,0,21.48,23Z"/><path class="cls-41" d="M21.48,23a3.55,3.55,0,1,0,3.17,3.88A3.54,3.54,0,0,0,21.48,23Z"/><path class="cls-42" d="M21.47,23a3.52,3.52,0,1,0,3.16,3.84A3.51,3.51,0,0,0,21.47,23Z"/><path class="cls-42" d="M21.47,23.06a3.49,3.49,0,1,0,3.13,3.81A3.49,3.49,0,0,0,21.47,23.06Z"/><path class="cls-43" d="M21.47,23.09a3.46,3.46,0,1,0,3.1,3.78A3.46,3.46,0,0,0,21.47,23.09Z"/><path class="cls-44" d="M21.46,23.11a3.43,3.43,0,1,0,3.08,3.76A3.44,3.44,0,0,0,21.46,23.11Z"/><path class="cls-45" d="M21.46,23.14a3.4,3.4,0,1,0,3.05,3.72A3.41,3.41,0,0,0,21.46,23.14Z"/><path class="cls-46" d="M21.46,23.17a3.37,3.37,0,1,0,3,3.69A3.38,3.38,0,0,0,21.46,23.17Z"/><path class="cls-47" d="M21.46,23.2a3.34,3.34,0,1,0,3,3.66A3.35,3.35,0,0,0,21.46,23.2Z"/><path class="cls-47" d="M21.45,23.23a3.31,3.31,0,1,0,3,3.62A3.31,3.31,0,0,0,21.45,23.23Z"/><path class="cls-48" d="M21.45,23.26a3.28,3.28,0,1,0,2.94,3.59A3.29,3.29,0,0,0,21.45,23.26Z"/><path class="cls-49" d="M21.45,23.29a3.25,3.25,0,1,0,2.91,3.56A3.25,3.25,0,0,0,21.45,23.29Z"/><path class="cls-50" d="M21.44,23.32a3.22,3.22,0,1,0,2.89,3.52A3.21,3.21,0,0,0,21.44,23.32Z"/><path class="cls-51" d="M21.44,23.35a3.19,3.19,0,1,0,2.86,3.49A3.2,3.2,0,0,0,21.44,23.35Z"/><path class="cls-52" d="M21.44,23.38a3.16,3.16,0,1,0,2.83,3.46A3.16,3.16,0,0,0,21.44,23.38Z"/><path class="cls-52" d="M21.43,23.41a3.13,3.13,0,1,0,2.81,3.43A3.13,3.13,0,0,0,21.43,23.41Z"/><path class="cls-53" d="M21.43,23.44a3.1,3.1,0,1,0,2.78,3.39A3.1,3.1,0,0,0,21.43,23.44Z"/><path class="cls-54" d="M21.43,23.47a3.08,3.08,0,1,0,2.75,3.36A3.06,3.06,0,0,0,21.43,23.47Z"/><path class="cls-55" d="M21.43,23.5a3,3,0,1,0,2.72,3.33A3,3,0,0,0,21.43,23.5Z"/><path class="cls-56" d="M21.42,23.53a3,3,0,1,0,2.71,3.29A3,3,0,0,0,21.42,23.53Z"/><path class="cls-57" d="M21.42,23.56a3,3,0,1,0,2.68,3.26A3,3,0,0,0,21.42,23.56Z"/><path class="cls-58" d="M21.42,23.59a3,3,0,1,0,2.65,3.23A3,3,0,0,0,21.42,23.59Z"/><path class="cls-59" d="M21.41,23.61A2.93,2.93,0,1,0,24,26.82,2.94,2.94,0,0,0,21.41,23.61Z"/><path class="cls-60" d="M21.41,23.64A2.9,2.9,0,1,0,24,26.81,2.91,2.91,0,0,0,21.41,23.64Z"/><path class="cls-61" d="M21.41,23.67A2.87,2.87,0,1,0,24,26.81,2.88,2.88,0,0,0,21.41,23.67Z"/><path class="cls-62" d="M21.41,23.7A2.84,2.84,0,1,0,24,26.81,2.85,2.85,0,0,0,21.41,23.7Z"/><path class="cls-63" d="M21.4,23.73a2.81,2.81,0,1,0,2.52,3.07A2.81,2.81,0,0,0,21.4,23.73Z"/><path class="cls-64" d="M21.4,23.76a2.78,2.78,0,1,0,2.49,3A2.78,2.78,0,0,0,21.4,23.76Z"/><path class="cls-65" d="M21.4,23.79a2.75,2.75,0,1,0,2.46,3A2.75,2.75,0,0,0,21.4,23.79Z"/><path class="cls-66" d="M21.39,23.82a2.72,2.72,0,1,0,2.44,3A2.72,2.72,0,0,0,21.39,23.82Z"/><path class="cls-67" d="M21.39,23.85a2.69,2.69,0,1,0,2.41,2.94A2.68,2.68,0,0,0,21.39,23.85Z"/><path class="cls-67" d="M21.39,23.88a2.66,2.66,0,1,0,2.38,2.91A2.65,2.65,0,0,0,21.39,23.88Z"/><path class="cls-68" d="M21.39,23.91a2.63,2.63,0,1,0,2.35,2.88A2.63,2.63,0,0,0,21.39,23.91Z"/><path class="cls-69" d="M21.38,23.94a2.6,2.6,0,1,0,2.33,2.84A2.59,2.59,0,0,0,21.38,23.94Z"/><path class="cls-70" d="M21.38,24a2.57,2.57,0,1,0,2.3,2.81A2.57,2.57,0,0,0,21.38,24Z"/><path class="cls-71" d="M21.38,24a2.54,2.54,0,1,0,2.27,2.78A2.53,2.53,0,0,0,21.38,24Z"/><path class="cls-72" d="M21.37,24a2.51,2.51,0,1,0,2.26,2.74A2.5,2.5,0,0,0,21.37,24Z"/><path class="cls-73" d="M21.37,24.06a2.48,2.48,0,1,0,2.23,2.71A2.49,2.49,0,0,0,21.37,24.06Z"/><path class="cls-74" d="M21.37,24.09a2.45,2.45,0,1,0,2.2,2.68A2.46,2.46,0,0,0,21.37,24.09Z"/><path class="cls-75" d="M21.36,24.11a2.43,2.43,0,1,0,2.18,2.66A2.44,2.44,0,0,0,21.36,24.11Z"/><path class="cls-76" d="M21.36,24.14a2.4,2.4,0,1,0,2.15,2.62A2.4,2.4,0,0,0,21.36,24.14Z"/><path class="cls-77" d="M21.36,24.17a2.37,2.37,0,1,0,2.12,2.59A2.37,2.37,0,0,0,21.36,24.17Z"/><path class="cls-78" d="M21.36,24.2a2.34,2.34,0,1,0,2.09,2.56A2.34,2.34,0,0,0,21.36,24.2Z"/><path class="cls-79" d="M21.35,24.23a2.31,2.31,0,1,0,2.07,2.52A2.31,2.31,0,0,0,21.35,24.23Z"/><path class="cls-80" d="M21.35,24.26a2.28,2.28,0,1,0,2,2.49A2.28,2.28,0,0,0,21.35,24.26Z"/><path class="cls-81" d="M21.35,24.29a2.25,2.25,0,1,0,2,2.46A2.25,2.25,0,0,0,21.35,24.29Z"/><path class="cls-82" d="M21.34,24.32a2.22,2.22,0,1,0,2,2.43A2.22,2.22,0,0,0,21.34,24.32Z"/></g><g class="cls-83"><path class="cls-6" d="M32.88,23.24a4.43,4.43,0,1,0,4,4.85A4.45,4.45,0,0,0,32.88,23.24Z"/><path class="cls-12" d="M32.88,23.27a4.4,4.4,0,1,0,3.95,4.82A4.41,4.41,0,0,0,32.88,23.27Z"/><path class="cls-13" d="M32.88,23.3a4.37,4.37,0,1,0,3.92,4.78A4.37,4.37,0,0,0,32.88,23.3Z"/><path class="cls-14" d="M32.88,23.33a4.34,4.34,0,1,0,3.89,4.75A4.35,4.35,0,0,0,32.88,23.33Z"/><path class="cls-15" d="M32.87,23.36a4.31,4.31,0,1,0,3.87,4.72A4.31,4.31,0,0,0,32.87,23.36Z"/><path class="cls-16" d="M32.87,23.39a4.29,4.29,0,1,0,3.84,4.68A4.28,4.28,0,0,0,32.87,23.39Z"/><path class="cls-17" d="M32.87,23.42a4.26,4.26,0,1,0,3.81,4.65A4.25,4.25,0,0,0,32.87,23.42Z"/><path class="cls-18" d="M32.86,23.44a4.23,4.23,0,1,0,3.79,4.63A4.23,4.23,0,0,0,32.86,23.44Z"/><path class="cls-19" d="M32.86,23.47a4.2,4.2,0,1,0,3.76,4.6A4.2,4.2,0,0,0,32.86,23.47Z"/><path class="cls-20" d="M32.86,23.5a4.17,4.17,0,1,0,3.73,4.56A4.18,4.18,0,0,0,32.86,23.5Z"/><path class="cls-21" d="M32.85,23.53a4.14,4.14,0,1,0,3.71,4.53A4.14,4.14,0,0,0,32.85,23.53Z"/><path class="cls-22" d="M32.85,23.56a4.11,4.11,0,1,0,3.68,4.5A4.11,4.11,0,0,0,32.85,23.56Z"/><path class="cls-23" d="M32.85,23.59a4.08,4.08,0,1,0,3.65,4.46A4.08,4.08,0,0,0,32.85,23.59Z"/><path class="cls-24" d="M32.85,23.62a4,4,0,1,0,3.63,4.43A4.05,4.05,0,0,0,32.85,23.62Z"/><path class="cls-25" d="M32.84,23.65a4,4,0,1,0,3.61,4.4A4,4,0,0,0,32.84,23.65Z"/><path class="cls-26" d="M32.84,23.68a4,4,0,1,0,3.58,4.37A4,4,0,0,0,32.84,23.68Z"/><path class="cls-27" d="M32.84,23.71A4,4,0,1,0,36.39,28,4,4,0,0,0,32.84,23.71Z"/><path class="cls-28" d="M32.83,23.74A3.93,3.93,0,1,0,36.36,28,3.93,3.93,0,0,0,32.83,23.74Z"/><path class="cls-29" d="M32.83,23.77A3.9,3.9,0,1,0,36.33,28,3.91,3.91,0,0,0,32.83,23.77Z"/><path class="cls-30" d="M32.83,23.8A3.87,3.87,0,1,0,36.3,28,3.87,3.87,0,0,0,32.83,23.8Z"/><path class="cls-31" d="M32.83,23.83A3.84,3.84,0,1,0,36.27,28,3.84,3.84,0,0,0,32.83,23.83Z"/><path class="cls-32" d="M32.82,23.86A3.81,3.81,0,1,0,36.24,28,3.81,3.81,0,0,0,32.82,23.86Z"/><path class="cls-33" d="M32.82,23.89A3.78,3.78,0,1,0,36.21,28,3.78,3.78,0,0,0,32.82,23.89Z"/><path class="cls-34" d="M32.82,23.92A3.75,3.75,0,1,0,36.18,28,3.75,3.75,0,0,0,32.82,23.92Z"/><path class="cls-35" d="M32.81,23.94A3.73,3.73,0,1,0,36.15,28,3.73,3.73,0,0,0,32.81,23.94Z"/><path class="cls-36" d="M32.81,24A3.7,3.7,0,1,0,36.12,28,3.7,3.7,0,0,0,32.81,24Z"/><path class="cls-37" d="M32.81,24a3.67,3.67,0,1,0,3.28,4A3.66,3.66,0,0,0,32.81,24Z"/><path class="cls-38" d="M32.81,24a3.64,3.64,0,1,0,3.25,4A3.64,3.64,0,0,0,32.81,24Z"/><path class="cls-39" d="M32.8,24.06A3.61,3.61,0,1,0,36,28,3.6,3.6,0,0,0,32.8,24.06Z"/><path class="cls-40" d="M32.8,24.09A3.58,3.58,0,1,0,36,28,3.57,3.57,0,0,0,32.8,24.09Z"/><path class="cls-41" d="M32.8,24.12A3.55,3.55,0,1,0,36,28,3.55,3.55,0,0,0,32.8,24.12Z"/><path class="cls-42" d="M32.79,24.15A3.52,3.52,0,1,0,36,28,3.51,3.51,0,0,0,32.79,24.15Z"/><path class="cls-42" d="M32.79,24.18A3.49,3.49,0,1,0,35.92,28,3.48,3.48,0,0,0,32.79,24.18Z"/><path class="cls-43" d="M32.79,24.21A3.46,3.46,0,1,0,35.89,28,3.47,3.47,0,0,0,32.79,24.21Z"/><path class="cls-44" d="M32.78,24.24A3.43,3.43,0,1,0,35.86,28,3.43,3.43,0,0,0,32.78,24.24Z"/><path class="cls-45" d="M32.78,24.27a3.4,3.4,0,1,0,3,3.72A3.4,3.4,0,0,0,32.78,24.27Z"/><path class="cls-46" d="M32.78,24.3a3.37,3.37,0,1,0,3,3.68A3.37,3.37,0,0,0,32.78,24.3Z"/><path class="cls-47" d="M32.78,24.33a3.34,3.34,0,1,0,3,3.65A3.34,3.34,0,0,0,32.78,24.33Z"/><path class="cls-47" d="M32.77,24.36a3.31,3.31,0,1,0,3,3.62A3.3,3.3,0,0,0,32.77,24.36Z"/><path class="cls-48" d="M32.77,24.39A3.28,3.28,0,1,0,35.71,28,3.28,3.28,0,0,0,32.77,24.39Z"/><path class="cls-49" d="M32.77,24.42A3.25,3.25,0,1,0,35.68,28,3.25,3.25,0,0,0,32.77,24.42Z"/><path class="cls-50" d="M32.76,24.44A3.23,3.23,0,1,0,35.65,28,3.23,3.23,0,0,0,32.76,24.44Z"/><path class="cls-51" d="M32.76,24.47A3.2,3.2,0,1,0,35.62,28,3.2,3.2,0,0,0,32.76,24.47Z"/><path class="cls-52" d="M32.76,24.5A3.17,3.17,0,1,0,35.59,28,3.16,3.16,0,0,0,32.76,24.5Z"/><path class="cls-52" d="M32.76,24.53A3.14,3.14,0,1,0,35.56,28,3.13,3.13,0,0,0,32.76,24.53Z"/><path class="cls-53" d="M32.75,24.56A3.11,3.11,0,1,0,35.53,28,3.1,3.1,0,0,0,32.75,24.56Z"/><path class="cls-54" d="M32.75,24.59A3.08,3.08,0,1,0,35.5,28,3.07,3.07,0,0,0,32.75,24.59Z"/><path class="cls-55" d="M32.75,24.62A3,3,0,1,0,35.48,28,3,3,0,0,0,32.75,24.62Z"/><path class="cls-56" d="M32.74,24.65A3,3,0,1,0,35.45,28,3,3,0,0,0,32.74,24.65Z"/><path class="cls-57" d="M32.74,24.68A3,3,0,1,0,35.42,28,3,3,0,0,0,32.74,24.68Z"/><path class="cls-58" d="M32.74,24.71a3,3,0,1,0,2.65,3.23A3,3,0,0,0,32.74,24.71Z"/><path class="cls-59" d="M32.74,24.74a2.92,2.92,0,1,0,2.62,3.2A2.93,2.93,0,0,0,32.74,24.74Z"/><path class="cls-60" d="M32.73,24.77a2.89,2.89,0,1,0,2.6,3.17A2.9,2.9,0,0,0,32.73,24.77Z"/><path class="cls-61" d="M32.73,24.8a2.86,2.86,0,1,0,2.57,3.13A2.86,2.86,0,0,0,32.73,24.8Z"/><path class="cls-62" d="M32.73,24.83a2.83,2.83,0,1,0,2.54,3.1A2.84,2.84,0,0,0,32.73,24.83Z"/><path class="cls-63" d="M32.72,24.86a2.8,2.8,0,1,0,2.52,3.07A2.8,2.8,0,0,0,32.72,24.86Z"/><path class="cls-64" d="M32.72,24.89a2.78,2.78,0,1,0,2.49,3A2.77,2.77,0,0,0,32.72,24.89Z"/><path class="cls-65" d="M32.72,24.92a2.75,2.75,0,1,0,2.46,3A2.75,2.75,0,0,0,32.72,24.92Z"/><path class="cls-66" d="M32.71,24.94a2.72,2.72,0,1,0,2.44,3A2.73,2.73,0,0,0,32.71,24.94Z"/><path class="cls-67" d="M32.71,25a2.69,2.69,0,1,0,2.41,3A2.7,2.7,0,0,0,32.71,25Z"/><path class="cls-67" d="M32.71,25a2.66,2.66,0,1,0,2.38,2.91A2.67,2.67,0,0,0,32.71,25Z"/><path class="cls-68" d="M32.71,25a2.63,2.63,0,1,0,2.35,2.88A2.64,2.64,0,0,0,32.71,25Z"/><path class="cls-69" d="M32.7,25.06A2.6,2.6,0,1,0,35,27.91,2.59,2.59,0,0,0,32.7,25.06Z"/><path class="cls-70" d="M32.7,25.09A2.57,2.57,0,1,0,35,27.9,2.57,2.57,0,0,0,32.7,25.09Z"/><path class="cls-71" d="M32.7,25.12A2.54,2.54,0,1,0,35,27.9,2.54,2.54,0,0,0,32.7,25.12Z"/><path class="cls-72" d="M32.69,25.15A2.51,2.51,0,1,0,35,27.9,2.5,2.5,0,0,0,32.69,25.15Z"/><path class="cls-73" d="M32.69,25.18a2.48,2.48,0,1,0,2.23,2.72A2.47,2.47,0,0,0,32.69,25.18Z"/><path class="cls-74" d="M32.69,25.21a2.45,2.45,0,1,0,2.2,2.68A2.46,2.46,0,0,0,32.69,25.21Z"/><path class="cls-75" d="M32.69,25.24a2.42,2.42,0,1,0,2.17,2.65A2.43,2.43,0,0,0,32.69,25.24Z"/><path class="cls-76" d="M32.68,25.27a2.39,2.39,0,1,0,2.15,2.62A2.4,2.4,0,0,0,32.68,25.27Z"/><path class="cls-77" d="M32.68,25.3a2.36,2.36,0,1,0,2.12,2.58A2.37,2.37,0,0,0,32.68,25.3Z"/><path class="cls-78" d="M32.68,25.33a2.33,2.33,0,1,0,2.09,2.55A2.34,2.34,0,0,0,32.68,25.33Z"/><path class="cls-79" d="M32.67,25.36a2.3,2.3,0,1,0,2.07,2.52A2.31,2.31,0,0,0,32.67,25.36Z"/><path class="cls-80" d="M32.67,25.39a2.28,2.28,0,1,0,2,2.49A2.28,2.28,0,0,0,32.67,25.39Z"/><path class="cls-81" d="M32.67,25.42a2.23,2.23,0,0,0-2.46,2,2.25,2.25,0,1,0,2.46-2Z"/><path class="cls-82" d="M32.67,25.44a2.22,2.22,0,1,0,2,2.43A2.22,2.22,0,0,0,32.67,25.44Z"/></g><path class="cls-84" d="M19.72,21.75s-1.57,1.43,0,2.69c1.33,1.08,3.94.84,3.94.84S21.71,19.56,19.72,21.75Z"/><path class="cls-84" d="M29.66,25.43a12.52,12.52,0,0,0,2.35.86c1.76.46,3.28-.89,3.25-3.08C35.26,23.11,31.93,21.54,29.66,25.43Z"/><path class="cls-85" d="M19.85,18.65l.24.39s2.44-1.49,4.5,2l.31-1.33A3.43,3.43,0,0,0,19.85,18.65Z"/><path class="cls-85" d="M30,20.18l0,1.37c2.69-3,4.79-1,4.79-1l.32-.34A3.44,3.44,0,0,0,30,20.18Z"/><path class="cls-86" d="M22,28.46S21.8,33,26.1,33.33c4,.33,5.41-4,5.41-4C25.48,33.3,22,28.46,22,28.46Z"/><path class="cls-84" d="M30,30.12a6.39,6.39,0,0,1-7.23-.79,7.13,7.13,0,0,1-.54,1,4.14,4.14,0,0,0,3.84,3,4.75,4.75,0,0,0,4.22-1.93A4.75,4.75,0,0,1,30,30.12Z"/><path class="cls-87" d="M30,30.12a6.39,6.39,0,0,1-7.23-.79,7.13,7.13,0,0,1-.54,1,5.43,5.43,0,0,0,.47,1,2.88,2.88,0,0,1,1.68-.32,14.11,14.11,0,0,1,1.77.17,4.23,4.23,0,0,1,2.68,1.48,5.78,5.78,0,0,0,1.46-1.3A4.75,4.75,0,0,1,30,30.12Z"/><path class="cls-6" d="M27.85,23.21l-1.21.12a1.9,1.9,0,0,1-.41,1.9S23.6,25,23.86,27.41c.55,2.21,4.75,2.32,4.49-1.66A13.5,13.5,0,0,0,27.85,23.21Z"/><path class="cls-88" d="M26.64,23.33a1.9,1.9,0,0,1-.41,1.9s-2-.15-2.33,1.43a7.43,7.43,0,0,0,2.35.4,4.14,4.14,0,0,0,1.09-3.8Z"/><path class="cls-9" d="M23.86,27.33v.08a2.26,2.26,0,0,0,4.19.22A6.22,6.22,0,0,1,23.86,27.33Z"/><path class="cls-89" d="M22.4,22.32a1,1,0,0,0-.27-.27c-.61-.37-1.16.45-1.36.91-.34.81-.21,1.64.3,1.85.91.39,1.81-1.13,1.64-1.88a1.2,1.2,0,0,0-.18-.4A1.07,1.07,0,0,0,22.4,22.32Z"/><path class="cls-90" d="M33.53,23c-.51-.22-1.19.26-1.54,1.07s-.21,1.63.29,1.85,1.2-.26,1.54-1.07S34,23.23,33.53,23Z"/><path class="cls-85" d="M21.52,20.5c-1.4-.62-2.36,1.11-2.36,1.11l-.24-.51-.59.69.82.77S20,21,21.09,21.35s2.53,3.93,2.53,3.93S22.92,21.13,21.52,20.5Z"/><path class="cls-85" d="M35.79,23a3.44,3.44,0,0,0-3.09-1c-2,.32-3,3.42-3,3.42a8.7,8.7,0,0,1,3.24-2.38,2.18,2.18,0,0,1,2.3,1.06l1.61-.75-.35-1.1Z"/><path class="cls-91" d="M42.16,15.67S38.1,2,27.54,4.19C20.43,5.67,15.25,12.2,12.19,21c5.6-5.78,17.34-4.13,24.87-6.66C34.61,20.46,39.15,25.48,43.27,30A9.47,9.47,0,0,1,45,32.81C46.25,24.35,45.13,15.41,42.16,15.67Z"/><path class="cls-92" d="M36.37,18a10.56,10.56,0,0,0,1,4.09,22.88,22.88,0,0,0,7.84-.75c-.09-.67-.21-1.3-.34-1.88A14,14,0,0,1,36.37,18Z"/><path class="cls-92" d="M27.42,4.21a16.16,16.16,0,0,0-7.53,4.05,17.52,17.52,0,0,0,4.89,8c2.64-.34,5.34-.57,7.84-1C29.66,12.57,26.82,8.17,27.42,4.21Z"/><path class="cls-6" d="M40.92,24.59c-1.12-.51-2.6.41-3.31,2.06s-.38,3.4.73,3.92,2.6-.41,3.31-2.06S42,25.1,40.92,24.59Z"/><path class="cls-9" d="M37.74,28.43c-1.93,4.49-6.59,8.29-11.4,8.55a10,10,0,0,1-6.47-2,9,9,0,0,0,6,3.07c4.61.5,9.44-3.11,12-7.81a1.67,1.67,0,0,0,.5.37c1.07.49,2.46-.33,3.21-1.83a5.67,5.67,0,0,1-1.39.77A2.42,2.42,0,0,1,37.74,28.43Z"/><path class="cls-9" d="M38.61,27.48l1.18.27a2.37,2.37,0,0,1,1.41-2.11C39.26,24.74,38.61,27.48,38.61,27.48Z"/><path class="cls-84" d="M21.35,23.53c0,.21-.24.43-.55.48s-.58-.08-.58-.29.24-.43.55-.48S21.34,23.32,21.35,23.53Z"/><path class="cls-84" d="M32.61,24.58c0,.22-.25.43-.56.48s-.57-.08-.58-.29.24-.43.56-.48S32.6,24.37,32.61,24.58Z"/><path class="cls-93" d="M22,28.46A7.3,7.3,0,0,0,26,30a14.83,14.83,0,0,0,5.56-.67A7,7,0,0,1,26.1,30.9C22.85,30.47,22,28.46,22,28.46Z"/><path class="cls-94" d="M22,28.46s.38,3.83,3.7,4.24c2.92.35,5.85-3.41,5.85-3.41s-1.28,4.9-5.82,4.57C20.94,33.51,22,28.46,22,28.46Z"/><path class="cls-95" d="M25.37,34.35a6,6,0,0,0,.77,0,.52.52,0,0,1,.51.68A1,1,0,0,1,24.79,35,.52.52,0,0,1,25.37,34.35Z"/></svg>