<svg id="Layer_1" data-name="Layer 1" xmlns="http://www.w3.org/2000/svg" viewBox="0 0 89.67 80.11"><defs><style>.cls-1{fill:#fff; fill-opacity: 0.5}</style></defs><path class="cls-1" d="M45.23,88.47H43.88c-4.05-.08-5.55-2.3-5.55-6.26a37.55,37.55,0,0,1,.47-5,41.28,41.28,0,0,0,.48-5.79c.08-5.55-2.22-8-6.27-9V62.3c4.05-.95,6.35-3.33,6.27-9a39.82,39.82,0,0,0-.48-5.63,40,40,0,0,1-.47-5.08c0-3.89,1.42-6.11,5.47-6.19h1.43a2.82,2.82,0,0,0,0-5.63H43c-7.13,0-11.81,3.17-11.81,10.55a44.41,44.41,0,0,0,.55,6.42,59.61,59.61,0,0,1,.48,6.43c0,2.54-.72,5.55-6.19,5.63V65c5.55.07,6.19,3.33,6.19,5.63a56.38,56.38,0,0,1-.48,6.26,44.43,44.43,0,0,0-.55,6.35c0,8,4.91,10.87,11.74,10.87h2.3a2.82,2.82,0,0,0,0-5.64Z" transform="translate(-26.03 -30.81)"/><path class="cls-1" d="M109.51,54.29A56.56,56.56,0,0,1,110,48a44.35,44.35,0,0,0,.56-6.34c0-8-4.92-10.87-11.74-10.87h-2.3a2.82,2.82,0,1,0,0,5.63h1.34c4.05.08,5.56,2.3,5.56,6.27a37.62,37.62,0,0,1-.48,5,41.15,41.15,0,0,0-.48,5.79c-.07,5.55,2.23,8,6.27,9v.16c-4,1-6.34,3.33-6.27,9a40,40,0,0,0,.48,5.63,40.09,40.09,0,0,1,.48,5.08c0,3.88-1.43,6.1-5.48,6.18H80.74L62,101.23V54.48h8.44a12.5,12.5,0,0,0-1.1,2.46,25.74,25.74,0,0,0-.94,7.61,26,26,0,0,0,.94,7.67c1.69,5.21,6.1,8.11,11.88,8.11a11.76,11.76,0,0,0,9.62-4.4,3.19,3.19,0,0,0,.75-2,2.29,2.29,0,0,0-2.32-2.33,3.1,3.1,0,0,0-2.33,1.26,7.14,7.14,0,0,1-5.72,2.51,6.54,6.54,0,0,1-6.73-4.71,20.35,20.35,0,0,1-.69-6.16,20.17,20.17,0,0,1,.69-6.1,6.54,6.54,0,0,1,6.73-4.71,7.14,7.14,0,0,1,5.72,2.51,3.13,3.13,0,0,0,2.33,1.26,2.29,2.29,0,0,0,2.32-2.33,3.19,3.19,0,0,0-.75-2,11.76,11.76,0,0,0-9.62-4.4H62V41.68a2.84,2.84,0,0,0-5.67,0v7.15H49.49a2.83,2.83,0,0,0,0,5.65h6.83v53.61a2.84,2.84,0,0,0,1.75,2.62,2.92,2.92,0,0,0,1.08.21,2.85,2.85,0,0,0,2-.83l21.8-16H98.73c7.14,0,11.82-3.18,11.82-10.55a44.46,44.46,0,0,0-.56-6.43,59.24,59.24,0,0,1-.48-6.42c0-2.54.72-5.56,6.19-5.63V59.92C110.15,59.84,109.51,56.59,109.51,54.29Z" transform="translate(-26.03 -30.81)"/></svg>